<?xml version="1.0" encoding="UTF-8" standalone="no"?>
<!-- Generator: Adobe Illustrator 21.1.0, SVG Export Plug-In . SVG Version: 6.00 Build 0)  -->

<svg
   xmlns:dc="http://purl.org/dc/elements/1.1/"
   xmlns:cc="http://creativecommons.org/ns#"
   xmlns:rdf="http://www.w3.org/1999/02/22-rdf-syntax-ns#"
   xmlns:svg="http://www.w3.org/2000/svg"
   xmlns="http://www.w3.org/2000/svg"
   xmlns:xlink="http://www.w3.org/1999/xlink"
   xmlns:sodipodi="http://sodipodi.sourceforge.net/DTD/sodipodi-0.dtd"
   xmlns:inkscape="http://www.inkscape.org/namespaces/inkscape"
   version="1.1"
   x="0px"
   y="0px"
   viewBox="0 0 418.63465 340.5046"
   xml:space="preserve"
   id="svg52"
   sodipodi:docname="200902_Konzept-03.svg"
   width="418.63464"
   height="340.50461"
   inkscape:version="0.92.3 (2405546, 2018-03-11)"><metadata
   id="metadata58"><rdf:RDF><cc:Work
       rdf:about=""><dc:format>image/svg+xml</dc:format><dc:type
         rdf:resource="http://purl.org/dc/dcmitype/StillImage" /><dc:title></dc:title></cc:Work></rdf:RDF></metadata><defs
   id="defs56" /><sodipodi:namedview
   pagecolor="#ffffff"
   bordercolor="#666666"
   borderopacity="1"
   objecttolerance="10"
   gridtolerance="10"
   guidetolerance="10"
   inkscape:pageopacity="0"
   inkscape:pageshadow="2"
   inkscape:window-width="3840"
   inkscape:window-height="2059"
   id="namedview54"
   showgrid="false"
   fit-margin-top="0"
   fit-margin-left="0"
   fit-margin-right="0"
   fit-margin-bottom="0"
   inkscape:zoom="0.50459695"
   inkscape:cx="210.48463"
   inkscape:cy="170.24999"
   inkscape:window-x="0"
   inkscape:window-y="50"
   inkscape:window-maximized="1"
   inkscape:current-layer="svg52" />
<style
   type="text/css"
   id="style2">
	.st0{fill:#A5D0A8;}
	.st1{clip-path:url(#SVGID_2_);}
	.st2{clip-path:url(#SVGID_4_);}
	.st3{fill-rule:evenodd;clip-rule:evenodd;fill:#FFFFFF;}
	.st4{fill:#FFFBDC;stroke:#000000;stroke-width:4;stroke-miterlimit:10;}
	.st5{fill:#B9D6F2;}
	.st6{fill:#F9E500;}
	.st7{fill:#067F93;}
	.st8{fill:#FCFCFC;}
	.st9{fill-rule:evenodd;clip-rule:evenodd;fill:#037171;}
	.st10{fill:#037171;}
	.st11{fill-rule:evenodd;clip-rule:evenodd;fill:#A5D0A8;}
	.st12{fill-rule:evenodd;clip-rule:evenodd;fill:#00303C;}
	.st13{fill-rule:evenodd;clip-rule:evenodd;fill:#FFFF00;}
	.st14{fill-rule:evenodd;clip-rule:evenodd;fill:#B9D6F2;}
	.st15{fill:none;stroke:#000000;stroke-width:5.669;stroke-miterlimit:10;}
	.st16{opacity:0;}
	.st17{fill:#FFFFFF;}
	.st18{fill:url(#);}
	.st19{fill-rule:evenodd;clip-rule:evenodd;fill:url(#);}
	.st20{fill:none;stroke:#000000;stroke-width:31;stroke-linecap:square;stroke-miterlimit:10;}
	.st21{fill:none;stroke:#000000;stroke-width:3;stroke-miterlimit:10;}
	.st22{fill:none;stroke:#000000;stroke-width:2.835;stroke-linejoin:round;stroke-miterlimit:10;}
	.st23{fill:none;stroke:#000000;stroke-width:1.984;stroke-miterlimit:10;}
	.st24{fill:#E2E1E1;}
	.st25{fill:none;stroke:#00303C;stroke-width:6;stroke-miterlimit:10;}
	.st26{fill:#E2E1E1;stroke:#000000;stroke-width:6;stroke-miterlimit:10;}
	.st27{fill:none;stroke:#00303C;stroke-width:4.4694;stroke-miterlimit:10;}
	.st28{fill:#FFFFFF;stroke:#00303C;stroke-width:4.4694;stroke-miterlimit:10;}
	.st29{fill:none;}
	.st30{fill:#00303C;}
	.st31{fill:#3C3C3B;}
	.st32{fill:#FFFBDC;stroke:#00303C;stroke-width:5;stroke-miterlimit:10;}
	.st33{fill:#00303C;stroke:#00303C;stroke-width:4.4694;stroke-miterlimit:10;}
	.st34{clip-path:url(#SVGID_12_);}
	.st35{clip-path:url(#SVGID_14_);}
</style>
<g
   id="Ebene_1"
   transform="translate(-87.165366,-63.595385)">
</g>
<g
   id="Ebene_4"
   transform="translate(-87.165366,-63.595385)">
</g>
<g
   id="Ebene_3"
   transform="translate(-87.165366,-63.595385)">
</g>
<g
   id="Ebene_2"
   transform="translate(-87.165366,-63.595385)">
	<g
   id="g49">
		<g
   id="g25">
			<g
   id="g13">
				<defs
   id="defs8">
					<rect
   id="SVGID_60_"
   x="184.8"
   y="80.800003"
   width="321"
   height="321" />
				</defs>
				<clipPath
   id="SVGID_2_">
					<use
   xlink:href="#SVGID_60_"
   style="overflow:visible"
   id="use10"
   x="0"
   y="0"
   width="100%"
   height="100%" />
				</clipPath>
			</g>
			<path
   class="st32"
   d="m 419.9,127.8 v 104.7 c 0,3.9 -3.2,7.1 -7.1,7.1 H 270.1 c -3.9,0 -7.1,-3.2 -7.1,-7.1 V 127.8 c 0,-3.9 3.2,-7.1 7.1,-7.1 h 142.8 c 3.9,0.1 7,3.2 7,7.1 z"
   id="path15"
   inkscape:connector-curvature="0"
   style="fill:#fffbdc;stroke:#00303c;stroke-width:5;stroke-miterlimit:10" />
			<path
   class="st30"
   d="M 498.7,319.3 H 191.9 c -3.9,0 -7.1,-3.2 -7.1,-7.1 V 169.4 c 0,-3.9 3.2,-7.1 7.1,-7.1 h 306.8 c 3.9,0 7.1,3.2 7.1,7.1 v 142.8 c 0,3.9 -3.2,7.1 -7.1,7.1 z"
   id="path17"
   inkscape:connector-curvature="0"
   style="fill:#00303c" />
			<path
   class="st0"
   d="m 435.9,205.4 h -6 c -3.9,0 -7.1,-3.2 -7.1,-7.1 v -6 c 0,-3.9 3.2,-7.1 7.1,-7.1 h 6 c 3.9,0 7.1,3.2 7.1,7.1 v 6 c 0,3.9 -3.2,7.1 -7.1,7.1 z"
   id="path19"
   inkscape:connector-curvature="0"
   style="fill:#a5d0a8" />
			<path
   class="st24"
   d="m 466.2,205.4 h -6 c -3.9,0 -7.1,-3.2 -7.1,-7.1 v -6 c 0,-3.9 3.2,-7.1 7.1,-7.1 h 6 c 3.9,0 7.1,3.2 7.1,7.1 v 6 c 0,3.9 -3.2,7.1 -7.1,7.1 z"
   id="path21"
   inkscape:connector-curvature="0"
   style="fill:#e2e1e1" />
			<path
   class="st32"
   d="m 423.8,289.8 v 104.7 c 0,3.9 -3.2,7.1 -7.1,7.1 H 273.9 c -3.9,0 -7.1,-3.2 -7.1,-7.1 V 289.8 c 0,-3.9 3.2,-7.1 7.1,-7.1 h 142.8 c 3.9,0 7.1,3.2 7.1,7.1 z"
   id="path23"
   inkscape:connector-curvature="0"
   style="fill:#fffbdc;stroke:#00303c;stroke-width:5;stroke-miterlimit:10" />
		</g>
		<g
   id="g43">
			<g
   id="g41">
				<g
   id="g39">
					<path
   class="st33"
   d="m 153.3,105.4 c -1.7,-1.1 -3.3,-2.1 -4.9,-3 -1.8,-1.1 -1.8,-1.1 -1,-3.1 0.8,-2.1 1.7,-4.2 2.6,-6.3 0.1,-0.3 0.6,-0.6 0.9,-0.7 2.1,-0.3 4.3,-0.4 6.4,-0.7 0.4,-0.1 0.9,-0.3 1.1,-0.7 0.8,-1 1.5,-2.1 2.1,-3.2 0.2,-0.3 0.3,-0.8 0.2,-1.2 -0.4,-2.1 -0.9,-4.2 -1.4,-6.3 -0.2,-0.6 0,-1 0.5,-1.3 2.6,-1.6 5.1,-3.3 7.7,-5 0.5,-0.3 0.8,-0.2 1.2,0.1 1.4,1.3 2.9,2.5 4.4,3.7 0.3,0.3 0.8,0.5 1.2,0.4 1.4,-0.1 2.8,-0.3 4.2,-0.5 0.3,-0.1 0.7,-0.3 0.9,-0.6 1.2,-2 2.3,-4.1 3.4,-6.1 0.3,-0.6 0.6,-0.8 1.4,-0.6 3.1,0.9 6.1,1.7 9.2,2.5 0.6,0.2 0.8,0.5 0.9,1.1 0.2,2 0.4,4.1 0.7,6.1 0.1,0.4 0.3,0.9 0.6,1.2 0.9,0.9 1.9,1.7 2.8,2.6 0.4,0.4 0.8,0.5 1.4,0.3 2.3,-0.7 4.7,-1.3 7,-2 0.5,-0.2 0.8,-0.1 1.1,0.4 1.6,2.8 3.3,5.6 5,8.3 0.3,0.5 0.2,0.8 -0.1,1.2 -1.5,1.9 -3,3.8 -4.4,5.8 -0.3,0.4 -0.3,1 -0.3,1.4 0,0.6 0.3,1.1 0.4,1.7 0.1,2 1.2,3.1 2.9,4 1.3,0.7 2.4,1.6 3.7,2.3 0.5,0.3 0.7,0.6 0.5,1.2 -0.8,2.6 -1.5,5.3 -2.2,7.9 -0.2,0.6 -0.5,0.8 -1,0.9 -2.2,0.4 -4.4,0.8 -6.6,1.3 -0.5,0.1 -1,0.5 -1.4,0.9 -0.3,0.3 -0.5,0.7 -0.7,1 -1.6,1.5 -1.7,3.2 -0.9,5.1 0.5,1.2 0.8,2.6 1.2,3.9 0.2,0.5 0.1,0.9 -0.4,1.2 -2.7,1.6 -5.4,3.3 -8,5 -0.5,0.3 -0.8,0.3 -1.2,-0.1 -1.5,-1.5 -3,-3 -4.6,-4.5 -0.3,-0.3 -0.9,-0.5 -1.4,-0.6 -1.3,-0.1 -2.7,0 -4.1,0 -0.6,0 -1,0.2 -1.2,0.8 -1.3,2.5 -2.6,4.9 -3.9,7.3 -0.3,0.5 -0.5,0.6 -1.1,0.4 -2.8,-0.9 -5.7,-1.7 -8.5,-2.6 -0.3,-0.1 -0.6,-0.5 -0.7,-0.7 -0.2,-2.4 -0.2,-4.7 -0.4,-7.1 0,-0.3 -0.2,-0.7 -0.5,-0.9 -1.7,-1.1 -3.4,-2.2 -5.1,-3.2 -0.3,-0.2 -0.8,-0.1 -1.1,0.1 -1.7,0.7 -3.5,1.4 -5.2,2.1 -0.5,0.2 -0.8,0.2 -1.2,-0.3 -1.7,-2.6 -3.5,-5.2 -5.3,-7.7 -0.4,-0.6 -0.4,-1 0.1,-1.5 1.4,-1.5 2.7,-3.1 4,-4.7 0.3,-0.4 0.5,-1 0.4,-1.4 -0.2,-1.5 -0.5,-3 -0.7,-4.6 -0.4,-0.5 -0.5,-0.8 -0.6,-1 z m 37.9,10.3 c 1.9,-1.6 3.4,-3.6 4.4,-5.9 3.9,-9 -1.4,-18.9 -11,-20.3 -7.1,-1.1 -14.4,3.2 -17.1,10 -2.2,5.8 -0.8,12.3 3.4,16.1 5.4,5.1 14.1,5.4 20.3,0.1 z"
   id="path27"
   inkscape:connector-curvature="0"
   style="fill:#00303c;stroke:#00303c;stroke-width:4.46939993;stroke-miterlimit:10" />
					<path
   class="st33"
   d="m 137.6,129.1 c 0.1,0.4 0.2,0.6 0.3,0.9 0.6,1.7 1.1,3.5 1.7,5.2 0.1,0.4 0.5,0.7 0.9,1 0.4,0.3 0.9,0.4 1.3,0.7 1.6,1.2 3.1,1 4.7,0 1.1,-0.7 2.2,-1.2 3.4,-1.6 0.3,-0.1 0.9,-0.1 1.2,0.1 2,1.4 3.9,2.9 5.9,4.4 0.4,0.3 0.5,0.6 0.3,1.1 -0.7,1.9 -1.4,3.7 -1.9,5.6 -0.3,1 -0.1,2.2 -0.2,3.2 -0.2,2.2 0.8,3.2 2.9,3.6 1.3,0.2 2.4,0.8 3.7,1.2 0.5,0.2 0.8,0.4 0.7,1 -0.1,2.7 -0.1,5.4 -0.1,8 0,0.6 -0.2,0.8 -0.7,1 -1.8,0.5 -3.6,0.9 -5.4,1.5 -0.4,0.1 -0.9,0.5 -1.1,0.9 -0.7,1.1 -1.2,2.3 -1.8,3.5 -0.3,0.5 -0.2,1 0.2,1.5 1,1.8 1.9,3.6 2.8,5.4 0.1,0.2 0,0.6 -0.2,0.8 -1.7,2 -3.5,4 -5.3,6 -0.4,0.5 -0.8,0.5 -1.3,0.2 -2,-1.2 -4.1,-2.4 -6.1,-3.7 -0.6,-0.4 -1.1,-0.4 -1.7,0 -0.3,0.2 -0.6,0.5 -1,0.6 -2.1,0.8 -3.1,2.4 -3.4,4.6 -0.1,1.1 -0.6,2.3 -0.8,3.4 -0.1,0.5 -0.3,0.7 -0.9,0.7 -2.9,-0.1 -5.7,-0.1 -8.6,-0.1 -0.5,0 -0.7,-0.2 -0.8,-0.7 -0.5,-1.8 -0.9,-3.7 -1.5,-5.5 -0.1,-0.4 -0.5,-0.8 -0.8,-1 -2.3,-1.4 -4.6,-1.5 -7,-0.2 -0.8,0.5 -1.8,0.6 -2.6,1 -0.8,0.4 -1.4,0.2 -2,-0.4 -1.6,-1.6 -3.3,-3.2 -5,-4.7 -0.4,-0.4 -0.5,-0.7 -0.2,-1.2 0.9,-1.7 1.7,-3.4 2.5,-5.1 0.2,-0.4 0.2,-1 0.1,-1.4 -0.2,-1 -0.5,-2 -0.9,-3 -0.2,-0.4 -0.6,-0.8 -1,-1 -2,-0.8 -4,-1.6 -6,-2.3 -0.6,-0.2 -0.8,-0.5 -0.8,-1.1 0,-2.8 0,-5.7 0,-8.5 0,-0.7 0.2,-0.9 0.8,-1.1 2,-0.5 4.1,-1.1 6.1,-1.7 0.6,-0.2 0.9,-0.5 1.1,-1.1 1.2,-2.6 1,-5.1 -0.6,-7.4 -0.4,-0.6 -0.6,-1.3 -0.9,-2 -0.3,-0.6 -0.3,-0.9 0.2,-1.4 2,-2.1 4,-4.1 6,-6.3 0.4,-0.5 0.8,-0.5 1.3,-0.1 1.8,1.1 3.6,2.1 5.4,3.1 0.3,0.2 0.9,0.2 1.3,0.1 1,-0.4 1.9,-0.9 2.8,-1.3 0.9,-0.3 1.3,-0.9 1.5,-1.7 0.5,-1.5 1,-3 1.5,-4.5 0.1,-0.5 0.4,-0.6 0.9,-0.6 2.8,0.1 5.6,0.2 8.4,0.2 0.3,0.1 0.6,0.1 0.7,0.2 z"
   id="path29"
   inkscape:connector-curvature="0"
   style="fill:#00303c;stroke:#00303c;stroke-width:4.46939993;stroke-miterlimit:10" />
					<path
   class="st33"
   d="m 110.3,115.2 c -0.7,0.6 -1.4,1.1 -2,1.7 -0.4,0.4 -0.8,0.5 -1.3,0.2 -2.1,-1.1 -4.2,-2.1 -6.4,-3.1 -0.5,-0.3 -0.6,-0.6 -0.5,-1.1 0.4,-1.7 0.7,-3.5 1,-5.2 0.1,-0.4 -0.2,-0.8 -0.4,-1.2 0,0 0,0 -0.1,-0.1 -1.5,-1.9 -3.4,-2.5 -5.8,-2.3 -2.6,0.2 -2.6,0 -3.5,-2.5 -0.6,-1.7 -1.2,-3.3 -1.8,-5 -0.2,-0.6 -0.1,-0.9 0.4,-1.2 1.4,-0.9 2.8,-1.8 4.2,-2.7 0.5,-0.3 0.8,-0.7 0.7,-1.3 0,-0.2 0,-0.5 0,-0.8 0.5,-2 -0.4,-3.5 -1.9,-4.7 -0.7,-0.6 -1.6,-1.2 -1.8,-2 -0.1,-0.7 0.6,-1.6 1.1,-2.3 0.7,-1.4 1.5,-2.8 2.2,-4.2 0.3,-0.6 0.7,-0.7 1.3,-0.6 1.5,0.3 3,0.5 4.5,0.6 0.5,0 1,-0.2 1.5,-0.4 2.1,-1.1 3,-2.8 2.6,-5.1 -0.4,-2.2 0.4,-3.5 2.6,-4.2 1.2,-0.4 2.3,-1.1 3.4,-1.7 0.5,-0.3 0.9,-0.2 1.3,0.2 1,1 2,2 3,3.1 1.3,1.5 3.1,1.7 4.7,2.4 0.2,0.1 0.6,-0.2 0.8,-0.4 1.2,-1.1 2.4,-2.3 3.5,-3.4 0.4,-0.4 0.7,-0.4 1.1,-0.2 2,1 4,2 6,3 0.4,0.2 0.6,0.5 0.5,1 -0.3,1.5 -0.7,3 -0.9,4.5 -0.1,0.4 0,0.9 0.3,1.3 1.2,2.1 2.6,3.7 5.4,3 0.8,-0.2 1.8,0 2.7,0 0.5,0 0.8,0.2 1,0.7 0.8,2 1.6,4 2.4,6 0.2,0.5 0.1,0.8 -0.4,1.1 -1.7,1.1 -3.4,2.2 -5.2,3.3 -0.5,0.3 -0.6,0.7 -0.6,1.2 -0.1,2.5 0.6,4.5 2.8,5.8 0.6,0.4 1.2,0.9 1.7,1.5 0.2,0.2 0.3,0.7 0.2,0.9 -1,2.1 -2.2,4.2 -3.2,6.3 -0.3,0.5 -0.6,0.6 -1.1,0.5 -1.5,-0.3 -3,-0.6 -4.4,-0.9 -0.4,-0.1 -0.8,0.2 -1.2,0.3 0,0 0,0 -0.1,0.1 -1.8,1.2 -2.8,2.8 -2.7,5 0,0.9 -0.2,1.8 -0.3,2.7 0,0.5 -0.2,0.8 -0.8,1 -1.9,0.7 -3.7,1.3 -5.6,2 -0.7,0.3 -1,0.1 -1.4,-0.4 -0.8,-1.2 -1.7,-2.3 -2.7,-3.4 -0.3,-0.3 -0.8,-0.6 -1.2,-0.8 -2.2,-0.8 -4,-0.3 -5.4,1.6 -0.1,0 -0.2,0 -0.2,0.2 -0.1,0 0,0 0,0 z"
   id="path31"
   inkscape:connector-curvature="0"
   style="fill:#00303c;stroke:#00303c;stroke-width:4.46939993;stroke-miterlimit:10" />
					<path
   class="st17"
   d="m 191.2,115.7 c -6.2,5.3 -14.9,5 -20.4,0 -4.2,-3.8 -5.6,-10.3 -3.4,-16.1 2.7,-6.8 9.9,-11.1 17.1,-10 9.6,1.4 14.9,11.4 11,20.3 -0.9,2.3 -2.4,4.2 -4.3,5.8 z"
   id="path33"
   inkscape:connector-curvature="0"
   style="fill:#ffffff" />
					<path
   class="st17"
   d="m 142.7,150.9 c 4.8,5.6 4.1,13.8 -1.5,18.6 -6,5.1 -15.2,4.4 -20.3,-1.6 -4.8,-5.6 -4.1,-13.9 1.5,-18.6 6.1,-5.2 15.2,-4.4 20.3,1.6 z"
   id="path35"
   inkscape:connector-curvature="0"
   style="fill:#ffffff" />
					<path
   class="st17"
   d="m 108.5,83.4 c 5.5,-4.3 12.9,-3.5 16.9,1.9 3,4.1 2.8,10.1 -0.6,14.3 -3.6,4.4 -9.6,5.9 -14.4,3.5 -5.7,-2.9 -7.9,-10.2 -4.6,-15.9 0.7,-1.3 1.7,-2.5 2.7,-3.8 z"
   id="path37"
   inkscape:connector-curvature="0"
   style="fill:#ffffff" />
				</g>
			</g>
		</g>
		<line
   class="st27"
   x1="293.60001"
   y1="334.89999"
   x2="397.10001"
   y2="334.89999"
   id="line45"
   style="fill:none;stroke:#00303c;stroke-width:4.46939993;stroke-miterlimit:10" />
		<line
   class="st27"
   x1="293.60001"
   y1="358.10001"
   x2="397.10001"
   y2="358.10001"
   id="line47"
   style="fill:none;stroke:#00303c;stroke-width:4.46939993;stroke-miterlimit:10" />
	</g>
</g>
</svg>