<svg id="Ebene_1" data-name="Ebene 1" xmlns="http://www.w3.org/2000/svg" viewBox="0 0 135 135"><title>Icons_landingpage</title><circle cx="67.5" cy="67.5" r="67.5" transform="translate(-1.21 1.24) rotate(-1.04)" style="fill:#4d9ca0"/><path d="M56.78,68.93h-.86c0-.52-.07-.91-.07-1.17v-.59h.88c0,.11,0,.22,0,.33C56.72,68,56.74,68.46,56.78,68.93Z" style="fill:#fff"/><path d="M57.37,62.5A16.25,16.25,0,0,0,57,64.21h-.53A8.17,8.17,0,0,1,57.37,62.5Z" style="fill:#fff"/><path d="M69.81,76.64a1.39,1.39,0,0,1-.2.71,1.82,1.82,0,0,1-.59.55A10,10,0,0,1,66.52,79a9,9,0,0,1-2.8.43,11.2,11.2,0,0,1-6.4-2L57,77.27a10.52,10.52,0,0,1-3.7-5.38H51.53a1.51,1.51,0,0,1-1.14-.43,1.47,1.47,0,0,1,0-2.14,1.55,1.55,0,0,1,1.14-.42H52.8a8.35,8.35,0,0,1,0-1.14v-.59H51.53a1.55,1.55,0,0,1-1.14-.42,1.48,1.48,0,0,1-.46-1.07,1.51,1.51,0,0,1,.46-1.08,1.55,1.55,0,0,1,1.14-.42h1.72A10.81,10.81,0,0,1,55.43,60a10.49,10.49,0,0,1,1.09-1.12,10.61,10.61,0,0,1,2.55-1.7,8.58,8.58,0,0,1,.83-.35,10.81,10.81,0,0,1,3.82-.66,9.6,9.6,0,0,1,2.74.39A11,11,0,0,1,69,57.71a1.39,1.39,0,0,1,.78,1.3,1.66,1.66,0,0,1-.39,1.07,1.24,1.24,0,0,1-1.07.52,1.79,1.79,0,0,1-.88-.22,6.62,6.62,0,0,0-3.71-1.14,7.63,7.63,0,0,0-4.42,1.33,7.2,7.2,0,0,0-1.93,1.92h0a8.17,8.17,0,0,0-.9,1.71H57l4.71,0a1.58,1.58,0,0,1,1.14.42,1.41,1.41,0,0,1,.45,1,1.47,1.47,0,0,1-.45,1.07,1.58,1.58,0,0,1-1.14.42l-5,0h-.88v.59c0,.26,0,.65.07,1.17h.86l4.93,0a1.58,1.58,0,0,1,1.14.42,1.42,1.42,0,0,1,.45,1,1.5,1.5,0,0,1-.45,1.08,1.58,1.58,0,0,1-1.14.42h-5a7,7,0,0,0,1,1.73h0a6.8,6.8,0,0,0,1.79,1.58,7.7,7.7,0,0,0,4.22,1.17,6.27,6.27,0,0,0,3.71-1.17,1.9,1.9,0,0,1,.85-.2,1.41,1.41,0,0,1,1.14.56A1.64,1.64,0,0,1,69.81,76.64Z" style="fill:#1d1d1b"/><path d="M57.71,73.65a7,7,0,0,1-1-1.73h.56A16.32,16.32,0,0,0,57.71,73.65Z" style="fill:#fff"/><path d="M96,67.5A19.66,19.66,0,0,1,76.37,87.14a5.44,5.44,0,0,1-.57,0,23.61,23.61,0,0,0,0-39.24,5.44,5.44,0,0,1,.57,0A19.66,19.66,0,0,1,96,67.5Z" style="fill:#fff"/><path d="M57.23,71.92h-.56a7,7,0,0,0,1,1.73A16.32,16.32,0,0,1,57.23,71.92Zm-.76-7.71H57a16.25,16.25,0,0,1,.37-1.71A8.17,8.17,0,0,0,56.47,64.21Zm.25,3.29c0-.11,0-.22,0-.33h-.88v.59c0,.26,0,.65.07,1.17h.86C56.74,68.46,56.72,68,56.72,67.5Zm-4,.26v-.59h0c0,.11,0,.22,0,.33,0,.47,0,.94,0,1.4h0A8.35,8.35,0,0,1,52.76,67.76Z"/><path d="M56.78,68.93h-.86c0-.52-.07-.91-.07-1.17v-.59h.88c0,.11,0,.22,0,.33C56.72,68,56.74,68.46,56.78,68.93Z" style="fill:#fff"/><path d="M57.37,62.5A16.25,16.25,0,0,0,57,64.21h-.53A8.17,8.17,0,0,1,57.37,62.5Z" style="fill:#fff"/><path d="M57.71,73.65a7,7,0,0,1-1-1.73h.56A16.32,16.32,0,0,0,57.71,73.65Z" style="fill:#fff"/><path d="M96,67.5A19.66,19.66,0,0,1,76.37,87.14a5.44,5.44,0,0,1-.57,0,23.61,23.61,0,0,0,0-39.24,5.44,5.44,0,0,1,.57,0A19.66,19.66,0,0,1,96,67.5Z" style="fill:#fff"/><path d="M57.23,71.92h-.56a7,7,0,0,0,1,1.73A16.32,16.32,0,0,1,57.23,71.92Zm-.76-7.71H57a16.25,16.25,0,0,1,.37-1.71A8.17,8.17,0,0,0,56.47,64.21Zm.25,3.29c0-.11,0-.22,0-.33h-.88v.59c0,.26,0,.65.07,1.17h.86C56.74,68.46,56.72,68,56.72,67.5Zm-4,.26v-.59h0c0,.11,0,.22,0,.33,0,.47,0,.94,0,1.4h0A8.35,8.35,0,0,1,52.76,67.76Z"/><path d="M52.8,68.9h0c0-.46,0-.93,0-1.4,0-.11,0-.22,0-.33h0v.59A8.35,8.35,0,0,0,52.8,68.9Z" style="fill:#fff"/><path d="M56.78,68.93h-.86c0-.52-.07-.91-.07-1.17v-.59h.88c0,.11,0,.22,0,.33C56.72,68,56.74,68.46,56.78,68.93Z" style="fill:#fff"/><path d="M57.37,62.5A16.25,16.25,0,0,0,57,64.21h-.53A8.17,8.17,0,0,1,57.37,62.5Z" style="fill:#fff"/><path d="M57.71,73.65a7,7,0,0,1-1-1.73h.56A16.32,16.32,0,0,0,57.71,73.65Z" style="fill:#fff"/><path d="M76.37,43.86a23.59,23.59,0,0,0-6.87,1,23.64,23.64,0,1,0,0,45.24,23.64,23.64,0,1,0,6.87-46.26Zm-9.88,42.9a18.83,18.83,0,0,1-3.29.36,5.44,5.44,0,0,1-.57,0,19.64,19.64,0,1,1,0-39.28,5.44,5.44,0,0,1,.57,0,18.83,18.83,0,0,1,3.29.36,19.2,19.2,0,0,1,3,.86,19.64,19.64,0,0,1,0,36.8A19.2,19.2,0,0,1,66.49,86.76Zm9.88.38a5.44,5.44,0,0,1-.57,0,23.61,23.61,0,0,0,0-39.24,5.44,5.44,0,0,1,.57,0,19.64,19.64,0,1,1,0,39.28Z" style="fill:#1d1d1b"/><path d="M69.5,49.1a19.2,19.2,0,0,0-3-.86,18.83,18.83,0,0,0-3.29-.36,5.44,5.44,0,0,0-.57,0,19.64,19.64,0,1,0,0,39.28,5.44,5.44,0,0,0,.57,0,18.83,18.83,0,0,0,3.29-.36,19.2,19.2,0,0,0,3-.86,19.64,19.64,0,0,0,0-36.8Zm.11,28.25a1.82,1.82,0,0,1-.59.55A10,10,0,0,1,66.52,79a9,9,0,0,1-2.8.43,11.2,11.2,0,0,1-6.4-2L57,77.27a10.52,10.52,0,0,1-3.7-5.38H51.53a1.51,1.51,0,0,1-1.14-.43,1.47,1.47,0,0,1,0-2.14,1.55,1.55,0,0,1,1.14-.42h1.23c0-.46,0-.93,0-1.4,0-.11,0-.22,0-.33h-1.2a1.55,1.55,0,0,1-1.14-.42,1.48,1.48,0,0,1-.46-1.07,1.51,1.51,0,0,1,.46-1.08,1.55,1.55,0,0,1,1.14-.42h1.72A10.81,10.81,0,0,1,55.43,60a10.49,10.49,0,0,1,1.09-1.12,10.61,10.61,0,0,1,2.55-1.7,8.58,8.58,0,0,1,.83-.35,10.81,10.81,0,0,1,3.82-.66,9.6,9.6,0,0,1,2.74.39A11,11,0,0,1,69,57.71a1.39,1.39,0,0,1,.78,1.3,1.66,1.66,0,0,1-.39,1.07,1.24,1.24,0,0,1-1.07.52,1.79,1.79,0,0,1-.88-.22,6.62,6.62,0,0,0-3.71-1.14,7.63,7.63,0,0,0-4.42,1.33,7.2,7.2,0,0,0-1.93,1.92h0A16.25,16.25,0,0,0,57,64.21l4.71,0a1.58,1.58,0,0,1,1.14.42,1.41,1.41,0,0,1,.45,1,1.47,1.47,0,0,1-.45,1.07,1.58,1.58,0,0,1-1.14.42l-5,0c0,.11,0,.22,0,.33,0,.48,0,1,.06,1.43l4.93,0a1.58,1.58,0,0,1,1.14.42,1.42,1.42,0,0,1,.45,1,1.5,1.5,0,0,1-.45,1.08,1.58,1.58,0,0,1-1.14.42H57.23a16.32,16.32,0,0,0,.48,1.73h0a6.8,6.8,0,0,0,1.79,1.58,7.7,7.7,0,0,0,4.22,1.17,6.27,6.27,0,0,0,3.71-1.17,1.9,1.9,0,0,1,.85-.2,1.41,1.41,0,0,1,1.14.56,1.64,1.64,0,0,1,.39,1A1.39,1.39,0,0,1,69.61,77.35Z" style="fill:#fff"/><path d="M52.8,68.9h0c0-.46,0-.93,0-1.4,0-.11,0-.22,0-.33h0v.59A8.35,8.35,0,0,0,52.8,68.9Z" style="fill:#fff"/><path d="M56.78,68.93h-.86c0-.52-.07-.91-.07-1.17v-.59h.88c0,.11,0,.22,0,.33C56.72,68,56.74,68.46,56.78,68.93Z" style="fill:#fff"/><path d="M57.37,62.5A16.25,16.25,0,0,0,57,64.21h-.53A8.17,8.17,0,0,1,57.37,62.5Z" style="fill:#fff"/><path d="M57.71,73.65a7,7,0,0,1-1-1.73h.56A16.32,16.32,0,0,0,57.71,73.65Z" style="fill:#fff"/></svg>