<svg id="Ebene_1" data-name="Ebene 1" xmlns="http://www.w3.org/2000/svg" viewBox="0 0 135 135"><title>Icons_landingpage</title><circle cx="67.5" cy="67.5" r="67.5" transform="translate(-1.21 1.24) rotate(-1.04)" style="fill:#fbed95"/><path d="M93,81.56a4.2,4.2,0,1,1-8.41,0,4.07,4.07,0,0,1,.15-1.11A4.21,4.21,0,0,1,93,81.56Z" style="fill:#fff"/><path d="M77.11,61.4a9.45,9.45,0,0,1-1.34,4.86A9.76,9.76,0,0,1,73,69.18a9.49,9.49,0,0,1-3.17,1.43,9.48,9.48,0,0,1-8.6-2.19,9.46,9.46,0,0,1-2.33-3.25,9.29,9.29,0,0,1-.79-3.77,9.47,9.47,0,0,1,1.59-5.25,9.66,9.66,0,0,1,2.87-2.79A9.48,9.48,0,0,1,76.47,58,9.23,9.23,0,0,1,77.11,61.4Z" style="fill:#fff"/><path d="M42.65,83.48a5.82,5.82,0,1,1-.21-1.54A5.61,5.61,0,0,1,42.65,83.48Z" style="fill:#fff"/><path d="M50,39.75a3.31,3.31,0,0,1,0,.55,3.38,3.38,0,0,1-2.85,2.81,2.74,2.74,0,0,1-.5,0,3.4,3.4,0,1,1,3.4-3.4Z" style="fill:#fff"/><path d="M98.15,30.39a9.81,9.81,0,0,0-9,13.71L77.58,52.31a13.46,13.46,0,0,0-17.8-1.86l-6.81-7a7.26,7.26,0,0,0,1-3.69,7.4,7.4,0,1,0-7.4,7.4,7.32,7.32,0,0,0,3.55-.91l6.79,7a13.38,13.38,0,0,0-2.76,8.16,13.23,13.23,0,0,0,1.49,6.14L43.48,76.27a9.81,9.81,0,1,0,2.33,3.25L58,70.79a13.47,13.47,0,0,0,8,4l.41,13a8.55,8.55,0,1,0,4-.14l-.41-13A13.39,13.39,0,0,0,76,72l5.75,5.51a8.13,8.13,0,0,0-1.08,4.06,8.2,8.2,0,1,0,8.21-8.2,8.12,8.12,0,0,0-4.36,1.26l-5.77-5.55a13.46,13.46,0,0,0,1.1-13.44l11.67-8.26a9.8,9.8,0,1,0,6.67-17ZM49.92,40.3a3.38,3.38,0,0,1-2.85,2.81,2.74,2.74,0,0,1-.5,0,3.4,3.4,0,1,1,3.4-3.4A3.31,3.31,0,0,1,49.92,40.3Zm-13.07,49a5.81,5.81,0,1,1,5.59-7.35,5.61,5.61,0,0,1,.21,1.54A5.81,5.81,0,0,1,36.85,89.29Zm33.7,2.58a4.57,4.57,0,1,1-4,.13,4.56,4.56,0,0,1,4-.13Zm5.22-25.61A9.76,9.76,0,0,1,73,69.18a9.49,9.49,0,0,1-3.17,1.43,9.48,9.48,0,0,1-8.6-2.19,9.46,9.46,0,0,1-2.33-3.25,9.29,9.29,0,0,1-.79-3.77,9.47,9.47,0,0,1,1.59-5.25,9.66,9.66,0,0,1,2.87-2.79A9.48,9.48,0,0,1,76.47,58a9.23,9.23,0,0,1,.64,3.41A9.45,9.45,0,0,1,75.77,66.26Zm9,14.19a4.21,4.21,0,1,1-.15,1.11A4.07,4.07,0,0,1,84.78,80.45ZM98.15,46a5.78,5.78,0,0,1-5.59-4.3,5.4,5.4,0,0,1-.21-1.51A5.8,5.8,0,1,1,98.15,46Z"/><path d="M73.25,96a4.57,4.57,0,1,1-6.7-4,4.56,4.56,0,0,1,4-.13A4.59,4.59,0,0,1,73.25,96Z" style="fill:#fff"/><path d="M104,40.19A5.8,5.8,0,0,1,94.87,45a5.75,5.75,0,0,1-2.31-3.28,5.4,5.4,0,0,1-.21-1.51,5.8,5.8,0,0,1,11.6,0Z" style="fill:#fff"/></svg>