<svg xmlns="http://www.w3.org/2000/svg" viewBox="0 0 313.2 91.46"><defs><style>.cls-1{fill:#fff;}.cls-2{fill:#fce500;}</style></defs><title>Element 1</title><g id="Ebene_2" data-name="Ebene 2"><g id="Ebene_1-2" data-name="Ebene 1"><path class="cls-1" d="M40.91,26.26a5.81,5.81,0,0,1-5.77,5.67H32.57V60.67a5.66,5.66,0,0,1,5.66,5.76,5.58,5.58,0,0,1-5.66,5.67A11.47,11.47,0,0,1,21.14,60.67V31.93h-3a5.66,5.66,0,0,1-5.67-5.67,5.59,5.59,0,0,1,5.67-5.66h3V5.66A5.66,5.66,0,0,1,26.9,0a5.58,5.58,0,0,1,5.67,5.66V20.6h2.57A5.74,5.74,0,0,1,40.91,26.26Z"/><path class="cls-1" d="M99.41,46.45V66.64A5.49,5.49,0,0,1,94,72.1a5.61,5.61,0,0,1-5.35-4.43A23.39,23.39,0,0,1,74.9,72.1a24,24,0,0,1-17.51-7.52,26.35,26.35,0,0,1-7-18.13,26,26,0,0,1,7-18.13A23.75,23.75,0,0,1,74.9,20.6a23.48,23.48,0,0,1,13.7,4.53A5.6,5.6,0,0,1,94,20.6a5.51,5.51,0,0,1,5.46,5.56Zm-10.91,0a15.18,15.18,0,0,0-4-10.61,12.74,12.74,0,0,0-9.58-4.22,12.42,12.42,0,0,0-9.58,4.22,15.11,15.11,0,0,0-3.91,10.61,15.47,15.47,0,0,0,3.91,10.61,13,13,0,0,0,9.58,4,13.3,13.3,0,0,0,9.58-4A15.54,15.54,0,0,0,88.5,46.45Z"/><path class="cls-1" d="M116,46.45c0-14.32,11.94-25.75,26.16-25.85a27.16,27.16,0,0,1,16.37,5.66,5.67,5.67,0,0,1,1.14,7.63,5.5,5.5,0,0,1-7.73,1,16.41,16.41,0,0,0-9.78-3.3c-8.34,0-15.25,6.9-15.25,14.83s6.91,14.73,15.25,14.73a16.64,16.64,0,0,0,9.78-3.3A5.61,5.61,0,0,1,159.67,59a5.69,5.69,0,0,1-1.14,7.62,28.35,28.35,0,0,1-16.37,5.46C127.94,72.1,116,60.56,116,46.45Z"/><path class="cls-1" d="M178.41,85.9V26.06a5.5,5.5,0,0,1,5.46-5.46,5.66,5.66,0,0,1,5.67,4.22,26.13,26.13,0,0,1,14-4.22c13.69,0,24.92,11.74,24.92,25.85S217.24,72,203.55,72a23.83,23.83,0,0,1-13.81-4.22V85.9a5.81,5.81,0,0,1-5.87,5.56A5.66,5.66,0,0,1,178.41,85.9Zm11.33-39.45c0,4,1.34,7.93,4,10.3a12.74,12.74,0,0,0,9.79,4.33,13.16,13.16,0,0,0,9.68-4.33,15,15,0,0,0,4-10.3,15.87,15.87,0,0,0-4-10.4,13.46,13.46,0,0,0-9.68-4.22,13,13,0,0,0-9.79,4.22A14.45,14.45,0,0,0,189.74,46.45Z"/><path class="cls-1" d="M254.43,7.72a5.57,5.57,0,0,1-5.56,5.67,5.63,5.63,0,0,1-5.56-5.67V5.56A5.54,5.54,0,0,1,248.87,0a5.47,5.47,0,0,1,5.56,5.56Zm0,18.65V66.54a5.47,5.47,0,0,1-5.56,5.56,5.54,5.54,0,0,1-5.56-5.56V26.37a5.5,5.5,0,0,1,5.56-5.67A5.44,5.44,0,0,1,254.43,26.37Z"/><path class="cls-1" d="M268.54,46.45c0-14.32,11.95-25.75,26.16-25.85a27.21,27.21,0,0,1,16.38,5.66,5.67,5.67,0,0,1,1.13,7.63,5.5,5.5,0,0,1-7.73,1,16.39,16.39,0,0,0-9.78-3.3c-8.34,0-15.24,6.9-15.24,14.83s6.9,14.73,15.24,14.73a16.62,16.62,0,0,0,9.78-3.3A5.61,5.61,0,0,1,312.21,59a5.68,5.68,0,0,1-1.13,7.62A28.41,28.41,0,0,1,294.7,72.1C280.49,72.1,268.54,60.56,268.54,46.45Z"/><path class="cls-2" d="M1.9,52.63a6.61,6.61,0,0,1-1.9-5,6.77,6.77,0,0,1,1.9-5,6.76,6.76,0,0,1,5-1.89,6.76,6.76,0,0,1,5,1.89,6.77,6.77,0,0,1,1.9,5,6.75,6.75,0,0,1-1.9,5,6.73,6.73,0,0,1-5,1.9A7,7,0,0,1,1.9,52.63Zm0,20.57a6.65,6.65,0,0,1-1.9-5,6.41,6.41,0,0,1,1.9-4.9,7,7,0,0,1,5-1.79,7,7,0,0,1,5,1.79,6.41,6.41,0,0,1,1.9,4.9,6.73,6.73,0,0,1-1.9,5,6.73,6.73,0,0,1-5,1.9A7.08,7.08,0,0,1,1.9,73.2ZM22.6,31.93a6.61,6.61,0,0,1-1.9-5,6.51,6.51,0,0,1,6.9-6.9A6.51,6.51,0,0,1,34.5,27a6.53,6.53,0,0,1-6.9,6.9A7,7,0,0,1,22.6,31.93Zm0,20.7a6.61,6.61,0,0,1-1.9-5,6.51,6.51,0,0,1,6.9-6.9,6.9,6.9,0,1,1,0,13.8A7,7,0,0,1,22.6,52.63Z"/><path class="cls-2" d="M61.75,33.38a7.05,7.05,0,0,1-5-1.93,6.67,6.67,0,0,1-1.9-5,6.9,6.9,0,1,1,13.8,0,6.5,6.5,0,0,1-6.9,6.9Z"/><path class="cls-2" d="M118.54,33.59a7,7,0,0,1-5-1.93,6.63,6.63,0,0,1-1.9-5,6.9,6.9,0,1,1,13.8,0,6.53,6.53,0,0,1-6.9,6.9Zm20.7,0a7,7,0,0,1-5-1.93,6.63,6.63,0,0,1-1.9-5,6.9,6.9,0,1,1,13.8,0,6.53,6.53,0,0,1-6.9,6.9Z"/><path class="cls-2" d="M168.19,32.14a6.63,6.63,0,0,1-1.9-5,6.9,6.9,0,1,1,13.8,0,6.51,6.51,0,0,1-6.9,6.9A7,7,0,0,1,168.19,32.14Zm0,20.7a6.63,6.63,0,0,1-1.9-5,6.9,6.9,0,1,1,13.8,0,6.51,6.51,0,0,1-6.9,6.9A7,7,0,0,1,168.19,52.84Zm0,20.56a6.61,6.61,0,0,1-1.9-5,6.4,6.4,0,0,1,1.9-4.9,7.84,7.84,0,0,1,10,0,6.4,6.4,0,0,1,1.9,4.9,6.53,6.53,0,0,1-6.9,6.9A7,7,0,0,1,168.19,73.4Zm20.7-41.26a6.63,6.63,0,0,1-1.9-5,6.9,6.9,0,1,1,13.8,0,6.51,6.51,0,0,1-6.9,6.9A7,7,0,0,1,188.89,32.14Z"/><path class="cls-2" d="M223.59,52.36a6.67,6.67,0,0,1-1.9-5,6.9,6.9,0,1,1,13.8,0,6.51,6.51,0,0,1-6.9,6.9A7.05,7.05,0,0,1,223.59,52.36Zm20.7-20.7a6.67,6.67,0,0,1-1.9-5,6.9,6.9,0,1,1,13.8,0,6.51,6.51,0,0,1-6.9,6.9A7.05,7.05,0,0,1,244.29,31.66Z"/><path class="cls-2" d="M283.72,33.59a7.05,7.05,0,0,1-5-1.93,6.67,6.67,0,0,1-1.9-5,6.9,6.9,0,1,1,13.8,0,6.51,6.51,0,0,1-6.9,6.9Zm20.7,0a7.05,7.05,0,0,1-5-1.93,6.67,6.67,0,0,1-1.9-5,6.9,6.9,0,1,1,13.8,0,6.51,6.51,0,0,1-6.9,6.9Z"/></g></g></svg>