<?xml version="1.0" encoding="UTF-8" standalone="no"?>
<svg
   xmlns:dc="http://purl.org/dc/elements/1.1/"
   xmlns:cc="http://creativecommons.org/ns#"
   xmlns:rdf="http://www.w3.org/1999/02/22-rdf-syntax-ns#"
   xmlns:svg="http://www.w3.org/2000/svg"
   xmlns="http://www.w3.org/2000/svg"
   xmlns:sodipodi="http://sodipodi.sourceforge.net/DTD/sodipodi-0.dtd"
   xmlns:inkscape="http://www.inkscape.org/namespaces/inkscape"
   id="Ebene_1"
   data-name="Ebene 1"
   viewBox="0 0 310.39101 90.701088"
   version="1.1"
   sodipodi:docname="logo_alpha.svg"
   width="310.39102"
   height="90.701088"
   inkscape:version="0.92.3 (2405546, 2018-03-11)">
  <metadata
     id="metadata141">
    <rdf:RDF>
      <cc:Work
         rdf:about="">
        <dc:format>image/svg+xml</dc:format>
        <dc:type
           rdf:resource="http://purl.org/dc/dcmitype/StillImage" />
        <dc:title>181025_Logo tacpic_ Vector_L</dc:title>
      </cc:Work>
    </rdf:RDF>
  </metadata>
  <sodipodi:namedview
     pagecolor="#ffffff"
     bordercolor="#666666"
     borderopacity="1"
     objecttolerance="10"
     gridtolerance="10"
     guidetolerance="10"
     inkscape:pageopacity="0"
     inkscape:pageshadow="2"
     inkscape:window-width="3199"
     inkscape:window-height="1514"
     id="namedview139"
     showgrid="false"
     fit-margin-top="0"
     fit-margin-left="0"
     fit-margin-right="0"
     fit-margin-bottom="0"
     inkscape:zoom="3.1049701"
     inkscape:cx="147.98003"
     inkscape:cy="22.973045"
     inkscape:window-x="0"
     inkscape:window-y="50"
     inkscape:window-maximized="0"
     inkscape:current-layer="Ebene_1" />
  <defs
     id="defs4">
    <style
       id="style2">.cls-1{fill:#01323d;}.cls-2{fill:#fce500;}.cls-3{fill:#4a4a49;}.cls-4{fill:none;}</style>
  </defs>
  <title
     id="title6">181025_Logo tacpic_ Vector_L</title>
  <path
     class="cls-1"
     d="m 40.551296,26.06072 a 5.75,5.75 0 0 1 -5.71,5.62 h -2.57 v 28.48 a 5.62,5.62 0 0 1 5.62,5.71 5.54,5.54 0 0 1 -5.62,5.62 11.38,11.38 0 0 1 -11.32,-11.33 v -28.48 h -3 a 5.6,5.6 0 0 1 -5.61,-5.62 5.53,5.53 0 0 1 5.61,-5.61 h 3 V 5.6207195 a 5.63,5.63 0 0 1 5.72,-5.61999997117 5.54,5.54 0 0 1 5.6,5.61999997117 V 20.42072 h 2.56 a 5.68,5.68 0 0 1 5.72,5.64 z"
     id="path8"
     inkscape:connector-curvature="0"
     style="fill:#01323d" />
  <path
     class="cls-1"
     d="m 98.531296,46.07072 v 20 a 5.45,5.45 0 0 1 -5.41,5.41 5.57,5.57 0 0 1 -5.31,-4.39 23.22,23.22 0 0 1 -13.54,4.4 23.71,23.71 0 0 1 -17.36,-7.46 26.15,26.15 0 0 1 -6.94,-18 25.83,25.83 0 0 1 6.94,-18 23.54,23.54 0 0 1 17.36,-7.58 23.23,23.23 0 0 1 13.57,4.49 5.56,5.56 0 0 1 5.31,-4.49 5.47,5.47 0 0 1 5.41,5.51 z m -10.82,0 a 15,15 0 0 0 -4,-10.51 12.61,12.61 0 0 0 -9.44,-4.19 12.31,12.31 0 0 0 -9.5,4.19 14.92,14.92 0 0 0 -3.9,10.51 15.3,15.3 0 0 0 3.87,10.55 12.87,12.87 0 0 0 9.5,4 13.2,13.2 0 0 0 9.49,-4 15.37,15.37 0 0 0 3.98,-10.55 z"
     id="path10"
     inkscape:connector-curvature="0"
     style="fill:#01323d" />
  <path
     class="cls-1"
     d="m 114.9613,46.07072 c 0,-14.19 11.85,-25.52 25.93,-25.62 a 26.88,26.88 0 0 1 16.23,5.61 5.61,5.61 0 0 1 1.15,7.56 5.44,5.44 0 0 1 -7.65,1 16.3,16.3 0 0 0 -9.7,-3.27 c -8.27,0 -15.11,6.84 -15.11,14.7 0,7.86 6.84,14.6 15.11,14.6 a 16.53,16.53 0 0 0 9.7,-3.27 5.55,5.55 0 0 1 7.65,1.14 5.64,5.64 0 0 1 -1.12,7.56 28.14,28.14 0 0 1 -16.23,5.41 c -14.11,0 -25.96,-11.44 -25.96,-25.42 z"
     id="path12"
     inkscape:connector-curvature="0"
     style="fill:#01323d" />
  <path
     class="cls-1"
     d="m 176.8213,85.16072 v -59.3 a 5.45,5.45 0 0 1 5.45,-5.41 5.61,5.61 0 0 1 5.58,4.17 25.86,25.86 0 0 1 13.88,-4.18 c 13.57,0 24.7,11.64 24.7,25.62 0,13.98 -11.13,25.31 -24.7,25.31 a 23.66,23.66 0 0 1 -13.68,-4.18 v 18 a 5.76,5.76 0 0 1 -5.82,5.51 5.6,5.6 0 0 1 -5.41,-5.54 z m 11.23,-39.09 c 0,4 1.33,7.86 4,10.21 a 12.65,12.65 0 0 0 9.7,4.28 13.06,13.06 0 0 0 9.59,-4.28 14.88,14.88 0 0 0 4,-10.21 15.73,15.73 0 0 0 -4,-10.31 13.3,13.3 0 0 0 -9.61,-4.14 12.88,12.88 0 0 0 -9.7,4.19 14.34,14.34 0 0 0 -3.98,10.26 z"
     id="path14"
     inkscape:connector-curvature="0"
     style="fill:#01323d" />
  <path
     class="cls-1"
     d="m 252.1613,7.6907195 a 5.51,5.51 0 0 1 -5.52,5.6100005 5.57,5.57 0 0 1 -5.51,-5.6100005 v -2.14 a 5.49,5.49 0 0 1 5.51,-5.51999997 5.43,5.43 0 0 1 5.52,5.51999997 z m 0,18.4700005 v 39.81 a 5.43,5.43 0 0 1 -5.52,5.52 5.49,5.49 0 0 1 -5.51,-5.52 v -39.81 a 5.45,5.45 0 0 1 5.51,-5.61 5.39,5.39 0 0 1 5.52,5.61 z"
     id="path16"
     inkscape:connector-curvature="0"
     style="fill:#01323d" />
  <path
     class="cls-1"
     d="m 266.1413,46.07072 c 0,-14.19 11.84,-25.52 25.93,-25.62 a 26.9,26.9 0 0 1 16.2,5.61 5.63,5.63 0 0 1 1.15,7.56 5.45,5.45 0 0 1 -7.66,1 16.27,16.27 0 0 0 -9.69,-3.27 c -8.27,0 -15.11,6.84 -15.11,14.7 0,7.86 6.84,14.6 15.11,14.6 a 16.5,16.5 0 0 0 9.69,-3.27 5.56,5.56 0 0 1 7.66,1.12 5.66,5.66 0 0 1 -1.12,7.56 28.17,28.17 0 0 1 -16.23,5.41 c -14.09,0.02 -25.93,-11.42 -25.93,-25.4 z"
     id="path18"
     inkscape:connector-curvature="0"
     style="fill:#01323d" />
  <path
     class="cls-2"
     d="m 1.8912961,52.20072 a 6.56,6.56 0 0 1 -1.87999997,-4.93 6.46,6.46 0 0 1 6.83999997,-6.83 6.84,6.84 0 1 1 0,13.67 7,7 0 0 1 -4.96,-1.91 z m 0,20.37 a 6.56,6.56 0 0 1 -1.87999997,-4.95 6.32,6.32 0 0 1 1.87999997,-4.85 6.9,6.9 0 0 1 5,-1.78 6.88,6.88 0 0 1 4.9999999,1.78 6.33,6.33 0 0 1 1.8,4.85 6.47,6.47 0 0 1 -6.8399999,6.84 7,7 0 0 1 -4.96,-1.84 z m 20.5099999,-40.89 a 6.59,6.59 0 0 1 -1.88,-4.92 7,7 0 1 1 6.84,6.86 7.05,7.05 0 0 1 -4.96,-1.94 z m 0,20.52 a 6.6,6.6 0 0 1 -1.88,-4.93 7,7 0 1 1 6.84,6.84 7,7 0 0 1 -4.96,-1.91 z"
     id="path20"
     inkscape:connector-curvature="0"
     style="fill:#fce500" />
  <path
     class="cls-2"
     d="m 61.211296,33.12072 a 7,7 0 0 1 -5,-1.92 6.59,6.59 0 0 1 -1.88,-4.92 7,7 0 1 1 6.84,6.84 z"
     id="path22"
     inkscape:connector-curvature="0"
     style="fill:#fce500" />
  <path
     class="cls-2"
     d="m 117.4913,33.32072 a 7,7 0 0 1 -5,-1.91 6.56,6.56 0 0 1 -1.88,-4.92 6.84,6.84 0 1 1 13.67,0 6.46,6.46 0 0 1 -6.83,6.83 z m 20.51,0 a 7,7 0 0 1 -5,-1.91 6.59,6.59 0 0 1 -1.88,-4.92 7,7 0 1 1 6.84,6.83 z"
     id="path24"
     inkscape:connector-curvature="0"
     style="fill:#fce500" />
  <path
     class="cls-2"
     d="m 166.6913,31.89072 a 6.57,6.57 0 0 1 -1.89,-4.93 7,7 0 1 1 6.84,6.84 7,7 0 0 1 -4.95,-1.91 z m 0,20.51 a 6.56,6.56 0 0 1 -1.89,-4.92 7,7 0 1 1 6.84,6.84 7,7 0 0 1 -4.95,-1.92 z m 0,20.38 a 6.56,6.56 0 0 1 -1.89,-4.92 6.35,6.35 0 0 1 1.89,-4.86 7.79,7.79 0 0 1 9.91,0 6.38,6.38 0 0 1 1.88,4.86 6.46,6.46 0 0 1 -6.84,6.83 7,7 0 0 1 -4.95,-1.91 z m 20.51,-40.89 a 6.6,6.6 0 0 1 -1.88,-4.93 7,7 0 1 1 6.84,6.84 7,7 0 0 1 -4.96,-1.91 z"
     id="path26"
     inkscape:connector-curvature="0"
     style="fill:#fce500" />
  <path
     class="cls-2"
     d="m 221.5913,51.92072 a 6.59,6.59 0 0 1 -1.88,-4.92 7,7 0 1 1 6.84,6.84 7.05,7.05 0 0 1 -4.96,-1.92 z m 20.52,-20.51 a 6.56,6.56 0 0 1 -1.84,-4.92 6.84,6.84 0 1 1 13.67,0 6.46,6.46 0 0 1 -6.83,6.83 7,7 0 0 1 -5,-1.91 z"
     id="path28"
     inkscape:connector-curvature="0"
     style="fill:#fce500" />
  <path
     class="cls-2"
     d="m 281.1913,33.32072 a 7,7 0 0 1 -5,-1.91 6.59,6.59 0 0 1 -1.88,-4.92 7,7 0 1 1 6.84,6.83 z m 20.51,0 a 7,7 0 0 1 -5,-1.91 6.59,6.59 0 0 1 -1.88,-4.92 7,7 0 1 1 6.84,6.83 z"
     id="path30"
     inkscape:connector-curvature="0"
     style="fill:#fce500" />
  <rect
     class="cls-4"
     x="188.0513"
     y="36.880722"
     width="27.25"
     height="16.959999"
     id="rect134"
     style="fill:none" />
  <g
     id="g856"
     transform="matrix(0.4354268,8.954571e-4,-0.15293868,0.45790372,175.19015,-6.4276552)"
     style="stroke-width:2.23875332">
    <rect
       y="148.3506"
       x="109.50186"
       height="62.374634"
       width="251.85428"
       id="rect826"
       style="fill:#ff1515;fill-opacity:1;stroke:none;stroke-width:6.71625996;stroke-linecap:round;stroke-linejoin:round;stroke-miterlimit:4;stroke-dasharray:none;stroke-opacity:1;paint-order:markers fill stroke" />
    <flowRoot
       transform="matrix(2.0205346,0,0,2.0145622,-162.24582,-163.22365)"
       style="font-style:normal;font-weight:normal;font-size:40px;line-height:0;font-family:sans-serif;letter-spacing:0px;word-spacing:0px;fill:#ffffff;fill-opacity:1;stroke:none;stroke-width:1.10964167"
       id="flowRoot828"
       xml:space="preserve"><flowRegion
         style="fill:#ffffff;fill-opacity:1;stroke-width:1.10964167"
         id="flowRegion830"><rect
           style="fill:#ffffff;fill-opacity:1;stroke-width:1.10964167"
           y="172.82748"
           x="137.52145"
           height="43.47868"
           width="168.11757"
           id="rect832" /></flowRegion><flowPara
         style="font-style:normal;font-variant:normal;font-weight:normal;font-stretch:normal;font-family:'Liberation Mono';-inkscape-font-specification:'Liberation Mono';fill:#ffffff;fill-opacity:1;stroke-width:1.10964167"
         id="flowPara834">ALPHA</flowPara></flowRoot>  </g>
</svg>
