<?xml version="1.0" encoding="UTF-8" standalone="no"?>
<!DOCTYPE svg PUBLIC "-//W3C//DTD SVG 1.1//EN" "http://www.w3.org/Graphics/SVG/1.1/DTD/svg11.dtd">
<svg width="100%" height="100%" viewBox="0 0 596 468" version="1.1" xmlns="http://www.w3.org/2000/svg" xmlns:xlink="http://www.w3.org/1999/xlink" xml:space="preserve" xmlns:serif="http://www.serif.com/" style="fill-rule:evenodd;clip-rule:evenodd;stroke-miterlimit:10;">
    <g transform="matrix(1,0,0,1,-645,0)">
        <g id="Produktion" transform="matrix(1,0,0,1,-645.28,0)">
            <rect x="1290.28" y="0" width="595.28" height="467.72" style="fill:none;"/>
            <g id="Ebene_2" transform="matrix(1,0,0,1,1290.28,0)">
                <g transform="matrix(1,0,0,1,-27.7151,17.3572)">
                    <path d="M498.7,319.3L191.9,319.3C188,319.3 184.8,316.1 184.8,312.2L184.8,169.4C184.8,165.5 188,162.3 191.9,162.3L498.7,162.3C502.6,162.3 505.8,165.5 505.8,169.4L505.8,312.2C505.8,316.1 502.6,319.3 498.7,319.3Z" style="fill:rgb(0,48,60);fill-rule:nonzero;"/>
                </g>
                <g transform="matrix(1,0,0,1,-15.7151,17.3572)">
                    <path d="M435.9,205.4L429.9,205.4C426,205.4 422.8,202.2 422.8,198.3L422.8,192.3C422.8,188.4 426,185.2 429.9,185.2L435.9,185.2C439.8,185.2 443,188.4 443,192.3L443,198.3C443,202.2 439.8,205.4 435.9,205.4Z" style="fill:rgb(165,208,168);fill-rule:nonzero;"/>
                </g>
                <g transform="matrix(1,0,0,1,-15.7151,17.3572)">
                    <path d="M466.2,205.4L460.2,205.4C456.3,205.4 453.1,202.2 453.1,198.3L453.1,192.3C453.1,188.4 456.3,185.2 460.2,185.2L466.2,185.2C470.1,185.2 473.3,188.4 473.3,192.3L473.3,198.3C473.3,202.2 470.1,205.4 466.2,205.4Z" style="fill:rgb(226,225,225);fill-rule:nonzero;"/>
                </g>
                <g transform="matrix(1,0,0,1,-27.7151,17.3572)">
                    <g>
                        <g>
                            <path d="M153.3,105.4C151.6,104.3 150,103.3 148.4,102.4C146.6,101.3 146.6,101.3 147.4,99.3C148.2,97.2 149.1,95.1 150,93C150.1,92.7 150.6,92.4 150.9,92.3C153,92 155.2,91.9 157.3,91.6C157.7,91.5 158.2,91.3 158.4,90.9C159.2,89.9 159.9,88.8 160.5,87.7C160.7,87.4 160.8,86.9 160.7,86.5C160.3,84.4 159.8,82.3 159.3,80.2C159.1,79.6 159.3,79.2 159.8,78.9C162.4,77.3 164.9,75.6 167.5,73.9C168,73.6 168.3,73.7 168.7,74C170.1,75.3 171.6,76.5 173.1,77.7C173.4,78 173.9,78.2 174.3,78.1C175.7,78 177.1,77.8 178.5,77.6C178.8,77.5 179.2,77.3 179.4,77C180.6,75 181.7,72.9 182.8,70.9C183.1,70.3 183.4,70.1 184.2,70.3C187.3,71.2 190.3,72 193.4,72.8C194,73 194.2,73.3 194.3,73.9C194.5,75.9 194.7,78 195,80C195.1,80.4 195.3,80.9 195.6,81.2C196.5,82.1 197.5,82.9 198.4,83.8C198.8,84.2 199.2,84.3 199.8,84.1C202.1,83.4 204.5,82.8 206.8,82.1C207.3,81.9 207.6,82 207.9,82.5C209.5,85.3 211.2,88.1 212.9,90.8C213.2,91.3 213.1,91.6 212.8,92C211.3,93.9 209.8,95.8 208.4,97.8C208.1,98.2 208.1,98.8 208.1,99.2C208.1,99.8 208.4,100.3 208.5,100.9C208.6,102.9 209.7,104 211.4,104.9C212.7,105.6 213.8,106.5 215.1,107.2C215.6,107.5 215.8,107.8 215.6,108.4C214.8,111 214.1,113.7 213.4,116.3C213.2,116.9 212.9,117.1 212.4,117.2C210.2,117.6 208,118 205.8,118.5C205.3,118.6 204.8,119 204.4,119.4C204.1,119.7 203.9,120.1 203.7,120.4C202.1,121.9 202,123.6 202.8,125.5C203.3,126.7 203.6,128.1 204,129.4C204.2,129.9 204.1,130.3 203.6,130.6C200.9,132.2 198.2,133.9 195.6,135.6C195.1,135.9 194.8,135.9 194.4,135.5C192.9,134 191.4,132.5 189.8,131C189.5,130.7 188.9,130.5 188.4,130.4C187.1,130.3 185.7,130.4 184.3,130.4C183.7,130.4 183.3,130.6 183.1,131.2C181.8,133.7 180.5,136.1 179.2,138.5C178.9,139 178.7,139.1 178.1,138.9C175.3,138 172.4,137.2 169.6,136.3C169.3,136.2 169,135.8 168.9,135.6C168.7,133.2 168.7,130.9 168.5,128.5C168.5,128.2 168.3,127.8 168,127.6C166.3,126.5 164.6,125.4 162.9,124.4C162.6,124.2 162.1,124.3 161.8,124.5C160.1,125.2 158.3,125.9 156.6,126.6C156.1,126.8 155.8,126.8 155.4,126.3C153.7,123.7 151.9,121.1 150.1,118.6C149.7,118 149.7,117.6 150.2,117.1C151.6,115.6 152.9,114 154.2,112.4C154.5,112 154.7,111.4 154.6,111C154.4,109.5 154.1,108 153.9,106.4C153.5,105.9 153.4,105.6 153.3,105.4ZM191.2,115.7C193.1,114.1 194.6,112.1 195.6,109.8C199.5,100.8 194.2,90.9 184.6,89.5C177.5,88.4 170.2,92.7 167.5,99.5C165.3,105.3 166.7,111.8 170.9,115.6C176.3,120.7 185,121 191.2,115.7Z" style="fill:rgb(0,48,60);fill-rule:nonzero;stroke:rgb(0,48,60);stroke-width:4.47px;"/>
                            <path d="M137.6,129.1C137.7,129.5 137.8,129.7 137.9,130C138.5,131.7 139,133.5 139.6,135.2C139.7,135.6 140.1,135.9 140.5,136.2C140.9,136.5 141.4,136.6 141.8,136.9C143.4,138.1 144.9,137.9 146.5,136.9C147.6,136.2 148.7,135.7 149.9,135.3C150.2,135.2 150.8,135.2 151.1,135.4C153.1,136.8 155,138.3 157,139.8C157.4,140.1 157.5,140.4 157.3,140.9C156.6,142.8 155.9,144.6 155.4,146.5C155.1,147.5 155.3,148.7 155.2,149.7C155,151.9 156,152.9 158.1,153.3C159.4,153.5 160.5,154.1 161.8,154.5C162.3,154.7 162.6,154.9 162.5,155.5C162.4,158.2 162.4,160.9 162.4,163.5C162.4,164.1 162.2,164.3 161.7,164.5C159.9,165 158.1,165.4 156.3,166C155.9,166.1 155.4,166.5 155.2,166.9C154.5,168 154,169.2 153.4,170.4C153.1,170.9 153.2,171.4 153.6,171.9C154.6,173.7 155.5,175.5 156.4,177.3C156.5,177.5 156.4,177.9 156.2,178.1C154.5,180.1 152.7,182.1 150.9,184.1C150.5,184.6 150.1,184.6 149.6,184.3C147.6,183.1 145.5,181.9 143.5,180.6C142.9,180.2 142.4,180.2 141.8,180.6C141.5,180.8 141.2,181.1 140.8,181.2C138.7,182 137.7,183.6 137.4,185.8C137.3,186.9 136.8,188.1 136.6,189.2C136.5,189.7 136.3,189.9 135.7,189.9C132.8,189.8 130,189.8 127.1,189.8C126.6,189.8 126.4,189.6 126.3,189.1C125.8,187.3 125.4,185.4 124.8,183.6C124.7,183.2 124.3,182.8 124,182.6C121.7,181.2 119.4,181.1 117,182.4C116.2,182.9 115.2,183 114.4,183.4C113.6,183.8 113,183.6 112.4,183C110.8,181.4 109.1,179.8 107.4,178.3C107,177.9 106.9,177.6 107.2,177.1C108.1,175.4 108.9,173.7 109.7,172C109.9,171.6 109.9,171 109.8,170.6C109.6,169.6 109.3,168.6 108.9,167.6C108.7,167.2 108.3,166.8 107.9,166.6C105.9,165.8 103.9,165 101.9,164.3C101.3,164.1 101.1,163.8 101.1,163.2L101.1,154.7C101.1,154 101.3,153.8 101.9,153.6C103.9,153.1 106,152.5 108,151.9C108.6,151.7 108.9,151.4 109.1,150.8C110.3,148.2 110.1,145.7 108.5,143.4C108.1,142.8 107.9,142.1 107.6,141.4C107.3,140.8 107.3,140.5 107.8,140C109.8,137.9 111.8,135.9 113.8,133.7C114.2,133.2 114.6,133.2 115.1,133.6C116.9,134.7 118.7,135.7 120.5,136.7C120.8,136.9 121.4,136.9 121.8,136.8C122.8,136.4 123.7,135.9 124.6,135.5C125.5,135.2 125.9,134.6 126.1,133.8C126.6,132.3 127.1,130.8 127.6,129.3C127.7,128.8 128,128.7 128.5,128.7C131.3,128.8 134.1,128.9 136.9,128.9C137.2,129 137.5,129 137.6,129.1Z" style="fill:rgb(0,48,60);fill-rule:nonzero;stroke:rgb(0,48,60);stroke-width:4.47px;"/>
                            <path d="M110.3,115.2C109.6,115.8 108.9,116.3 108.3,116.9C107.9,117.3 107.5,117.4 107,117.1C104.9,116 102.8,115 100.6,114C100.1,113.7 100,113.4 100.1,112.9C100.5,111.2 100.8,109.4 101.1,107.7C101.2,107.3 100.9,106.9 100.7,106.5L100.6,106.4C99.1,104.5 97.2,103.9 94.8,104.1C92.2,104.3 92.2,104.1 91.3,101.6C90.7,99.9 90.1,98.3 89.5,96.6C89.3,96 89.4,95.7 89.9,95.4C91.3,94.5 92.7,93.6 94.1,92.7C94.6,92.4 94.9,92 94.8,91.4L94.8,90.6C95.3,88.6 94.4,87.1 92.9,85.9C92.2,85.3 91.3,84.7 91.1,83.9C91,83.2 91.7,82.3 92.2,81.6C92.9,80.2 93.7,78.8 94.4,77.4C94.7,76.8 95.1,76.7 95.7,76.8C97.2,77.1 98.7,77.3 100.2,77.4C100.7,77.4 101.2,77.2 101.7,77C103.8,75.9 104.7,74.2 104.3,71.9C103.9,69.7 104.7,68.4 106.9,67.7C108.1,67.3 109.2,66.6 110.3,66C110.8,65.7 111.2,65.8 111.6,66.2C112.6,67.2 113.6,68.2 114.6,69.3C115.9,70.8 117.7,71 119.3,71.7C119.5,71.8 119.9,71.5 120.1,71.3C121.3,70.2 122.5,69 123.6,67.9C124,67.5 124.3,67.5 124.7,67.7C126.7,68.7 128.7,69.7 130.7,70.7C131.1,70.9 131.3,71.2 131.2,71.7C130.9,73.2 130.5,74.7 130.3,76.2C130.2,76.6 130.3,77.1 130.6,77.5C131.8,79.6 133.2,81.2 136,80.5C136.8,80.3 137.8,80.5 138.7,80.5C139.2,80.5 139.5,80.7 139.7,81.2C140.5,83.2 141.3,85.2 142.1,87.2C142.3,87.7 142.2,88 141.7,88.3C140,89.4 138.3,90.5 136.5,91.6C136,91.9 135.9,92.3 135.9,92.8C135.8,95.3 136.5,97.3 138.7,98.6C139.3,99 139.9,99.5 140.4,100.1C140.6,100.3 140.7,100.8 140.6,101C139.6,103.1 138.4,105.2 137.4,107.3C137.1,107.8 136.8,107.9 136.3,107.8C134.8,107.5 133.3,107.2 131.9,106.9C131.5,106.8 131.1,107.1 130.7,107.2L130.6,107.3C128.8,108.5 127.8,110.1 127.9,112.3C127.9,113.2 127.7,114.1 127.6,115C127.6,115.5 127.4,115.8 126.8,116C124.9,116.7 123.1,117.3 121.2,118C120.5,118.3 120.2,118.1 119.8,117.6C119,116.4 118.1,115.3 117.1,114.2C116.8,113.9 116.3,113.6 115.9,113.4C113.7,112.6 111.9,113.1 110.5,115C110.4,115 110.3,115 110.3,115.2C110.2,115.2 110.3,115.2 110.3,115.2Z" style="fill:rgb(0,48,60);fill-rule:nonzero;stroke:rgb(0,48,60);stroke-width:4.47px;"/>
                            <path d="M191.2,115.7C185,121 176.3,120.7 170.8,115.7C166.6,111.9 165.2,105.4 167.4,99.6C170.1,92.8 177.3,88.5 184.5,89.6C194.1,91 199.4,101 195.5,109.9C194.6,112.2 193.1,114.1 191.2,115.7Z" style="fill:white;fill-rule:nonzero;"/>
                            <path d="M142.7,150.9C147.5,156.5 146.8,164.7 141.2,169.5C135.2,174.6 126,173.9 120.9,167.9C116.1,162.3 116.8,154 122.4,149.3C128.5,144.1 137.6,144.9 142.7,150.9Z" style="fill:white;fill-rule:nonzero;"/>
                            <path d="M108.5,83.4C114,79.1 121.4,79.9 125.4,85.3C128.4,89.4 128.2,95.4 124.8,99.6C121.2,104 115.2,105.5 110.4,103.1C104.7,100.2 102.5,92.9 105.8,87.2C106.5,85.9 107.5,84.7 108.5,83.4Z" style="fill:white;fill-rule:nonzero;"/>
                        </g>
                    </g>
                </g>
                <g transform="matrix(0.53862,0,0,0.442993,195.427,223.027)">
                    <rect x="74" y="182.5" width="291.3" height="189.8" style="fill:rgb(255,251,220);stroke:rgb(0,48,60);stroke-width:5.7px;"/>
                </g>
                <g transform="matrix(1,0,0,1,-31.6151,24.4132)">
                    <path d="M293.6,334.9L397.1,334.9" style="fill:none;fill-rule:nonzero;stroke:rgb(0,48,60);stroke-width:4.47px;"/>
                </g>
                <g transform="matrix(1,0,0,1,-31.6151,24.4132)">
                    <path d="M293.6,308.1L397.1,308.1" style="fill:none;fill-rule:nonzero;stroke:rgb(0,48,60);stroke-width:4.47px;"/>
                </g>
                <g transform="matrix(0.53862,0,0,0.363291,195.427,71.7566)">
                    <rect x="74" y="182.5" width="291.3" height="189.8" style="fill:rgb(255,251,220);stroke:rgb(0,48,60);stroke-width:5.7px;"/>
                </g>
            </g>
        </g>
    </g>
</svg>
