<?xml version="1.0" encoding="utf-8"?>
<!-- Generator: Adobe Illustrator 23.0.2, SVG Export Plug-In . SVG Version: 6.00 Build 0)  -->
<svg version="1.1" xmlns="http://www.w3.org/2000/svg" xmlns:xlink="http://www.w3.org/1999/xlink" x="0px" y="0px"
	 viewBox="0 0 283.5 283.5" style="enable-background:new 0 0 283.5 283.5;" xml:space="preserve">
<style type="text/css">
	.st0{fill:#00303C;}
	.st1{fill:none;stroke:#FBF29D;stroke-width:2.8346;stroke-miterlimit:10;}
	.st2{fill:none;}
	.st3{fill:#FCF39C;}
	.st4{fill:none;stroke:#FBF29D;stroke-miterlimit:10;}
	.st5{fill:none;stroke:#FBF29D;stroke-miterlimit:10;stroke-dasharray:2.8433,5.6866;}
	.st6{fill:none;stroke:#FCF39C;stroke-width:2.8346;stroke-miterlimit:10;}
	.st7{fill:none;stroke:#FCF39C;stroke-width:1.4173;stroke-miterlimit:10;}
	.st8{fill:#FCF39C;stroke:#FCF39C;stroke-width:0.8504;stroke-miterlimit:10;}
	.st9{fill:#FFFFFF;}
</style>
<g id="BG">
	<rect x="0" y="0.3" class="st0" width="283.5" height="283.5"/>
</g>
<g id="Ebene_1">
	<polyline class="st1" points="50.4,28.3 50.4,204.9 255.1,204.9 	"/>
	<rect x="67.1" y="172.3" class="st1" width="48.2" height="32.6"/>
	<g>
		<rect x="242.9" y="204.9" class="st2" width="53.9" height="35.6"/>
		<path class="st3" d="M249.7,215.3c1-1.6,1.6-2.5,1.9-2.8c0.4-0.5,0.8-0.8,1.1-1c0.3-0.2,0.7-0.3,1-0.3c0.4,0,0.8,0.1,1,0.4
			s0.4,0.6,0.4,1c0,0.4-0.1,0.7-0.3,0.9s-0.5,0.4-0.8,0.4c-0.4,0-0.7-0.2-0.9-0.7c-0.1-0.3-0.3-0.4-0.5-0.4c-0.2,0-0.4,0.1-0.6,0.3
			s-0.9,1.3-2.2,3.3l0.8,3.7c0.1,0.5,0.2,0.9,0.4,1.1s0.3,0.2,0.5,0.2c0.6,0,1.4-0.8,2.4-2.3l0.6,0.3c-0.7,1.3-1.4,2.1-2.1,2.7
			s-1.3,0.8-1.8,0.8c-0.5,0-0.9-0.2-1.2-0.6s-0.6-1.6-1.1-3.7c-1.1,1.9-1.9,3.1-2.5,3.7c-0.4,0.4-1,0.6-1.5,0.6
			c-0.5,0-0.8-0.1-1.1-0.4s-0.4-0.6-0.4-1.1c0-0.3,0.1-0.6,0.3-0.9s0.5-0.3,0.8-0.3c0.2,0,0.4,0.1,0.6,0.2s0.3,0.3,0.4,0.6
			c0.1,0.2,0.2,0.4,0.2,0.5s0.1,0.1,0.2,0.1c0.2,0,0.3-0.1,0.5-0.3c0.4-0.4,1.1-1.6,2.3-3.6l-0.8-3.8c-0.1-0.3-0.2-0.5-0.3-0.7
			s-0.3-0.2-0.5-0.2c-0.6,0-1.2,0.7-1.8,2.2l-0.6-0.4c0.5-1.3,1.1-2.2,1.6-2.7s1.1-0.7,1.6-0.7c0.5,0,0.9,0.2,1.2,0.6
			S249.2,213.3,249.7,215.3z"/>
	</g>
	<g>
		<path class="st3" d="M35.7,36.8c0.8-1.2,1.4-2.4,1.9-3.6c0.3-0.7,0.4-1.3,0.4-1.9c0-0.2-0.1-0.6-0.2-1c-0.1-0.4-0.1-0.7-0.1-0.9
			c0-0.3,0.1-0.6,0.3-0.8s0.4-0.3,0.7-0.3c0.3,0,0.5,0.1,0.7,0.3s0.3,0.5,0.3,0.9c0,0.4-0.1,1-0.4,1.7c-0.4,1.1-0.9,2.2-1.6,3.4
			l-2.8,4.8c-0.6,1.1-1.3,2.1-2.1,3c-0.6,0.6-1.2,1.1-1.8,1.4s-1.2,0.4-1.6,0.4c-0.6,0-1.1-0.2-1.5-0.5s-0.6-0.7-0.6-1.2
			c0-0.4,0.1-0.7,0.4-1s0.5-0.4,0.8-0.4c0.3,0,0.6,0.1,0.8,0.3s0.3,0.5,0.3,0.7l0,0.4l0,0.1c0,0.1,0,0.2,0.1,0.3
			c0.1,0.1,0.2,0.1,0.4,0.1c0.4,0,0.9-0.2,1.5-0.7c0.9-0.8,1.7-1.9,2.6-3.3l-0.8-4c-0.4-2.2-0.9-3.8-1.3-4.6
			c-0.3-0.5-0.5-0.7-0.7-0.7c-0.4,0-0.9,0.7-1.4,2.1l-0.7-0.3c0.4-1.3,1-2.2,1.5-2.8c0.4-0.4,0.9-0.7,1.3-0.7c0.5,0,0.8,0.2,1.1,0.6
			c0.4,0.6,0.9,2,1.4,4.1L35.7,36.8z"/>
	</g>
	<g>
		<path class="st3" d="M38,206.2c0.8,0,1.4,0.2,2,0.6s1.1,1,1.4,1.8s0.5,1.8,0.5,3c0,1.9-0.4,3.8-1.3,5.8s-1.9,3.4-3.1,4.3
			s-2.3,1.4-3.3,1.4c-1.1,0-2-0.4-2.7-1.3s-1.1-2.2-1.1-3.9c0-2.1,0.6-4.3,1.7-6.5c0.8-1.6,1.7-2.9,2.7-3.8S36.9,206.2,38,206.2z
			 M38,207c-0.9,0-1.6,0.3-2.1,1c-0.7,0.9-1.5,2.8-2.4,5.8s-1.3,5-1.3,6.1c0,0.8,0.2,1.4,0.5,1.8c0.4,0.4,0.8,0.6,1.5,0.6
			c0.7,0,1.3-0.2,1.9-0.7c0.6-0.5,1.1-1.3,1.6-2.5c0.6-1.5,1.2-3.5,1.8-5.8c0.5-1.8,0.7-3.1,0.7-3.9c0-0.7-0.2-1.3-0.6-1.7
			C39.2,207.2,38.7,207,38,207z"/>
	</g>
	<rect x="129.7" y="136" class="st1" width="48.2" height="69"/>
	<rect x="192.4" y="67" class="st1" width="48.2" height="137.9"/>
	<line class="st1" x1="40.5" y1="44.6" x2="50.4" y2="44.6"/>
	<line class="st1" x1="40.5" y1="98.1" x2="50.4" y2="98.1"/>
	<line class="st1" x1="40.5" y1="151.5" x2="50.4" y2="151.5"/>
	<g>
		<g>
			<line class="st4" x1="255.1" y1="44.6" x2="253.7" y2="44.6"/>
			<line class="st5" x1="248" y1="44.6" x2="54.7" y2="44.6"/>
			<line class="st4" x1="51.8" y1="44.6" x2="50.4" y2="44.6"/>
		</g>
	</g>
	<g>
		<g>
			<line class="st4" x1="255.1" y1="98.1" x2="253.7" y2="98.1"/>
			<line class="st5" x1="248" y1="98.1" x2="54.7" y2="98.1"/>
			<line class="st4" x1="51.8" y1="98.1" x2="50.4" y2="98.1"/>
		</g>
	</g>
	<g>
		<g>
			<line class="st4" x1="255.1" y1="151.5" x2="253.7" y2="151.5"/>
			<line class="st5" x1="248" y1="151.5" x2="54.7" y2="151.5"/>
			<line class="st4" x1="51.8" y1="151.5" x2="50.4" y2="151.5"/>
		</g>
	</g>
</g>
<g id="Labels">
</g>
</svg>
