<?xml version="1.0" encoding="utf-8"?>
<!-- Generator: Adobe Illustrator 23.0.2, SVG Export Plug-In . SVG Version: 6.00 Build 0)  -->
<svg version="1.1" xmlns="http://www.w3.org/2000/svg" xmlns:xlink="http://www.w3.org/1999/xlink" x="0px" y="0px"
	 viewBox="0 0 283.5 283.5" style="enable-background:new 0 0 283.5 283.5;" xml:space="preserve">
<style type="text/css">
	.st0{fill:#00303C;}
	.st1{fill:none;stroke:#FBF29D;stroke-width:2.8346;stroke-miterlimit:10;}
	.st2{fill:none;}
	.st3{fill:#FCF39C;}
	.st4{fill:none;stroke:#FBF29D;stroke-miterlimit:10;}
	.st5{fill:none;stroke:#FBF29D;stroke-miterlimit:10;stroke-dasharray:2.8433,5.6866;}
	.st6{fill:none;stroke:#FCF39C;stroke-width:2.8346;stroke-miterlimit:10;}
	.st7{fill:none;stroke:#FCF39C;stroke-width:1.4173;stroke-miterlimit:10;}
	.st8{fill:#FCF39C;stroke:#FCF39C;stroke-width:0.8504;stroke-miterlimit:10;}
	.st9{fill:#FFFFFF;}
</style>
<g id="BG">
	<rect x="-0.2" y="-0.2" class="st0" width="283.5" height="283.5"/>
</g>
<g id="Ebene_1">
	<ellipse transform="matrix(0.845 -0.5348 0.5348 0.845 -83.9156 51.1503)" class="st6" cx="46.3" cy="170.3" rx="11" ry="30.1"/>
	<ellipse transform="matrix(0.845 -0.5348 0.5348 0.845 8.9686 133.3449)" class="st6" cx="234.5" cy="51.2" rx="4.6" ry="12.7"/>
	<ellipse transform="matrix(0.845 -0.5348 0.5348 0.845 -37.7103 92.0381)" class="st6" cx="139.9" cy="111.1" rx="9.8" ry="27"/>
	<line class="st6" x1="30.2" y1="144.9" x2="125.5" y2="88.2"/>
	<line class="st6" x1="62.4" y1="195.7" x2="154.4" y2="133.9"/>
	<ellipse transform="matrix(0.845 -0.5348 0.5348 0.845 -37.7103 92.0381)" class="st6" cx="139.9" cy="111.1" rx="6.4" ry="17.5"/>
	<line class="st6" x1="130.6" y1="96.3" x2="227.7" y2="40.5"/>
	<line class="st6" x1="241.3" y1="61.9" x2="149.3" y2="125.8"/>
	<g>
		<path class="st3" d="M228,90.1c1,0,1.7,0.3,2.4,1s0.9,1.5,0.9,2.5c0,1-0.2,1.9-0.7,2.8s-1.1,1.5-1.9,2.1s-1.6,0.8-2.5,0.8
			c-0.9,0-1.7-0.3-2.3-1s-0.9-1.5-0.9-2.5c0-1,0.2-1.9,0.7-2.8s1.1-1.6,1.9-2.1S227.2,90.1,228,90.1z M228.1,90.5
			c-0.5,0-0.9,0.1-1.3,0.3s-0.8,0.6-1.2,1.1s-0.7,1.2-0.9,2s-0.4,1.6-0.4,2.4c0,0.8,0.2,1.4,0.5,1.7s0.8,0.6,1.4,0.6
			c0.6,0,1.2-0.2,1.7-0.6s1-1.1,1.4-2.1c0.5-1.1,0.7-2.2,0.7-3.3c0-0.7-0.2-1.3-0.5-1.7S228.6,90.5,228.1,90.5z"/>
		<path class="st3" d="M234.9,90.3l-1.3,5.1c0.5-0.8,1-1.3,1.4-1.6c0.4-0.3,0.8-0.4,1.2-0.4c0.4,0,0.7,0.1,0.9,0.3s0.3,0.4,0.3,0.7
			c0,0.4-0.2,0.7-0.6,1.1s-1,0.7-1.9,0.9c0.3,0.1,0.4,0.3,0.6,0.5c0.1,0.1,0.2,0.5,0.2,1c0,0.3,0.1,0.4,0.1,0.5
			c0,0.1,0.1,0.2,0.2,0.2c0.3,0,0.7-0.4,1.3-1.3l0.3,0.2c-0.7,1.2-1.3,1.7-1.9,1.7c-0.3,0-0.5-0.1-0.6-0.3c-0.2-0.2-0.2-0.5-0.2-0.9
			v-1c0-0.2-0.1-0.4-0.2-0.5c-0.2,0-0.3,0.1-0.4,0.1c-0.1,0-0.2,0-0.3-0.1s-0.1-0.1-0.1-0.2c0-0.1,0-0.1,0.1-0.2s0.1-0.1,0.2-0.1
			c0,0,0.1,0,0.2,0c0.1,0,0.2,0,0.3,0c0.5,0,0.9-0.2,1.3-0.5s0.6-0.7,0.6-1c0-0.2-0.1-0.4-0.2-0.5c-0.1-0.1-0.3-0.2-0.5-0.2
			c-0.3,0-0.6,0.1-1,0.4s-0.8,0.7-1.2,1.4c-0.3,0.5-0.5,1-0.7,1.6l-0.5,1.7l-1,0.1l2.1-7.8c0-0.1,0-0.1,0-0.2c0-0.1,0-0.2-0.1-0.3
			s-0.3-0.1-0.5-0.1h-0.4l0.1-0.4L234.9,90.3z"/>
		<path class="st3" d="M240.9,93.4l-1,3.6c-0.1,0.4-0.2,0.7-0.2,1c0,0.2,0,0.3,0.1,0.4c0.1,0.1,0.2,0.2,0.4,0.2
			c0.3,0,0.8-0.3,1.3-0.8c0.5-0.5,0.9-1.3,1.2-2.2l0.6-2h0.9l-1.2,4.3c-0.1,0.2-0.1,0.4-0.1,0.5c0,0.1,0,0.2,0.1,0.2
			c0,0.1,0.1,0.1,0.2,0.1c0.4,0,0.8-0.5,1.4-1.5l0.3,0.1c-0.3,0.7-0.7,1.2-1,1.5c-0.4,0.3-0.7,0.5-1.1,0.5c-0.2,0-0.4-0.1-0.6-0.2
			c-0.1-0.1-0.2-0.3-0.2-0.6c0-0.2,0-0.5,0.1-0.9c-0.5,0.6-0.9,1.1-1.3,1.3c-0.4,0.2-0.7,0.4-1,0.4c-0.3,0-0.6-0.1-0.8-0.3
			c-0.2-0.2-0.3-0.4-0.3-0.8c0-0.3,0.1-0.6,0.2-1.2l0.7-2.5c0-0.1,0-0.1,0-0.2c0-0.1,0-0.2-0.1-0.2c-0.1-0.1-0.3-0.1-0.5-0.1h-0.3
			l0.1-0.4L240.9,93.4z"/>
		<path class="st3" d="M246.9,90.4l2.2-0.1l-2,7.5c-0.1,0.3-0.1,0.4-0.1,0.6c0,0.1,0,0.2,0.1,0.2s0.1,0.1,0.2,0.1
			c0.3,0,0.8-0.5,1.4-1.5l0.3,0.2c-0.7,1.3-1.3,1.9-2,1.9c-0.2,0-0.4-0.1-0.6-0.2s-0.2-0.4-0.2-0.7c0-0.2,0.1-0.5,0.2-0.9l1.6-6.1
			c0-0.1,0-0.1,0-0.2c0-0.1,0-0.2-0.1-0.2c-0.1-0.1-0.3-0.1-0.5-0.1h-0.4L246.9,90.4z"/>
		<path class="st3" d="M253.5,98.1c-0.2,0.4-0.5,0.6-0.8,0.8s-0.6,0.3-0.9,0.3c-0.6,0-1.1-0.2-1.5-0.6s-0.6-1-0.6-1.6
			c0-0.6,0.2-1.2,0.5-1.7s0.7-1,1.2-1.3s1-0.5,1.4-0.5c0.4,0,0.7,0.1,1,0.3s0.5,0.5,0.6,0.9l0.3-1l0.9-0.1l-1.3,4.5
			c0,0.1-0.1,0.2-0.1,0.4c0,0.1,0,0.2,0.1,0.3s0.1,0.1,0.2,0.1c0.1,0,0.3-0.1,0.4-0.2c0.3-0.3,0.6-0.7,0.8-1.2l0.3,0.2
			c-0.6,1.3-1.2,1.9-1.9,1.9c-0.2,0-0.4-0.1-0.5-0.2s-0.2-0.4-0.2-0.6L253.5,98.1z M252.9,93.8c-0.3,0-0.6,0.1-0.9,0.4
			c-0.3,0.2-0.6,0.7-0.8,1.2s-0.4,1.2-0.4,1.8c0,0.5,0.1,0.8,0.3,1.1s0.5,0.3,0.8,0.3c0.3,0,0.6-0.1,0.9-0.3
			c0.3-0.2,0.6-0.7,0.8-1.4c0.3-0.7,0.4-1.3,0.4-1.8c0-0.4-0.1-0.7-0.4-0.9S253.2,93.8,252.9,93.8z"/>
		<path class="st3" d="M257.8,99l-1,0.1l1-3.8c0.1-0.4,0.2-0.7,0.2-0.8c0-0.2-0.1-0.3-0.2-0.4s-0.3-0.1-0.6-0.1h-0.3l0.1-0.4
			l1.9-0.1l-0.6,2.4c0.4-0.8,0.6-1.4,0.8-1.6s0.4-0.5,0.6-0.6c0.2-0.1,0.4-0.2,0.7-0.2c0.3,0,0.5,0.1,0.7,0.2s0.3,0.4,0.3,0.6
			c0,0.2-0.1,0.4-0.2,0.5S261,95,260.8,95c-0.1,0-0.3-0.1-0.4-0.2s-0.2-0.2-0.2-0.4c0-0.1,0-0.1,0.1-0.2c0-0.1,0-0.1,0-0.2
			c0-0.1,0-0.1,0-0.1s-0.1,0-0.1,0c-0.1,0-0.2,0.1-0.4,0.2c-0.3,0.2-0.5,0.6-0.8,1.2c-0.5,1-0.8,1.8-1,2.5L257.8,99z"/>
	</g>
	<line class="st8" x1="69.4" y1="206.7" x2="69.4" y2="181"/>
	<g>
		<path class="st3" d="M65.4,212.1c1,0,1.7,0.3,2.4,1s0.9,1.5,0.9,2.5c0,1-0.2,1.9-0.7,2.8s-1.1,1.5-1.9,2.1s-1.6,0.8-2.5,0.8
			c-0.9,0-1.7-0.3-2.3-1s-0.9-1.5-0.9-2.5c0-1,0.2-1.9,0.7-2.8s1.1-1.6,1.9-2.1S64.6,212.1,65.4,212.1z M65.5,212.5
			c-0.5,0-0.9,0.1-1.3,0.3s-0.8,0.6-1.2,1.1s-0.7,1.2-0.9,2s-0.4,1.6-0.4,2.4c0,0.8,0.2,1.4,0.5,1.7s0.8,0.6,1.4,0.6
			c0.6,0,1.2-0.2,1.7-0.6s1-1.1,1.4-2.1c0.5-1.1,0.7-2.2,0.7-3.3c0-0.7-0.2-1.3-0.5-1.7S66.1,212.5,65.5,212.5z"/>
		<path class="st3" d="M72.4,212.2l-1.1,4.1c0.6-0.6,1.2-1,1.8-1c0.5,0,0.9,0.2,1.2,0.5c0.3,0.4,0.5,0.8,0.5,1.4
			c0,0.7-0.2,1.3-0.5,1.9s-0.7,1.1-1.2,1.4s-1,0.5-1.6,0.5c-0.6,0-1-0.2-1.3-0.5c-0.3-0.3-0.5-0.8-0.5-1.3c0-0.3,0-0.6,0.1-0.9
			l1.4-5.2c0,0,0-0.1,0-0.1c0-0.1-0.1-0.2-0.2-0.3s-0.4-0.1-0.7-0.1l0.1-0.4L72.4,212.2z M72.7,215.9c-0.3,0-0.6,0.1-0.8,0.4
			c-0.3,0.3-0.7,0.8-0.9,1.4s-0.4,1.3-0.4,1.8c0,0.4,0.1,0.8,0.3,1s0.4,0.3,0.7,0.3c0.3,0,0.6-0.1,0.9-0.4c0.3-0.3,0.6-0.7,0.8-1.3
			c0.3-0.6,0.4-1.2,0.4-1.8c0-0.5-0.1-0.8-0.3-1S73,215.9,72.7,215.9z"/>
		<path class="st3" d="M76.7,215.5l2.1-0.1l-1.3,4.9c-0.3,1.1-0.7,1.9-1.1,2.4c-0.4,0.4-0.8,0.6-1.3,0.6c-0.3,0-0.5-0.1-0.7-0.2
			c-0.2-0.1-0.2-0.3-0.2-0.6c0-0.2,0.1-0.3,0.2-0.5s0.3-0.2,0.4-0.2c0.1,0,0.2,0,0.3,0.1s0.1,0.2,0.1,0.3c0,0.1,0,0.1,0,0.2l0,0.1
			c0,0.1,0,0.1,0.1,0.2s0.1,0.1,0.1,0.1c0.1,0,0.3-0.1,0.4-0.3c0.2-0.4,0.5-1.2,0.8-2.3l1-3.9c0-0.1,0-0.1,0-0.2
			c0-0.1,0-0.2-0.1-0.3s-0.2-0.1-0.4-0.1h-0.5L76.7,215.5z M78.2,212.3c0.2,0,0.3,0.1,0.5,0.2s0.2,0.3,0.2,0.5s-0.1,0.3-0.2,0.5
			c-0.1,0.1-0.3,0.2-0.5,0.2s-0.3-0.1-0.5-0.2c-0.1-0.1-0.2-0.3-0.2-0.5s0.1-0.3,0.2-0.5S78,212.3,78.2,212.3z"/>
		<path class="st3" d="M80.6,218.8c0,0.2,0,0.3,0,0.5c0,0.4,0.1,0.8,0.3,1s0.5,0.3,0.9,0.3c0.3,0,0.6-0.1,0.8-0.2s0.6-0.4,1-0.9
			l0.3,0.2c-0.7,0.9-1.5,1.4-2.3,1.4c-0.6,0-1-0.2-1.4-0.6s-0.6-1-0.6-1.6c0-0.6,0.2-1.1,0.5-1.7s0.8-1,1.3-1.4s1-0.5,1.5-0.5
			c0.4,0,0.7,0.1,1,0.3s0.4,0.5,0.4,0.9c0,0.3-0.1,0.6-0.3,0.9s-0.5,0.5-1,0.8S81.7,218.6,80.6,218.8z M80.7,218.4
			c0.7-0.2,1.3-0.3,1.6-0.5c0.3-0.2,0.6-0.4,0.7-0.7c0.2-0.3,0.2-0.5,0.2-0.8c0-0.2-0.1-0.4-0.2-0.5c-0.1-0.1-0.3-0.2-0.5-0.2
			c-0.4,0-0.7,0.2-1.1,0.6S80.9,217.5,80.7,218.4z"/>
		<path class="st3" d="M88.1,212.2l-1.3,5.1c0.5-0.8,1-1.3,1.4-1.6c0.4-0.3,0.8-0.4,1.2-0.4c0.4,0,0.7,0.1,0.9,0.3s0.3,0.4,0.3,0.7
			c0,0.4-0.2,0.7-0.6,1.1s-1,0.7-1.9,0.9c0.3,0.1,0.4,0.3,0.6,0.5c0.1,0.1,0.2,0.5,0.2,1c0,0.3,0.1,0.4,0.1,0.5
			c0,0.1,0.1,0.2,0.2,0.2c0.3,0,0.7-0.4,1.3-1.3l0.3,0.2c-0.7,1.2-1.3,1.7-1.9,1.7c-0.3,0-0.5-0.1-0.6-0.3c-0.2-0.2-0.2-0.5-0.2-0.9
			v-1c0-0.2-0.1-0.4-0.2-0.5c-0.2,0-0.3,0.1-0.4,0.1c-0.1,0-0.2,0-0.3-0.1s-0.1-0.1-0.1-0.2c0-0.1,0-0.1,0.1-0.2s0.1-0.1,0.2-0.1
			c0,0,0.1,0,0.2,0c0.1,0,0.2,0,0.3,0c0.5,0,0.9-0.2,1.3-0.5s0.6-0.7,0.6-1c0-0.2-0.1-0.4-0.2-0.5c-0.1-0.1-0.3-0.2-0.5-0.2
			c-0.3,0-0.6,0.1-1,0.4s-0.8,0.7-1.2,1.4c-0.3,0.5-0.5,1-0.7,1.6l-0.5,1.7l-1,0.1l2.1-7.8c0-0.1,0-0.1,0-0.2c0-0.1,0-0.2-0.1-0.3
			s-0.3-0.1-0.5-0.1h-0.4l0.1-0.4L88.1,212.2z"/>
		<path class="st3" d="M93.6,213.6h1l-0.5,1.9h1.1L95,216h-1l-1,3.6c-0.1,0.2-0.1,0.4-0.1,0.5c0,0.1,0,0.3,0.1,0.3
			c0.1,0.1,0.1,0.1,0.2,0.1c0.4,0,0.9-0.5,1.5-1.5l0.3,0.2c-0.7,1.3-1.4,1.9-2.1,1.9c-0.3,0-0.5-0.1-0.7-0.3
			c-0.2-0.2-0.2-0.4-0.2-0.7c0-0.2,0-0.5,0.1-0.8L93,216h-1l0.1-0.5h1L93.6,213.6z"/>
		<path class="st3" d="M98.3,215.4l-1.2,4.6c0,0.1-0.1,0.2-0.1,0.3c0,0.1,0,0.2,0.1,0.2c0,0,0.1,0.1,0.2,0.1c0.1,0,0.3-0.1,0.5-0.3
			c0.3-0.3,0.6-0.7,0.9-1.3l0.3,0.2c-0.3,0.6-0.6,1.1-1,1.4s-0.8,0.5-1.1,0.5c-0.2,0-0.4-0.1-0.5-0.2c-0.2-0.2-0.2-0.4-0.2-0.7
			c0-0.3,0-0.5,0.1-0.8l0.8-3c0-0.1,0-0.1,0-0.1c0-0.1,0-0.2-0.1-0.2c-0.1-0.1-0.3-0.1-0.5-0.1h-0.4l0.1-0.4L98.3,215.4z
			 M98.3,212.3c0.2,0,0.3,0.1,0.5,0.2s0.2,0.3,0.2,0.5c0,0.2-0.1,0.3-0.2,0.5s-0.3,0.2-0.4,0.2c-0.2,0-0.3-0.1-0.5-0.2
			s-0.2-0.3-0.2-0.5c0-0.2,0.1-0.3,0.2-0.5S98.1,212.3,98.3,212.3z"/>
		<path class="st3" d="M100.2,215.9l0.1-0.4l1.9-0.1l-0.7,2.7c-0.1,0.6-0.2,1.1-0.2,1.4c0,0.4,0.1,0.6,0.2,0.8s0.4,0.3,0.6,0.3
			c0.3,0,0.6-0.1,1-0.4s0.7-0.7,1-1.4s0.4-1.2,0.4-1.8c0-0.2,0-0.3-0.1-0.4s-0.1-0.2-0.2-0.3c-0.1-0.2-0.2-0.3-0.3-0.3
			s-0.1-0.1-0.1-0.2c0-0.1,0-0.3,0.1-0.4s0.2-0.1,0.3-0.1c0.2,0,0.3,0.1,0.5,0.3s0.2,0.5,0.2,0.9c0,0.6-0.1,1.3-0.4,2
			c-0.3,0.9-0.8,1.6-1.4,2.1c-0.5,0.4-1,0.6-1.5,0.6c-0.4,0-0.8-0.2-1.1-0.5s-0.4-0.8-0.4-1.3c0-0.4,0.1-0.9,0.2-1.4l0.4-1.5
			c0,0,0-0.1,0-0.1c0-0.1,0-0.2-0.1-0.2C100.9,215.9,100.6,215.9,100.2,215.9z"/>
	</g>
	<g>
		<path class="st3" d="M160.9,172.3h7.2l-0.8,3.2h-0.4c0.1-0.5,0.2-1,0.2-1.3c0-0.5-0.1-0.9-0.3-1.1s-0.6-0.4-1.1-0.4
			c-0.3,0-0.5,0-0.6,0.1c-0.1,0.1-0.2,0.2-0.2,0.4l-1.8,6.8c0,0,0,0.1,0,0.1c0,0.1,0,0.2,0.1,0.3s0.2,0.1,0.5,0.1h0.9l-0.1,0.4H160
			l0.1-0.4h0.8c0.2,0,0.4,0,0.5-0.1s0.2-0.2,0.2-0.4l1.8-6.7c0-0.1,0-0.2,0-0.2c0-0.1,0-0.2-0.1-0.3c-0.1-0.1-0.2-0.1-0.5-0.1
			c-0.4,0-0.7,0.1-1,0.3s-0.6,0.5-0.9,0.9c-0.2,0.2-0.5,0.8-0.9,1.6h-0.4L160.9,172.3z"/>
		<path class="st3" d="M168.4,178.9c0,0.2,0,0.3,0,0.5c0,0.4,0.1,0.8,0.3,1s0.5,0.3,0.9,0.3c0.3,0,0.6-0.1,0.8-0.2s0.6-0.4,1-0.9
			l0.3,0.2c-0.7,0.9-1.5,1.4-2.3,1.4c-0.6,0-1-0.2-1.4-0.6s-0.6-1-0.6-1.6c0-0.6,0.2-1.1,0.5-1.7s0.8-1,1.3-1.4s1-0.5,1.5-0.5
			c0.4,0,0.7,0.1,1,0.3s0.4,0.5,0.4,0.9c0,0.3-0.1,0.6-0.3,0.9s-0.5,0.5-1,0.8S169.5,178.6,168.4,178.9z M168.4,178.5
			c0.7-0.2,1.3-0.3,1.6-0.5c0.3-0.2,0.6-0.4,0.7-0.7c0.2-0.3,0.2-0.5,0.2-0.8c0-0.2-0.1-0.4-0.2-0.5c-0.1-0.1-0.3-0.2-0.5-0.2
			c-0.4,0-0.7,0.2-1.1,0.6S168.6,177.5,168.4,178.5z"/>
		<path class="st3" d="M173.8,172.3l2.2-0.1l-2,7.5c-0.1,0.3-0.1,0.4-0.1,0.6c0,0.1,0,0.2,0.1,0.2s0.1,0.1,0.2,0.1
			c0.3,0,0.8-0.5,1.4-1.5l0.3,0.2c-0.7,1.3-1.3,1.9-2,1.9c-0.2,0-0.4-0.1-0.6-0.2s-0.2-0.4-0.2-0.7c0-0.2,0.1-0.5,0.2-0.9l1.6-6.1
			c0-0.1,0-0.1,0-0.2c0-0.1,0-0.2-0.1-0.2c-0.1-0.1-0.3-0.1-0.5-0.1h-0.4L173.8,172.3z"/>
		<path class="st3" d="M177.7,178.9c0,0.2,0,0.3,0,0.5c0,0.4,0.1,0.8,0.3,1s0.5,0.3,0.9,0.3c0.3,0,0.6-0.1,0.8-0.2s0.6-0.4,1-0.9
			l0.3,0.2c-0.7,0.9-1.5,1.4-2.3,1.4c-0.6,0-1-0.2-1.4-0.6s-0.6-1-0.6-1.6c0-0.6,0.2-1.1,0.5-1.7s0.8-1,1.3-1.4s1-0.5,1.5-0.5
			c0.4,0,0.7,0.1,1,0.3s0.4,0.5,0.4,0.9c0,0.3-0.1,0.6-0.3,0.9s-0.5,0.5-1,0.8S178.8,178.6,177.7,178.9z M177.8,178.5
			c0.7-0.2,1.3-0.3,1.6-0.5c0.3-0.2,0.6-0.4,0.7-0.7c0.2-0.3,0.2-0.5,0.2-0.8c0-0.2-0.1-0.4-0.2-0.5c-0.1-0.1-0.3-0.2-0.5-0.2
			c-0.4,0-0.7,0.2-1.1,0.6S178,177.5,177.8,178.5z"/>
		<path class="st3" d="M184.7,175.4c0.6,0,1,0.1,1.3,0.3s0.5,0.5,0.5,0.8c0,0.2-0.1,0.4-0.2,0.5s-0.3,0.2-0.4,0.2
			c-0.2,0-0.3-0.1-0.4-0.2s-0.2-0.2-0.2-0.4c0-0.1,0-0.2,0.1-0.3c0.1-0.1,0.1-0.2,0.1-0.2c0-0.1-0.1-0.2-0.2-0.3s-0.3-0.1-0.6-0.1
			c-0.4,0-0.7,0.1-1,0.3s-0.4,0.5-0.4,0.8c0,0.2,0.1,0.4,0.2,0.5s0.5,0.3,1.1,0.5c0.5,0.2,0.9,0.4,1.1,0.6c0.2,0.2,0.3,0.5,0.3,0.9
			c0,0.5-0.2,1-0.7,1.3c-0.4,0.4-1,0.6-1.7,0.6c-0.6,0-1.1-0.1-1.4-0.4s-0.5-0.6-0.5-1c0-0.2,0.1-0.4,0.2-0.6s0.3-0.2,0.5-0.2
			c0.2,0,0.3,0.1,0.4,0.2s0.2,0.2,0.2,0.4c0,0.1,0,0.1,0,0.2s-0.1,0.1-0.2,0.2c-0.1,0.1-0.1,0.2-0.1,0.2c0,0.1,0.1,0.3,0.3,0.4
			s0.4,0.2,0.8,0.2c0.4,0,0.8-0.1,1.1-0.3s0.4-0.5,0.4-0.8c0-0.2-0.1-0.4-0.2-0.6c-0.1-0.1-0.5-0.3-1-0.5c-0.6-0.2-1-0.4-1.2-0.6
			c-0.2-0.2-0.3-0.5-0.3-0.8c0-0.5,0.2-1,0.6-1.3S184.1,175.4,184.7,175.4z"/>
		<path class="st3" d="M190.5,172.3l-1.3,5.1c0.5-0.8,1-1.3,1.4-1.6c0.4-0.3,0.8-0.4,1.2-0.4c0.4,0,0.7,0.1,0.9,0.3s0.3,0.4,0.3,0.7
			c0,0.4-0.2,0.7-0.6,1.1s-1,0.7-1.9,0.9c0.3,0.1,0.4,0.3,0.6,0.5c0.1,0.1,0.2,0.5,0.2,1c0,0.3,0.1,0.4,0.1,0.5
			c0,0.1,0.1,0.2,0.2,0.2c0.3,0,0.7-0.4,1.3-1.3l0.3,0.2c-0.7,1.2-1.3,1.7-1.9,1.7c-0.3,0-0.5-0.1-0.6-0.3c-0.2-0.2-0.2-0.5-0.2-0.9
			v-1c0-0.2-0.1-0.4-0.2-0.5c-0.2,0-0.3,0.1-0.4,0.1c-0.1,0-0.2,0-0.3-0.1s-0.1-0.1-0.1-0.2c0-0.1,0-0.1,0.1-0.2s0.1-0.1,0.2-0.1
			c0,0,0.1,0,0.2,0c0.1,0,0.2,0,0.3,0c0.5,0,0.9-0.2,1.3-0.5s0.6-0.7,0.6-1c0-0.2-0.1-0.4-0.2-0.5c-0.1-0.1-0.3-0.2-0.5-0.2
			c-0.3,0-0.6,0.1-1,0.4s-0.8,0.7-1.2,1.4c-0.3,0.5-0.5,1-0.7,1.6l-0.5,1.7l-1,0.1l2.1-7.8c0-0.1,0-0.1,0-0.2c0-0.1,0-0.2-0.1-0.3
			s-0.3-0.1-0.5-0.1h-0.4l0.1-0.4L190.5,172.3z"/>
		<path class="st3" d="M197,175.4c0.6,0,1.1,0.2,1.5,0.7s0.6,1,0.6,1.7c0,0.6-0.1,1.2-0.4,1.7s-0.7,1-1.2,1.3s-1,0.4-1.5,0.4
			c-0.6,0-1.1-0.2-1.5-0.7s-0.6-1-0.6-1.7c0-0.6,0.2-1.1,0.5-1.7s0.7-1,1.2-1.3S196.5,175.4,197,175.4z M197,175.8
			c-0.3,0-0.6,0.1-0.9,0.4s-0.6,0.7-0.8,1.3s-0.4,1.2-0.4,1.9c0,0.5,0.1,0.8,0.3,1.1s0.5,0.4,0.8,0.4c0.3,0,0.6-0.1,0.9-0.4
			s0.6-0.7,0.8-1.3s0.4-1.3,0.4-1.9c0-0.5-0.1-0.8-0.3-1.1S197.3,175.8,197,175.8z"/>
		<path class="st3" d="M201.3,180.1l-0.6,2.2c0,0.1,0,0.2,0,0.2c0,0.1,0,0.2,0.1,0.3s0.2,0.1,0.5,0.1h0.4l-0.1,0.4h-2.9l0.1-0.4h0.2
			c0.4,0,0.7-0.2,0.8-0.6l1.7-5.8c0,0,0-0.1,0-0.1c0-0.1,0-0.2-0.1-0.3c-0.1-0.1-0.2-0.1-0.4-0.1h-0.4l0.1-0.4l2-0.1l-0.3,1.2
			c0.3-0.5,0.7-0.8,1-1s0.6-0.3,1-0.3c0.5,0,0.9,0.2,1.2,0.6c0.3,0.4,0.5,0.9,0.5,1.5c0,0.6-0.2,1.2-0.5,1.8s-0.7,1.1-1.2,1.4
			s-1,0.5-1.4,0.5C202.1,181.2,201.6,180.8,201.3,180.1z M203.8,175.9c-0.3,0-0.7,0.2-1,0.5c-0.4,0.3-0.7,0.8-0.9,1.5
			c-0.2,0.6-0.3,1.2-0.3,1.6c0,0.4,0.1,0.7,0.3,0.9c0.2,0.2,0.5,0.3,0.8,0.3c0.3,0,0.6-0.1,0.9-0.4c0.3-0.3,0.6-0.7,0.8-1.3
			s0.4-1.2,0.4-1.8c0-0.4-0.1-0.7-0.3-0.9S204.1,175.9,203.8,175.9z"/>
		<path class="st3" d="M209.6,175.4c0.6,0,1,0.1,1.3,0.3s0.5,0.5,0.5,0.8c0,0.2-0.1,0.4-0.2,0.5s-0.3,0.2-0.4,0.2
			c-0.2,0-0.3-0.1-0.4-0.2s-0.2-0.2-0.2-0.4c0-0.1,0-0.2,0.1-0.3c0.1-0.1,0.1-0.2,0.1-0.2c0-0.1-0.1-0.2-0.2-0.3s-0.3-0.1-0.6-0.1
			c-0.4,0-0.7,0.1-1,0.3s-0.4,0.5-0.4,0.8c0,0.2,0.1,0.4,0.2,0.5s0.5,0.3,1.1,0.5c0.5,0.2,0.9,0.4,1.1,0.6c0.2,0.2,0.3,0.5,0.3,0.9
			c0,0.5-0.2,1-0.7,1.3c-0.4,0.4-1,0.6-1.7,0.6c-0.6,0-1.1-0.1-1.4-0.4s-0.5-0.6-0.5-1c0-0.2,0.1-0.4,0.2-0.6s0.3-0.2,0.5-0.2
			c0.2,0,0.3,0.1,0.4,0.2s0.2,0.2,0.2,0.4c0,0.1,0,0.1,0,0.2s-0.1,0.1-0.2,0.2c-0.1,0.1-0.1,0.2-0.1,0.2c0,0.1,0.1,0.3,0.3,0.4
			s0.4,0.2,0.8,0.2c0.4,0,0.8-0.1,1.1-0.3s0.4-0.5,0.4-0.8c0-0.2-0.1-0.4-0.2-0.6c-0.1-0.1-0.5-0.3-1-0.5c-0.6-0.2-1-0.4-1.2-0.6
			c-0.2-0.2-0.3-0.5-0.3-0.8c0-0.5,0.2-1,0.6-1.3S209,175.4,209.6,175.4z"/>
		<path class="st3" d="M216.2,179.6l0.3,0.2c-0.4,0.5-0.8,0.9-1.1,1.1s-0.8,0.3-1.2,0.3c-0.6,0-1-0.2-1.4-0.6s-0.6-0.9-0.6-1.6
			c0-0.6,0.2-1.2,0.5-1.8s0.7-1,1.2-1.4s1-0.5,1.5-0.5c0.4,0,0.8,0.1,1,0.3s0.4,0.5,0.4,0.9c0,0.3-0.1,0.5-0.2,0.6s-0.3,0.2-0.5,0.2
			c-0.2,0-0.3-0.1-0.4-0.2s-0.2-0.2-0.2-0.4c0-0.3,0.1-0.4,0.4-0.5c0.1,0,0.2-0.1,0.2-0.2s-0.1-0.2-0.2-0.3s-0.3-0.1-0.5-0.1
			c-0.3,0-0.7,0.1-1,0.4s-0.6,0.7-0.9,1.2s-0.4,1.1-0.4,1.8c0,0.5,0.1,0.9,0.3,1.2s0.5,0.4,0.9,0.4
			C215.1,180.7,215.6,180.3,216.2,179.6z"/>
		<path class="st3" d="M220.9,172.2l-1.3,5c0.8-1.2,1.6-1.9,2.3-1.9c0.3,0,0.6,0.1,0.8,0.3c0.2,0.2,0.3,0.5,0.3,0.8
			c0,0.3-0.1,0.6-0.2,1l-0.6,2.3c-0.1,0.2-0.1,0.3-0.1,0.4c0,0.1,0,0.2,0.1,0.2c0,0,0.1,0.1,0.2,0.1c0.2,0,0.3-0.1,0.5-0.3
			c0.3-0.3,0.6-0.7,0.8-1.3l0.4,0.1c-0.2,0.6-0.6,1.1-0.9,1.5s-0.7,0.5-1,0.5c-0.3,0-0.5-0.1-0.6-0.3s-0.2-0.4-0.2-0.7
			c0-0.2,0-0.3,0.1-0.5l0.6-2.3c0.1-0.2,0.1-0.4,0.1-0.6c0-0.2-0.1-0.4-0.2-0.5s-0.2-0.2-0.4-0.2c-0.2,0-0.4,0.1-0.7,0.3
			c-0.4,0.3-0.8,0.7-1.1,1.2c-0.3,0.5-0.6,1-0.7,1.6l-0.5,2l-1,0.1l2.1-7.8c0-0.1,0-0.1,0-0.2c0-0.1,0-0.2-0.1-0.2s-0.3-0.1-0.6-0.1
			h-0.3l0.1-0.4L220.9,172.2z"/>
		<path class="st3" d="M228.6,180.1c-0.2,0.4-0.5,0.6-0.8,0.8s-0.6,0.3-0.9,0.3c-0.6,0-1.1-0.2-1.5-0.6s-0.6-1-0.6-1.6
			c0-0.6,0.2-1.2,0.5-1.7s0.7-1,1.2-1.3s1-0.5,1.4-0.5c0.4,0,0.7,0.1,1,0.3s0.5,0.5,0.6,0.9l0.3-1l0.9-0.1l-1.3,4.5
			c0,0.1-0.1,0.2-0.1,0.4c0,0.1,0,0.2,0.1,0.3s0.1,0.1,0.2,0.1c0.1,0,0.3-0.1,0.4-0.2c0.3-0.3,0.6-0.7,0.8-1.2l0.3,0.2
			c-0.6,1.3-1.2,1.9-1.9,1.9c-0.2,0-0.4-0.1-0.5-0.2s-0.2-0.4-0.2-0.6L228.6,180.1z M228,175.8c-0.3,0-0.6,0.1-0.9,0.4
			c-0.3,0.2-0.6,0.7-0.8,1.2s-0.4,1.2-0.4,1.8c0,0.5,0.1,0.8,0.3,1.1s0.5,0.3,0.8,0.3c0.3,0,0.6-0.1,0.9-0.3
			c0.3-0.2,0.6-0.7,0.8-1.4c0.3-0.7,0.4-1.3,0.4-1.8c0-0.4-0.1-0.7-0.4-0.9S228.3,175.8,228,175.8z"/>
		<path class="st3" d="M234.3,175.5h1.2l-0.1,0.5h-1.2l-1.2,4.4c-0.3,1-0.5,1.9-0.8,2.5c-0.2,0.1-0.4,0.1-0.7,0.2
			c-0.3,0.1-0.4,0.2-0.5,0.2c-0.1,0-0.1,0-0.1-0.1c0,0,0.1-0.2,0.2-0.4c0.3-0.7,0.5-1.2,0.7-1.7s0.4-1.1,0.6-2l0.8-3.2h-1l0.1-0.5h1
			c0.2-0.8,0.5-1.4,0.8-2c0.3-0.6,0.6-0.9,0.9-1.1s0.5-0.3,0.8-0.3c0.2,0,0.4,0.1,0.6,0.2s0.2,0.3,0.2,0.5c0,0.2,0,0.3-0.1,0.5
			c-0.1,0.1-0.2,0.2-0.4,0.2c-0.1,0-0.2,0-0.3-0.1s-0.1-0.2-0.2-0.4c0-0.2-0.1-0.3-0.2-0.3c-0.1,0-0.3,0.1-0.4,0.3
			C234.9,173.4,234.6,174.3,234.3,175.5z"/>
		<path class="st3" d="M237.8,173.6h1l-0.5,1.9h1.1l-0.1,0.5h-1l-1,3.6c-0.1,0.2-0.1,0.4-0.1,0.5c0,0.1,0,0.3,0.1,0.3
			c0.1,0.1,0.1,0.1,0.2,0.1c0.4,0,0.9-0.5,1.5-1.5l0.3,0.2c-0.7,1.3-1.4,1.9-2.1,1.9c-0.3,0-0.5-0.1-0.7-0.3
			c-0.2-0.2-0.2-0.4-0.2-0.7c0-0.2,0-0.5,0.1-0.8l0.9-3.5h-1l0.1-0.5h1L237.8,173.6z"/>
	</g>
	<line class="st8" x1="168.7" y1="166.1" x2="168.7" y2="103.7"/>
	<line class="st8" x1="231.9" y1="85.9" x2="231.9" y2="48.7"/>
</g>
<g id="Labels">
	<g>
		<rect y="-31.5" class="st2" width="283.2" height="31.8"/>
	</g>
</g>
</svg>
