<?xml version="1.0" encoding="utf-8"?>
<!-- Generator: Adobe Illustrator 23.0.2, SVG Export Plug-In . SVG Version: 6.00 Build 0)  -->
<svg version="1.1" xmlns="http://www.w3.org/2000/svg" xmlns:xlink="http://www.w3.org/1999/xlink" x="0px" y="0px"
	 viewBox="0 0 283.5 283.5" style="enable-background:new 0 0 283.5 283.5;" xml:space="preserve">
<style type="text/css">
	.st0{fill:#00303C;}
	.st1{fill:none;stroke:#FBF29D;stroke-width:2.8346;stroke-miterlimit:10;}
	.st2{fill:none;}
	.st3{fill:#FCF39C;}
	.st4{fill:none;stroke:#FBF29D;stroke-miterlimit:10;}
	.st5{fill:none;stroke:#FBF29D;stroke-miterlimit:10;stroke-dasharray:2.8433,5.6866;}
	.st6{fill:none;stroke:#FCF39C;stroke-width:2.8346;stroke-miterlimit:10;}
	.st7{fill:none;stroke:#FCF39C;stroke-width:1.4173;stroke-miterlimit:10;}
	.st8{fill:#FCF39C;stroke:#FCF39C;stroke-width:0.8504;stroke-miterlimit:10;}
	.st9{fill:#FFFFFF;}
</style>
<g id="BG">
	<rect x="0.3" y="0.3" class="st0" width="283.5" height="283.5"/>
</g>
<g id="Ebene_1">
	<path class="st6" d="M96.2,30.5C66.3,30.5,42,54.8,42,84.7c0,17.5,10.4,28.7,18.2,43c4.2,7.6,3,34.6,3,34.6
		c0,7.6,6.2,17.8,13.8,17.8c0,0,28.9-4.7,38.4-7c7.8-1.9,13.8-6.2,13.8-13.8c0,0-1.7-24.6,2-31.6c7.6-14.4,19.2-25.5,19.2-43
		C150.4,54.8,126.1,30.5,96.2,30.5z"/>
	<line class="st6" x1="75.6" y1="189.7" x2="117.4" y2="182.3"/>
	<line class="st6" x1="75.6" y1="198" x2="117.4" y2="190.7"/>
	<line class="st6" x1="75.3" y1="206.4" x2="117.1" y2="199.1"/>
	<line class="st6" x1="75.3" y1="214.8" x2="117.1" y2="207.4"/>
	<line class="st6" x1="87.4" y1="222.3" x2="107.9" y2="218.7"/>
	<g>
		<path class="st3" d="M106.7,167l-18.2,3.7v-50.3h18.2V167z M90.7,167.1l13.8-2.8V123H90.7V167.1z"/>
	</g>
	<path class="st7" d="M89.5,114.3c-0.4-4.8,0.1-9.6,0.2-14.4c0.1-4.8-0.3-9.8-2.5-14.1c-2.2-4.3-6.5-7.7-11.3-7.7
		c-1.2,0-2.5,0.3-3.4,1.2c-1.2,1.4-0.8,3.7,0.5,5c1.3,1.3,3.2,1.8,5,2c5.9,0.8,12.2-0.8,16.5-4.8s6.2-10.8,3.8-16.3
		c-0.8-1.8-2.5-3.7-4.5-3.2c-1.1,0.3-2,1.3-2.3,2.4c-0.3,1.1-0.1,2.3,0.3,3.4c1.2,3.5,4.4,6,7.9,7.3c3.5,1.2,7.3,1.3,10.9,1
		c1.8-0.1,3.6-0.4,5.2-1.2c1.6-0.8,3-2.2,3.3-4c0.4-2.4-1.4-4.8-3.8-5.4c-2.3-0.6-4.9,0.4-6.5,2.3c-2.1,2.5-2.4,6.3-1.2,9.3
		c1.2,3,3.8,5.4,6.8,6.8c2.9,1.4,6.2,2.1,9.5,2.4c2.2,0.2,4.7,0.3,6.5-1c0.8-0.5,1.4-1.7,0.8-2.4c-0.3-0.3-0.7-0.5-1.2-0.6
		c-3-0.7-6.1-1.4-9.2-1.4c-3.1,0-6.3,0.7-8.9,2.4c-3.7,2.4-5.8,6.6-6.6,10.9c-0.8,4.3-0.5,8.7-0.2,13.1c0.2,2.1,0.3,4.1,0.5,6.2"/>
	<g>
		<path class="st3" d="M208.2,40h3.7l-0.1,0.4h-0.6c-0.4,0-0.6,0.1-0.7,0.4l-1,3.8l4-3.3c0.2-0.2,0.3-0.3,0.3-0.5
			c0-0.1-0.1-0.2-0.2-0.3s-0.3-0.1-0.5-0.1h-0.3l0.1-0.4h3.5l-0.1,0.4c-0.4,0-0.7,0-0.9,0.1s-0.5,0.3-0.9,0.6l-2.9,2.4l2,4.3
			c0.1,0.3,0.5,0.4,1,0.4h0.5l-0.1,0.4H211l0.1-0.4h0.5c0.3,0,0.4,0,0.5-0.1s0.1-0.1,0.1-0.2c0-0.1,0-0.2-0.1-0.3l-1.6-3.3l-1.4,1.1
			l-0.6,2.3c0,0,0,0.1,0,0.1c0,0.1,0,0.2,0.1,0.2c0.1,0.1,0.2,0.1,0.4,0.1h0.9l-0.1,0.4h-3.8l0.1-0.4h0.5c0.4,0,0.6-0.1,0.7-0.4
			l1.8-6.9c0,0,0-0.1,0-0.1c0-0.1,0-0.2-0.1-0.2s-0.3-0.1-0.5-0.1h-0.6L208.2,40z"/>
		<path class="st3" d="M218.6,43c0.6,0,1.1,0.2,1.5,0.7s0.6,1,0.6,1.7c0,0.6-0.1,1.2-0.4,1.7s-0.7,1-1.2,1.3s-1,0.4-1.5,0.4
			c-0.6,0-1.1-0.2-1.5-0.7s-0.6-1-0.6-1.7c0-0.6,0.2-1.1,0.5-1.7s0.7-1,1.2-1.3S218.1,43,218.6,43z M218.6,43.4
			c-0.3,0-0.6,0.1-0.9,0.4s-0.6,0.7-0.8,1.3s-0.4,1.2-0.4,1.9c0,0.5,0.1,0.8,0.3,1.1s0.5,0.4,0.8,0.4c0.3,0,0.6-0.1,0.9-0.4
			s0.6-0.7,0.8-1.3s0.4-1.3,0.4-1.9c0-0.5-0.1-0.8-0.3-1.1S219,43.4,218.6,43.4z"/>
		<path class="st3" d="M222.8,40l2.2-0.1l-2,7.5c-0.1,0.3-0.1,0.4-0.1,0.6c0,0.1,0,0.2,0.1,0.2c0,0.1,0.1,0.1,0.2,0.1
			c0.3,0,0.8-0.5,1.4-1.5l0.3,0.2c-0.7,1.3-1.3,1.9-2,1.9c-0.2,0-0.4-0.1-0.6-0.2S222,48.2,222,48c0-0.2,0.1-0.5,0.2-0.9l1.6-6.1
			c0-0.1,0-0.1,0-0.2c0-0.1,0-0.2-0.1-0.2c-0.1-0.1-0.3-0.1-0.5-0.1h-0.4L222.8,40z"/>
		<path class="st3" d="M228.8,39.9l-1.1,4.1c0.6-0.6,1.2-1,1.8-1c0.5,0,0.9,0.2,1.2,0.5c0.3,0.4,0.5,0.8,0.5,1.4
			c0,0.7-0.2,1.3-0.5,1.9s-0.7,1.1-1.2,1.4s-1,0.5-1.6,0.5c-0.6,0-1-0.2-1.3-0.5c-0.3-0.3-0.5-0.8-0.5-1.3c0-0.3,0-0.6,0.1-0.9
			l1.4-5.2c0,0,0-0.1,0-0.1c0-0.1-0.1-0.2-0.2-0.3c-0.1-0.1-0.4-0.1-0.7-0.1l0.1-0.4L228.8,39.9z M229.2,43.6
			c-0.3,0-0.6,0.1-0.8,0.4c-0.3,0.3-0.7,0.8-0.9,1.4c-0.3,0.6-0.4,1.3-0.4,1.8c0,0.4,0.1,0.8,0.3,1c0.2,0.2,0.4,0.3,0.7,0.3
			c0.3,0,0.6-0.1,0.9-0.4c0.3-0.3,0.6-0.7,0.8-1.3c0.3-0.6,0.4-1.2,0.4-1.8c0-0.5-0.1-0.8-0.3-1S229.5,43.6,229.2,43.6z"/>
		<path class="st3" d="M233.3,46.6c0,0.2,0,0.3,0,0.5c0,0.4,0.1,0.8,0.3,1s0.5,0.3,0.9,0.3c0.3,0,0.6-0.1,0.8-0.2s0.6-0.4,1-0.9
			l0.3,0.2c-0.7,0.9-1.5,1.4-2.3,1.4c-0.6,0-1-0.2-1.4-0.6s-0.6-1-0.6-1.6c0-0.6,0.2-1.1,0.5-1.7s0.8-1,1.3-1.4s1-0.5,1.5-0.5
			c0.4,0,0.7,0.1,1,0.3s0.4,0.5,0.4,0.9c0,0.3-0.1,0.6-0.3,0.9s-0.5,0.5-1,0.8S234.4,46.3,233.3,46.6z M233.4,46.2
			c0.7-0.2,1.3-0.3,1.6-0.5c0.3-0.2,0.6-0.4,0.7-0.7s0.2-0.5,0.2-0.8c0-0.2-0.1-0.4-0.2-0.5s-0.3-0.2-0.5-0.2
			c-0.4,0-0.7,0.2-1.1,0.6S233.6,45.2,233.4,46.2z"/>
		<path class="st3" d="M240.1,43.1l-0.5,1.9c0.9-1.3,1.7-1.9,2.4-1.9c0.3,0,0.5,0.1,0.7,0.3c0.2,0.2,0.3,0.5,0.3,0.8
			c0,0.3-0.1,0.6-0.2,1l-0.5,2l-0.1,0.5c0,0.1,0,0.2,0,0.3c0,0.1,0,0.2,0.1,0.2c0,0.1,0.1,0.1,0.2,0.1c0.2,0,0.4-0.1,0.7-0.4
			c0.3-0.3,0.5-0.6,0.7-1.2l0.4,0.1c-0.3,0.6-0.6,1.1-1,1.5s-0.8,0.5-1.1,0.5c-0.2,0-0.4-0.1-0.6-0.3s-0.2-0.4-0.2-0.7
			c0-0.2,0-0.5,0.1-0.7L242,45c0.1-0.2,0.1-0.5,0.1-0.7c0-0.2,0-0.3-0.1-0.4s-0.2-0.2-0.3-0.2c-0.3,0-0.7,0.3-1.2,0.9
			c-0.6,0.6-1,1.4-1.3,2.4l-0.4,1.8l-1,0l1.2-4.6c0-0.1,0-0.1,0-0.2c0-0.1,0-0.2-0.1-0.3c-0.1-0.1-0.2-0.1-0.4-0.1H238l0.1-0.4
			L240.1,43.1z"/>
	</g>
	<g>
		<path class="st3" d="M211.5,85.5h7.2l-0.5,2.8h-0.4c0-0.3,0-0.5,0-0.6c0-0.6-0.1-1-0.4-1.3c-0.3-0.3-0.7-0.4-1.3-0.4h-1.5
			c-0.2,0-0.3,0-0.4,0.1c-0.1,0.1-0.1,0.2-0.2,0.3l-0.8,3.1h0.8c0.5,0,0.9-0.1,1.2-0.4c0.3-0.2,0.6-0.6,0.7-1.2h0.4l-1.1,4H215
			c0.1-0.3,0.1-0.6,0.1-0.8c0-0.4-0.1-0.7-0.3-0.9s-0.5-0.3-0.8-0.3h-0.9l-0.9,3.4c0,0,0,0.1,0,0.1c0,0.1,0,0.2,0.1,0.2
			c0.1,0.1,0.3,0.1,0.4,0.1h1l-0.1,0.4h-4l0.1-0.4h0.6c0.2,0,0.4,0,0.5-0.1s0.2-0.3,0.3-0.6l1.7-6.5c0-0.1,0-0.2,0-0.3
			c0-0.1,0-0.2-0.1-0.2s-0.2-0.1-0.5-0.1h-0.8L211.5,85.5z"/>
		<path class="st3" d="M221.8,93.3c-0.2,0.4-0.5,0.6-0.8,0.8s-0.6,0.3-0.9,0.3c-0.6,0-1.1-0.2-1.5-0.6s-0.6-1-0.6-1.6
			c0-0.6,0.2-1.2,0.5-1.7s0.7-1,1.2-1.3s1-0.5,1.4-0.5c0.4,0,0.7,0.1,1,0.3s0.5,0.5,0.6,0.9l0.3-1l0.9-0.1l-1.3,4.5
			c0,0.1-0.1,0.2-0.1,0.4c0,0.1,0,0.2,0.1,0.3s0.1,0.1,0.2,0.1c0.1,0,0.3-0.1,0.4-0.2c0.3-0.3,0.6-0.7,0.8-1.2l0.3,0.2
			c-0.6,1.3-1.2,1.9-1.9,1.9c-0.2,0-0.4-0.1-0.5-0.2s-0.2-0.4-0.2-0.6L221.8,93.3z M221.2,89c-0.3,0-0.6,0.1-0.9,0.4
			c-0.3,0.2-0.6,0.7-0.8,1.2s-0.4,1.2-0.4,1.8c0,0.5,0.1,0.8,0.3,1.1s0.5,0.3,0.8,0.3c0.3,0,0.6-0.1,0.9-0.3
			c0.3-0.2,0.6-0.7,0.8-1.4c0.3-0.7,0.4-1.3,0.4-1.8c0-0.4-0.1-0.7-0.4-0.9S221.5,89,221.2,89z"/>
		<path class="st3" d="M231.8,85.4l-2.1,7.5c-0.1,0.2-0.1,0.4-0.1,0.6c0,0.1,0,0.2,0.1,0.2s0.1,0.1,0.2,0.1c0.3,0,0.8-0.5,1.4-1.5
			l0.3,0.2c-0.4,0.7-0.7,1.2-1.1,1.5s-0.7,0.4-0.9,0.4c-0.3,0-0.4-0.1-0.6-0.3s-0.2-0.5-0.2-0.8c-0.5,0.7-1.1,1.1-1.8,1.1
			c-0.3,0-0.6-0.1-0.9-0.3c-0.3-0.2-0.5-0.4-0.7-0.7s-0.2-0.7-0.2-1.1c0-0.6,0.2-1.2,0.5-1.8c0.3-0.6,0.7-1.1,1.2-1.4
			c0.5-0.3,0.9-0.5,1.4-0.5c0.3,0,0.6,0.1,0.9,0.2c0.3,0.2,0.5,0.4,0.7,0.7l0.9-3.1c0,0,0-0.1,0-0.1c0-0.1,0-0.2-0.1-0.2
			c-0.1-0.1-0.2-0.1-0.4-0.1h-0.6l0.1-0.4L231.8,85.4z M228.3,89c-0.4,0-0.7,0.2-1,0.5c-0.3,0.3-0.6,0.9-0.9,1.6
			c-0.2,0.6-0.3,1-0.3,1.4c0,0.4,0.1,0.7,0.3,0.9c0.2,0.2,0.4,0.3,0.7,0.3c0.3,0,0.7-0.2,1-0.5c0.3-0.3,0.6-0.8,0.8-1.5
			c0.2-0.7,0.3-1.2,0.3-1.6c0-0.4-0.1-0.7-0.3-0.9S228.6,89,228.3,89z"/>
		<path class="st3" d="M233.3,92.1c0,0.2,0,0.3,0,0.5c0,0.4,0.1,0.8,0.3,1s0.5,0.3,0.9,0.3c0.3,0,0.6-0.1,0.8-0.2s0.6-0.4,1-0.9
			l0.3,0.2c-0.7,0.9-1.5,1.4-2.3,1.4c-0.6,0-1-0.2-1.4-0.6s-0.6-1-0.6-1.6c0-0.6,0.2-1.1,0.5-1.7s0.8-1,1.3-1.4s1-0.5,1.5-0.5
			c0.4,0,0.7,0.1,1,0.3s0.4,0.5,0.4,0.9c0,0.3-0.1,0.6-0.3,0.9s-0.5,0.5-1,0.8S234.4,91.8,233.3,92.1z M233.4,91.7
			c0.7-0.2,1.3-0.3,1.6-0.5c0.3-0.2,0.6-0.4,0.7-0.7c0.2-0.3,0.2-0.5,0.2-0.8c0-0.2-0.1-0.4-0.2-0.5c-0.1-0.1-0.3-0.2-0.5-0.2
			c-0.4,0-0.7,0.2-1.1,0.6S233.6,90.7,233.4,91.7z"/>
		<path class="st3" d="M240.1,88.6l-0.5,1.9c0.9-1.3,1.7-1.9,2.4-1.9c0.3,0,0.5,0.1,0.7,0.3c0.2,0.2,0.3,0.5,0.3,0.8
			c0,0.3-0.1,0.6-0.2,1l-0.5,2l-0.1,0.5c0,0.1,0,0.2,0,0.3c0,0.1,0,0.2,0.1,0.2c0,0.1,0.1,0.1,0.2,0.1c0.2,0,0.4-0.1,0.7-0.4
			c0.3-0.3,0.5-0.6,0.7-1.2l0.4,0.1c-0.3,0.6-0.6,1.1-1,1.5s-0.8,0.5-1.1,0.5c-0.2,0-0.4-0.1-0.6-0.3s-0.2-0.4-0.2-0.7
			c0-0.2,0-0.5,0.1-0.7l0.6-2.1c0.1-0.2,0.1-0.5,0.1-0.7c0-0.2,0-0.3-0.1-0.4s-0.2-0.2-0.3-0.2c-0.3,0-0.7,0.3-1.2,0.9
			c-0.6,0.6-1,1.4-1.3,2.4l-0.4,1.8l-1,0l1.2-4.6c0-0.1,0-0.1,0-0.2c0-0.1,0-0.2-0.1-0.3c-0.1-0.1-0.2-0.1-0.4-0.1H238l0.1-0.4
			L240.1,88.6z"/>
	</g>
	<g>
		<path class="st3" d="M216.3,140.9c0.1-0.1,0.4-0.3,0.6-0.5h0.4l-0.6,3h-0.4c0-0.6-0.1-1-0.2-1.4c-0.2-0.5-0.4-0.9-0.8-1.1
			s-0.8-0.4-1.3-0.4c-0.6,0-1,0.2-1.4,0.5s-0.5,0.7-0.5,1.2c0,0.2,0,0.5,0.1,0.6s0.2,0.3,0.4,0.5s0.5,0.3,1.1,0.5
			c0.8,0.3,1.3,0.5,1.5,0.6c0.4,0.2,0.7,0.5,0.9,0.8s0.3,0.7,0.3,1.2c0,0.5-0.1,1-0.4,1.4s-0.6,0.8-1.2,1s-1.1,0.4-1.7,0.4
			c-0.5,0-0.9-0.1-1.3-0.2s-0.8-0.4-1.2-0.7l-0.7,0.6h-0.4l0.6-3.1h0.4c0,0.8,0.1,1.3,0.3,1.7s0.5,0.7,0.9,1s0.8,0.4,1.3,0.4
			c0.6,0,1.1-0.2,1.6-0.5s0.6-0.8,0.6-1.3c0-0.2-0.1-0.5-0.2-0.7s-0.3-0.4-0.5-0.5c-0.2-0.1-0.6-0.3-1.2-0.5
			c-0.8-0.3-1.3-0.5-1.6-0.7s-0.5-0.4-0.6-0.7s-0.2-0.6-0.2-1c0-0.7,0.3-1.3,0.8-1.9s1.2-0.8,2-0.8
			C214.8,140,215.6,140.3,216.3,140.9z"/>
		<path class="st3" d="M220.6,143.2c0.6,0,1.1,0.2,1.5,0.7s0.6,1,0.6,1.7c0,0.6-0.1,1.2-0.4,1.7s-0.7,1-1.2,1.3s-1,0.4-1.5,0.4
			c-0.6,0-1.1-0.2-1.5-0.7s-0.6-1-0.6-1.7c0-0.6,0.2-1.1,0.5-1.7s0.7-1,1.2-1.3S220.1,143.2,220.6,143.2z M220.6,143.6
			c-0.3,0-0.6,0.1-0.9,0.4s-0.6,0.7-0.8,1.3s-0.4,1.2-0.4,1.9c0,0.5,0.1,0.8,0.3,1.1s0.5,0.4,0.8,0.4c0.3,0,0.6-0.1,0.9-0.4
			s0.6-0.7,0.8-1.3s0.4-1.3,0.4-1.9c0-0.5-0.1-0.8-0.3-1.1S221,143.6,220.6,143.6z"/>
		<path class="st3" d="M227.6,147.4l0.3,0.2c-0.4,0.5-0.8,0.9-1.1,1.1s-0.8,0.3-1.2,0.3c-0.6,0-1-0.2-1.4-0.6s-0.6-0.9-0.6-1.6
			c0-0.6,0.2-1.2,0.5-1.8s0.7-1,1.2-1.4s1-0.5,1.5-0.5c0.4,0,0.8,0.1,1,0.3s0.4,0.5,0.4,0.9c0,0.3-0.1,0.5-0.2,0.6s-0.3,0.2-0.5,0.2
			c-0.2,0-0.3-0.1-0.4-0.2s-0.2-0.2-0.2-0.4c0-0.3,0.1-0.4,0.4-0.5c0.1,0,0.2-0.1,0.2-0.2s-0.1-0.2-0.2-0.3s-0.3-0.1-0.5-0.1
			c-0.3,0-0.7,0.1-1,0.4s-0.6,0.7-0.9,1.2s-0.4,1.1-0.4,1.8c0,0.5,0.1,0.9,0.3,1.2s0.5,0.4,0.9,0.4
			C226.5,148.5,227.1,148.2,227.6,147.4z"/>
		<path class="st3" d="M232.1,140.1l-1.3,5.1c0.5-0.8,1-1.3,1.4-1.6c0.4-0.3,0.8-0.4,1.2-0.4c0.4,0,0.7,0.1,0.9,0.3
			c0.2,0.2,0.3,0.4,0.3,0.7c0,0.4-0.2,0.7-0.6,1.1c-0.4,0.4-1,0.7-1.9,0.9c0.3,0.1,0.4,0.3,0.6,0.5c0.1,0.1,0.2,0.5,0.2,1
			c0,0.3,0.1,0.4,0.1,0.5c0,0.1,0.1,0.2,0.2,0.2c0.3,0,0.7-0.4,1.3-1.3l0.3,0.2c-0.7,1.2-1.3,1.7-1.9,1.7c-0.3,0-0.5-0.1-0.6-0.3
			c-0.2-0.2-0.2-0.5-0.2-0.9v-1c0-0.2-0.1-0.4-0.2-0.5c-0.2,0-0.3,0.1-0.4,0.1c-0.1,0-0.2,0-0.3-0.1s-0.1-0.1-0.1-0.2
			c0-0.1,0-0.1,0.1-0.2s0.1-0.1,0.2-0.1c0,0,0.1,0,0.2,0c0.1,0,0.2,0,0.3,0c0.5,0,0.9-0.2,1.3-0.5s0.6-0.7,0.6-1
			c0-0.2-0.1-0.4-0.2-0.5c-0.1-0.1-0.3-0.2-0.5-0.2c-0.3,0-0.6,0.1-1,0.4s-0.8,0.7-1.2,1.4c-0.3,0.5-0.5,1-0.7,1.6l-0.5,1.7l-1,0.1
			l2.1-7.8c0-0.1,0-0.1,0-0.2c0-0.1,0-0.2-0.1-0.3s-0.3-0.1-0.5-0.1h-0.4l0.1-0.4L232.1,140.1z"/>
		<path class="st3" d="M236.7,146.7c0,0.2,0,0.3,0,0.5c0,0.4,0.1,0.8,0.3,1s0.5,0.3,0.9,0.3c0.3,0,0.6-0.1,0.8-0.2s0.6-0.4,1-0.9
			l0.3,0.2c-0.7,0.9-1.5,1.4-2.3,1.4c-0.6,0-1-0.2-1.4-0.6s-0.6-1-0.6-1.6c0-0.6,0.2-1.1,0.5-1.7s0.8-1,1.3-1.4s1-0.5,1.5-0.5
			c0.4,0,0.7,0.1,1,0.3s0.4,0.5,0.4,0.9c0,0.3-0.1,0.6-0.3,0.9s-0.5,0.5-1,0.8S237.7,146.5,236.7,146.7z M236.7,146.3
			c0.7-0.2,1.3-0.3,1.6-0.5c0.3-0.2,0.6-0.4,0.7-0.7c0.2-0.3,0.2-0.5,0.2-0.8c0-0.2-0.1-0.4-0.2-0.5c-0.1-0.1-0.3-0.2-0.5-0.2
			c-0.4,0-0.7,0.2-1.1,0.6S236.9,145.4,236.7,146.3z"/>
		<path class="st3" d="M242.1,140.2l2.2-0.1l-2,7.5c-0.1,0.3-0.1,0.4-0.1,0.6c0,0.1,0,0.2,0.1,0.2s0.1,0.1,0.2,0.1
			c0.3,0,0.8-0.5,1.4-1.5l0.3,0.2c-0.7,1.3-1.3,1.9-2,1.9c-0.2,0-0.4-0.1-0.6-0.2s-0.2-0.4-0.2-0.7c0-0.2,0.1-0.5,0.2-0.9l1.6-6.1
			c0-0.1,0-0.1,0-0.2c0-0.1,0-0.2-0.1-0.2c-0.1-0.1-0.3-0.1-0.5-0.1H242L242.1,140.2z"/>
	</g>
	<g>
		<path class="st3" d="M204.7,190.1l0.5-0.6h0.4l-0.5,3.1h-0.4c0-1-0.2-1.7-0.7-2.2s-1-0.8-1.6-0.8c-0.6,0-1.2,0.3-1.8,0.8
			s-1,1.3-1.4,2.4c-0.3,0.9-0.4,1.8-0.4,2.5c0,0.8,0.2,1.4,0.6,1.9s0.9,0.6,1.5,0.6c0.4,0,0.7-0.1,1-0.2s0.5-0.3,0.7-0.6
			s0.4-0.5,0.4-0.7l0.3-1.2l0.1-0.2l0-0.1c0-0.1,0-0.2-0.1-0.2s-0.2-0.1-0.4-0.1h-0.6l0.1-0.4h3.2l0,0.4h-0.3
			c-0.3,0-0.5,0.1-0.6,0.4l-0.8,3.2h-0.4l-0.1-1c-0.4,0.4-0.9,0.7-1.3,0.9s-0.9,0.3-1.4,0.3c-0.9,0-1.7-0.3-2.3-0.9
			s-0.9-1.5-0.9-2.5c0-0.9,0.3-1.9,0.8-2.8s1.1-1.6,1.9-2.1s1.6-0.8,2.4-0.8c0.4,0,0.8,0.1,1.1,0.2S204.3,189.7,204.7,190.1z"/>
		<path class="st3" d="M207.3,195.9c0,0.2,0,0.3,0,0.5c0,0.4,0.1,0.8,0.3,1s0.5,0.3,0.9,0.3c0.3,0,0.6-0.1,0.8-0.2s0.6-0.4,1-0.9
			l0.3,0.2c-0.7,0.9-1.5,1.4-2.3,1.4c-0.6,0-1-0.2-1.4-0.6s-0.6-1-0.6-1.6c0-0.6,0.2-1.1,0.5-1.7s0.8-1,1.3-1.4s1-0.5,1.5-0.5
			c0.4,0,0.7,0.1,1,0.3s0.4,0.5,0.4,0.9c0,0.3-0.1,0.6-0.3,0.9s-0.5,0.5-1,0.8S208.4,195.6,207.3,195.9z M207.4,195.5
			c0.7-0.2,1.3-0.3,1.6-0.5s0.6-0.4,0.7-0.7c0.2-0.3,0.2-0.5,0.2-0.8c0-0.2-0.1-0.4-0.2-0.5c-0.1-0.1-0.3-0.2-0.5-0.2
			c-0.4,0-0.7,0.2-1.1,0.6S207.6,194.5,207.4,195.5z"/>
		<path class="st3" d="M215.6,196.5c-0.4,0.6-0.8,1.1-1.2,1.3c-0.4,0.3-0.8,0.4-1.2,0.4c-0.3,0-0.6-0.1-0.8-0.3s-0.3-0.5-0.3-0.8
			c0-0.2,0-0.4,0.1-0.8l0.1-0.2l0.7-2.5c0,0,0-0.1,0-0.1c0-0.1-0.1-0.2-0.2-0.3c-0.1-0.1-0.3-0.1-0.6-0.1H212l0.1-0.4l1.9-0.1
			l-1,3.9c-0.1,0.2-0.1,0.4-0.1,0.7c0,0.2,0.1,0.4,0.2,0.5s0.3,0.2,0.4,0.2c0.4,0,0.8-0.2,1.2-0.7c0.5-0.6,1-1.5,1.3-2.7l0.5-1.7
			h0.9l-0.8,2.8c0,0.2-0.1,0.4-0.2,0.8l0,0.2c0,0.1,0,0.2,0,0.3c0,0.4,0.1,0.6,0.2,0.8c0.1,0.2,0.3,0.2,0.5,0.2
			c0.3,0,0.6-0.1,0.9-0.4s0.6-0.7,0.9-1.4c0.3-0.6,0.4-1.2,0.4-1.7c0-0.1,0-0.3-0.1-0.4s-0.1-0.2-0.3-0.4c-0.1-0.2-0.2-0.3-0.3-0.4
			s0-0.1,0-0.2c0-0.1,0.1-0.2,0.2-0.4s0.2-0.2,0.3-0.2c0.2,0,0.3,0.1,0.4,0.3s0.2,0.5,0.2,0.8c0,0.6-0.1,1.3-0.4,2.1
			c-0.3,0.9-0.7,1.6-1.2,2s-1,0.7-1.5,0.7c-0.3,0-0.5-0.1-0.7-0.2s-0.3-0.3-0.4-0.5S215.6,197,215.6,196.5z"/>
		<path class="st3" d="M223.4,192.4l-1.2,4.6c0,0.1-0.1,0.2-0.1,0.3c0,0.1,0,0.2,0.1,0.2c0,0.1,0.1,0.1,0.2,0.1
			c0.1,0,0.3-0.1,0.5-0.3c0.3-0.3,0.6-0.7,0.9-1.3l0.3,0.2c-0.3,0.6-0.6,1.1-1,1.4s-0.8,0.5-1.1,0.5c-0.2,0-0.4-0.1-0.5-0.2
			c-0.2-0.2-0.2-0.4-0.2-0.7c0-0.3,0-0.5,0.1-0.8l0.8-3c0-0.1,0-0.1,0-0.1c0-0.1,0-0.2-0.1-0.2c-0.1-0.1-0.3-0.1-0.5-0.1h-0.4
			l0.1-0.4L223.4,192.4z M223.4,189.4c0.2,0,0.3,0.1,0.5,0.2s0.2,0.3,0.2,0.5c0,0.2-0.1,0.3-0.2,0.5s-0.3,0.2-0.4,0.2
			c-0.2,0-0.3-0.1-0.5-0.2s-0.2-0.3-0.2-0.5c0-0.2,0.1-0.3,0.2-0.5S223.3,189.4,223.4,189.4z"/>
		<path class="st3" d="M227.5,192.4l-0.5,1.9c0.9-1.3,1.7-1.9,2.4-1.9c0.3,0,0.5,0.1,0.7,0.3c0.2,0.2,0.3,0.5,0.3,0.8
			c0,0.3-0.1,0.6-0.2,1l-0.5,2l-0.1,0.5c0,0.1,0,0.2,0,0.3c0,0.1,0,0.2,0.1,0.2c0,0.1,0.1,0.1,0.2,0.1c0.2,0,0.4-0.1,0.7-0.4
			c0.3-0.3,0.5-0.6,0.7-1.2l0.4,0.1c-0.3,0.6-0.6,1.1-1,1.5s-0.8,0.5-1.1,0.5c-0.2,0-0.4-0.1-0.6-0.3s-0.2-0.4-0.2-0.7
			c0-0.2,0-0.5,0.1-0.7l0.6-2.1c0.1-0.2,0.1-0.5,0.1-0.7c0-0.2,0-0.3-0.1-0.4s-0.2-0.2-0.3-0.2c-0.3,0-0.7,0.3-1.2,0.9
			c-0.6,0.6-1,1.4-1.3,2.4l-0.4,1.8l-1,0l1.2-4.6c0-0.1,0-0.1,0-0.2c0-0.1,0-0.2-0.1-0.3c-0.1-0.1-0.2-0.1-0.4-0.1h-0.5l0.1-0.4
			L227.5,192.4z"/>
		<path class="st3" d="M239.1,189.2l-2.1,7.5c-0.1,0.2-0.1,0.4-0.1,0.6c0,0.1,0,0.2,0.1,0.2s0.1,0.1,0.2,0.1c0.3,0,0.8-0.5,1.4-1.5
			l0.3,0.2c-0.4,0.7-0.7,1.2-1.1,1.5s-0.7,0.4-0.9,0.4c-0.3,0-0.4-0.1-0.6-0.3s-0.2-0.5-0.2-0.8c-0.5,0.7-1.1,1.1-1.8,1.1
			c-0.3,0-0.6-0.1-0.9-0.3c-0.3-0.2-0.5-0.4-0.7-0.7s-0.2-0.7-0.2-1.1c0-0.6,0.2-1.2,0.5-1.8c0.3-0.6,0.7-1.1,1.2-1.4
			c0.5-0.3,0.9-0.5,1.4-0.5c0.3,0,0.6,0.1,0.9,0.2c0.3,0.2,0.5,0.4,0.7,0.7l0.9-3.1c0,0,0-0.1,0-0.1c0-0.1,0-0.2-0.1-0.2
			c-0.1-0.1-0.2-0.1-0.4-0.1h-0.6l0.1-0.4L239.1,189.2z M235.6,192.9c-0.4,0-0.7,0.2-1,0.5c-0.3,0.3-0.6,0.9-0.9,1.6
			c-0.2,0.6-0.3,1-0.3,1.4c0,0.4,0.1,0.7,0.3,0.9c0.2,0.2,0.4,0.3,0.7,0.3c0.3,0,0.7-0.2,1-0.5c0.3-0.3,0.6-0.8,0.8-1.5
			s0.3-1.2,0.3-1.6c0-0.4-0.1-0.7-0.3-0.9S235.9,192.9,235.6,192.9z"/>
		<path class="st3" d="M240.6,195.9c0,0.2,0,0.3,0,0.5c0,0.4,0.1,0.8,0.3,1s0.5,0.3,0.9,0.3c0.3,0,0.6-0.1,0.8-0.2s0.6-0.4,1-0.9
			l0.3,0.2c-0.7,0.9-1.5,1.4-2.3,1.4c-0.6,0-1-0.2-1.4-0.6s-0.6-1-0.6-1.6c0-0.6,0.2-1.1,0.5-1.7s0.8-1,1.3-1.4s1-0.5,1.5-0.5
			c0.4,0,0.7,0.1,1,0.3s0.4,0.5,0.4,0.9c0,0.3-0.1,0.6-0.3,0.9s-0.5,0.5-1,0.8S241.7,195.6,240.6,195.9z M240.7,195.5
			c0.7-0.2,1.3-0.3,1.6-0.5s0.6-0.4,0.7-0.7c0.2-0.3,0.2-0.5,0.2-0.8c0-0.2-0.1-0.4-0.2-0.5c-0.1-0.1-0.3-0.2-0.5-0.2
			c-0.4,0-0.7,0.2-1.1,0.6S240.9,194.5,240.7,195.5z"/>
	</g>
	<line class="st8" x1="122.7" y1="194.8" x2="192" y2="194.8"/>
	<line class="st8" x1="99.4" y1="145.8" x2="204.2" y2="145.8"/>
	<line class="st8" x1="138.8" y1="45.5" x2="204.1" y2="45.5"/>
	<line class="st8" x1="109.3" y1="91" x2="206.1" y2="91"/>
</g>
<g id="Labels">
</g>
</svg>
