<?xml version="1.0" encoding="utf-8"?>
<!-- Generator: Adobe Illustrator 23.0.2, SVG Export Plug-In . SVG Version: 6.00 Build 0)  -->
<svg version="1.1" xmlns="http://www.w3.org/2000/svg" xmlns:xlink="http://www.w3.org/1999/xlink" x="0px" y="0px"
	 viewBox="0 0 283.5 283.5" style="enable-background:new 0 0 283.5 283.5;" xml:space="preserve">
<style type="text/css">
	.st0{fill:#00303C;}
	.st1{fill:none;stroke:#FBF29D;stroke-width:2.8346;stroke-miterlimit:10;}
	.st2{fill:none;}
	.st3{fill:#FCF39C;}
	.st4{fill:none;stroke:#FBF29D;stroke-miterlimit:10;}
	.st5{fill:none;stroke:#FBF29D;stroke-miterlimit:10;stroke-dasharray:2.8433,5.6866;}
	.st6{fill:none;stroke:#FCF39C;stroke-width:2.8346;stroke-miterlimit:10;}
	.st7{fill:none;stroke:#FCF39C;stroke-width:1.4173;stroke-miterlimit:10;}
	.st8{fill:#FCF39C;stroke:#FCF39C;stroke-width:0.8504;stroke-miterlimit:10;}
	.st9{fill:#FFFFFF;}
</style>
<g id="BG">
	<rect y="0" class="st0" width="283.5" height="283.5"/>
</g>
<g id="Ebene_1">
	<path id="DEU1600" class="st7" d="M210.1,160.7l-1-0.3l-1.2-1.2l-0.4-0.3l-0.4-0.2l-0.4,0.2l-0.3,0.2l-0.4,0.4l-0.7,0.2l-0.8-1
		l-1.2-0.6l-0.7-0.1l-0.9-0.3l-0.7-0.5l-0.6-1.3l-1.6,0.2l-0.5,0.8l-2.9,2.4l-1.1,0.5l-1.6-0.7l-2.1-0.3l-0.8,0.5l-0.6,1l-0.4,0.9
		l-0.4,0.5l-0.8,0.6l-0.4,0.1l-0.3-0.1l-0.3-0.4l-0.3-0.1l-5.3,0.9l-0.7-0.5l-4-0.3l-0.4,0.1L176,162l-0.2,1.7l-0.1,0.4l-0.2,0.4
		l-0.3,0.1l-4.1,0.5l-2.8,1.4l-0.5,0.1l-1.7-0.2l-0.9-0.4l-0.5-0.3l-0.4-0.2l-0.2,0.2l-0.1,0.2l-0.2,0.8L164,167l-0.2,0.2l-1.5,1.2
		v4.2l-0.3,1l-0.4,0.3l-0.2,0.2l-0.3,0.6l-0.2,0.2l-0.6,0.5l-0.3,0.3l-0.1,0.3l0.1,0.6v1l0.1,0.3l0.2,0.4l0.3,0.7l0.2,2L161,182
		l0.2,0.7l0.3,0.5l0.4,1l0.1,0.7l-0.1,0.6l-0.1,0.5l-0.2,0.6l-0.2,0.2l-0.4,0.2l-0.8,0.1L160,187l-0.4,0.4l-0.5,1l-0.2,0.5l-0.1,0.5
		l0.1,0.6l0.2,0.4l0.2,0.7l0.1,1.8l1.1,1.5l0.2,0.9l0.2,2.6l-0.1,0.3l-0.2,0.5l-0.1,0.2l-0.2,0.4l-0.4,0.4l0.1,0.7l0.5,0.3l1.2,0.3
		l-0.3,2.4l0.5,1.1l1,0.9l0.3,0.3l0.1,0.4v0.4l0.2,0.7l0.2,0.3l0.3,0.2l2.3,0.5l0.1,0.7l-0.1,0.2l-0.9,1.5l-0.3,1.3v0.6l0.1,0.3
		l0.9,0.4l0.3,0.2l0.3,0.3l0.3,0.6v0.4v0.3l-1.3,2.4l-0.4,0.5l-1.6,1.9l-0.1,0.8l0.2,0.7l-1,0.9l-0.5-0.1l-0.4-0.8l-0.4-0.3l-1-1
		l-0.3-0.1h-0.3l-0.5,0.4l-0.5,0.3l-0.3,0.1h-0.3l-2.9-1h-0.5l-0.2,0.1l-1,0.3l-1.9,0.2h-0.4l-0.2-0.2l-0.1-0.8l-1.8-1l-0.2-0.2
		l-0.3-0.4l-0.1-0.4l-0.3-0.6l-0.3-0.4l-0.5-0.4l-2.7-1.3l-1.2-0.9l-0.7-0.1l-0.5,0.1l-4.5,0.3l-0.7,0.6l-0.4-0.2l-0.4-0.3l-0.3-0.3
		l-0.2-0.4l-0.2-0.8l-0.1-0.3l-0.4-0.6l-0.3-0.4l-0.2-0.6l-0.5-0.9l-0.1-0.9v-0.8l-0.2-0.4l-0.2-0.3l-0.9-0.6l-0.4-0.2l-0.3-0.1
		l-1.1,0.3l-0.5,0.2l-0.4,0.1l-1.1-0.2l-1.5,0.1l-2.5-0.4l-0.3,0.1l-0.4,0.2l-0.5,0.4l-0.4,0.3l-0.2,0.1l-3-0.2l-0.3-0.1l-0.6-0.3
		l-0.3-0.3l-0.3-0.5l-0.2-0.6l-0.2-1l0.2-0.3l0.4-0.2l0.1-0.2v-0.4v-0.5l-0.1-0.7l-0.3-1.2l-1.2-2l-0.6-0.6l-1.2-0.5l-1.3-0.8
		l-0.5-0.6l-0.2-0.5l0.2-0.5l0.2-0.3l0.3-0.4l0.4-0.2l2.5-0.4l1.4-0.8l0.7-0.6l0.5-0.8l0.5-1.1l-3.1-4.7l-1.5-2.9l-2.9-2.3l-1.4-0.5
		l-5.1-0.8L105,180l-8.6-1l-1.4-0.9l-0.5-0.9v-0.7l0.1-0.7l0.4-1.7l-0.1-0.3l-0.1-0.3l-0.5-0.7l-0.7-1.4l-0.2-0.6v-0.3l0.2-1.4
		l-0.1-0.4l-0.2-0.3l-0.4-0.3l-0.3-0.4l-0.4-0.7l-0.6-1.5l-0.2-0.7l-0.1-0.5l0.1-0.2l0.2-0.2l0.2-0.1l0.4,0.1l0.5,0.3l0.2,0.1h0.3
		l0.3-0.2l0.2-0.3v-0.4l-0.1-0.5l-0.3-0.8l-0.2-0.3L93,162l-0.7-0.1l-1.8-0.8l-0.7-0.7h-1.4l-0.3-0.1l-0.5-0.2l-1.2-0.8l-0.5-0.2
		l-0.4-0.1l-5,0.2l-0.9-0.6l-1.6-2.9v-2.1l-0.1-0.5l-0.2-0.8l-0.2-0.4l-0.2-0.2l-0.6-0.6l-0.2-0.2l-0.3-0.9l-0.5-0.6l-0.1-0.3
		l-0.2-0.9l-0.2-0.4l-0.2-0.3l-0.6-0.4l-0.4-0.3l-0.3-0.4l-0.4-0.5l-0.3-0.3l-0.2-0.6l-0.2-1.1l-0.1-0.4v-0.4l0.2-2.3v-1.3l0.1-0.3
		l0.3-0.3l0.8-0.3l0.2-0.2l0.2-0.2l0.2-0.4l0.2-0.3l0.2-0.2l0.4-0.2l0.2-0.1l0.2-0.2l0.2-0.5l0.4-0.5l0.1-0.3v-0.5l-0.2-1.4
		l-0.2-0.4l-0.2-0.2l-1-0.6l-0.1-0.4l0.1-0.9l0.2-0.8l0.3-0.4l0.2-0.1l0.9-0.4l0.1-0.2l0.1-0.2l-0.1-0.2l-0.2-0.1l-0.4,0.2l-0.3-0.1
		l-0.3-0.2l-0.4-0.5l-0.2-0.2l-1.4-0.7l-0.1-0.7l-0.2-0.3l-0.8-1l-0.1-0.3v-0.4l0.2-0.2l0.3-0.2l1.6,0.2l0.3-0.1l0.4-0.2l0.7-0.7
		l0.5-0.6l0.5-0.5l0.1-0.3l-0.1-0.7l0.1-0.2l0.5-0.2l3.1-0.5h7.3l1.4-0.6l1.1-0.2l2.7,0.1l0.6-0.1l0.4-0.2l0.2-0.2l0.2-0.3l0.1-0.4
		l0.1-0.8l-0.1-0.6l-0.1-0.2l-0.9-0.7l-0.2-0.1l-0.1-0.3l0.1-0.3l0.2-0.3l0.4-0.2l1.9-0.6l1.2-0.7l1.3-1.2l0.3-0.3l0.3-0.4l0.5-0.8
		l0.1-0.4v-0.5l-0.2-1l-0.3-0.3l-0.3-0.1h-0.2l-0.3-0.1l-0.4-0.2l-0.3-0.3l-0.4-0.7v-0.3l0.1-0.4l0.5-1.1l0.5-0.5l1.1-0.5l0.8-0.2
		l0.4-0.2l0.3-0.4l0.1-0.5v-0.9l-0.1-0.4l-0.1-0.3l-0.3-0.4l-0.3,0.1l-0.2,0.4l-0.2,0.3l-0.2-0.1l-0.1-0.6v-0.7l-0.1-0.3l-0.3-0.1
		l-0.4,0.1l-0.2-0.1l-0.2-0.2l-0.3-0.5l-0.2-0.2l-0.4-0.4l-0.7-1.1l-0.1-0.2l0.1-0.2l0.3-0.4l0.6-0.5l0.1-0.2v-0.3l-0.2-0.4L98,98.2
		l-0.1-0.6l-0.2-0.3l-0.4-0.3l-0.5-0.2l-0.2-0.1l-0.2-0.4l-0.1-0.8l0.1-0.2l0.4-0.2l0.6-0.3l1.6-0.2l0.9-0.3l0.2-0.2l0.2-0.3
		l0.1-0.6l0.2-0.7l-0.2-0.4l-0.2-0.3l-1.6-1.4l-0.7-0.2l-0.5-0.3l-0.3-0.3l-3.9-5.3l0.1-1l0.1-0.4l0.1-0.3l0.2-0.4v-0.4l0.2-0.4
		l0.3-0.4l0.4-0.2l0.5-0.1h0.3l1,0.3h0.3l0.2-0.1l-0.1-0.4l-0.3-0.6L94.7,78l-0.3-0.3L94,77.2l-0.2-0.3l-0.1-0.5l-0.2-0.8v-0.5v-1.4
		l0.1-0.5l0.3-0.4l0.9-1l0.3-0.4l0.2-0.4l-0.1-0.3L95,70.6l-0.5-0.3h-0.4l-0.3,0.1l-0.2,0.1L93,71l-0.2,0.1L92.5,71l-0.5-0.5
		l-1.9-2.9l-2.1-4.2l-0.6-1.2l-0.5-0.3l-0.4-0.2h-0.6l-0.3-0.2l-0.3-0.4l-0.3-1.1l-0.1-0.6l-0.1-0.7L85,58.6l-0.7-0.7l-0.3-0.3
		l-0.6-1.4l-0.2-0.4l-0.2-0.5v-0.6l0.2-0.8v-0.5l-0.2-0.8v-0.3l0.1-0.3l0.2-0.5v-0.3l-0.1-0.5l0.2-0.3l1.9-0.8l2.6-0.2l2.4,0.2
		l0.7-0.2l0.9-0.5l1.5-0.5l1.1-0.6l0.5-0.7l1.1-0.8l0.1-0.2l0.1-0.3l0.1-0.7l0.1-0.6l0.2-0.4l0.2-0.3l0.7-0.3l1.1-0.1l0.9,0.1
		l1.7,0.5l1,0.6l0.5,0.1l3.2-0.2l2.7,0.5l0.2,0.2l0.3,0.4l0.2,0.2l0.7,0.3l0.2,0.2l0.2,0.5l0.3,0.3l0.3,0.2h0.3l0.4-0.1l0.5-0.4
		l0.4-0.2l0.3-0.1l0.5,0.2l1.1-0.1l3.3-1.5l1.9-0.5l0.2-0.1l3.2-3.1l0.5-0.1l1.1-0.1l0.2-0.2l-0.1-0.5l-0.2-0.5l-0.1-0.5v-0.9
		l0.3-1.8l0.1-0.3l0.3-0.8l0.2-0.3l0.3-0.3l0.6-0.1l0.3,0.1l0.5,0.2l0.7-0.1l0.6-0.4l1.1-3l2.4-0.7l0.6,0.4l0.1,0.8l-0.3,0.9
		l-0.5,0.5l0.8,0.4l1.8,0.1l0.6,0.5l0.4,1.2l0.1,0.9l0.3,0.6l1,0.2l0.6-0.2l1.4-0.8l0.9-0.2l1.7,2.6l0.8,0.6l1.7,0.1l0.7,0.4
		l-0.3,1.1l-0.7,1l-0.1,0.4l3.5,2.4l0.6,0.2l1,0.2l0.8,0.3l1.5,0.9l1,0.2l0.8-0.4l1.4,0.1l3.8-0.5l0.2,0.1l0.2,0.2l0.4,0.4l0.3,0.7
		l-0.1,1.1l0.8,0.1l0.6-0.1l1.9-0.6l0.2-0.1l0.3,0.1l0.7,0.3l0.6,0.2l0.3,0.4l0.3,0.7l1.1,3.5v0.6l-0.2,1l-1.8,1.5l-0.1,0.3
		l-0.1,0.4l0.2,0.7l0.2,0.4l0.2,0.3l0.3,0.3l0.1,0.3v0.3l-0.2,0.3l-0.6,0.5l-0.2,0.4l-0.1,0.3v0.3l0.2,0.4l0.5,0.7l0.2,0.3L163,62
		l0.1,0.7l0.2,0.3l0.2,0.2l0.5,0.5l0.2,0.2l0.1,0.3v0.8l-0.1,0.9l-0.6,1.7l-0.4,0.7l-0.3,0.4l-0.6,0.4l-0.5,0.2l-1.1-0.1h-0.3
		l-0.2,0.6l-0.1,0.9l-0.1,2.1l-0.2,0.9l-0.1,0.6l-1.5,2.3l-0.1,0.2l0.1,0.2l0.3,0.1h0.3l0.5-0.1h0.6l0.3,0.1l0.2,0.2l0.1,0.2
		l-0.4,0.5l-0.2,0.2l-0.3,0.4l-0.1,0.3v0.4l0.1,0.5l0.1,0.3l0.4,0.4l0.7,0.2l0.8-0.2l0.5-0.2l0.3-0.3l0.3-0.4l0.1-0.3l0.1-0.8
		l0.1-0.3l0.2-0.2l0.2-0.1h0.3l0.3,0.1l0.4,0.4l0.3,0.4l0.8,1.4l0.3,0.3l0.3,0.1l0.4-0.2l0.5,0.1l0.5-0.1l0.4-0.2h0.2l0.1,0.2
		l-0.3,0.6l-0.1,0.4l-0.1,0.7l0.1,0.7l-0.1,0.6l-0.7,1.2l-0.5,1.4l-0.3,0.5l-0.6,0.4l-0.1,0.2v0.2l0.1,0.3l0.4,0.6l0.1,0.2V88
		l-0.1,0.5l-0.4,1.2l-0.2,0.5l-0.7,1.3l-0.1,0.2v0.3l0.1,0.4v0.3l-0.2,0.7l0.1,0.7l0.2,0.7l0.1,0.3l-0.1,0.4l-0.7,1.2l-0.2,0.5
		l-0.2,0.8l-0.4,0.9l-0.1,0.3l-0.1,0.5v0.7l0.2,1.4l0.3,0.5l0.3,0.3l0.6,0.1l0.2,0.2l0.2,0.3l0.2,0.5l0.3,0.5l0.2,0.2l-0.2,0.5
		l-1.3,1.4l-0.7,2.2l-0.4,0.7l-0.1,0.3v0.3l0.5,1.4l0.5,1.1l0.2,0.3l1.5,1.4l0.4,1.2l0.2,0.3l0.2,0.2l1.1,0.6l1,1.1l3.4,4.7l0.2,0.6
		v0.5l0.1,0.5l0.3,0.4l0.5,0.5l1.6,1.1l0.7,0.6l0.3,0.2l0.4,0.1h0.7l0.3-0.1l0.3-0.2l0.2-0.5l0.1-0.2l0.2-0.2h0.3l0.3,0.1l0.3,0.3
		l1.1,1.5l2.6,2l1,0.6l2.5,0.6l0.8-0.8l0.7-0.5l0.7-0.3l0.3-0.3l0.2-0.3v-0.3l0.1-0.2l0.3-0.1l0.4,0.1l2.1,1.2l4.9,3.1l0.6,0.2
		l2.1,0.3l0.8,0.6l0.3,0.6l0.5,1.4l0.3,0.2l0.5,0.1l2.5,0.1l1.1,0.2l0.6,0.3l0.7,0.6l0.3,0.5l0.3,0.5l0.4,0.4l3.1,2.2l1,0.4l3.6-0.5
		l0.4,0.1l0.5,0.6l0.3,0.3l0.4,0.2l0.3-0.4l0.5-0.9l0.3-0.3l0.3-0.1l1.8,0.2l1.1,0.5l-0.5,1.1l-1.9,2.1l-1.7,2.7l-0.3,0.6l-0.1,0.7
		v2.3l0.1,0.7l0.3,1l0.6,0.9l0.4,1l-0.2,1.1l-1.5,2.1l-3.3,2.6l-0.5,0.5L210.1,160.7L210.1,160.7z"/>
	<circle class="st3" cx="128.7" cy="118.3" r="2.8"/>
	<g>
		<path class="st3" d="M99.2,126.2h2.9l0.6,6.6l4.2-6.6h2.7l-0.1,0.4h-0.4c-0.3,0-0.4,0-0.5,0.1c-0.1,0.1-0.2,0.2-0.2,0.3l-1.8,6.9
			c0,0,0,0.1,0,0.1c0,0.1,0,0.2,0.1,0.2c0.1,0.1,0.3,0.1,0.5,0.1h0.7l-0.1,0.4h-3.8l0.1-0.4h0.6c0.2,0,0.4,0,0.5-0.1
			s0.2-0.2,0.2-0.4l1.9-7.1l-5.1,8.1h-0.3l-0.8-8.1l-1.6,6c-0.1,0.3-0.1,0.6-0.1,0.7c0,0.2,0,0.3,0.1,0.5s0.2,0.2,0.4,0.3
			s0.4,0.1,0.7,0.1l-0.1,0.4H97l0.1-0.4c0.4,0,0.7-0.1,1-0.4s0.4-0.5,0.5-0.8l1.6-6.2c0,0,0-0.1,0-0.1c0-0.1,0-0.2-0.1-0.2
			s-0.3-0.1-0.5-0.1H99L99.2,126.2z"/>
		<path class="st3" d="M112.6,134c-0.2,0.4-0.5,0.6-0.8,0.8s-0.6,0.3-0.9,0.3c-0.6,0-1.1-0.2-1.5-0.6s-0.6-1-0.6-1.6
			c0-0.6,0.2-1.2,0.5-1.7s0.7-1,1.2-1.3s1-0.5,1.4-0.5c0.4,0,0.7,0.1,1,0.3s0.5,0.5,0.6,0.9l0.3-1l0.9-0.1l-1.3,4.5
			c0,0.1-0.1,0.2-0.1,0.4c0,0.1,0,0.2,0.1,0.3s0.1,0.1,0.2,0.1c0.1,0,0.3-0.1,0.4-0.2c0.3-0.3,0.6-0.7,0.8-1.2l0.3,0.2
			c-0.6,1.3-1.2,1.9-1.9,1.9c-0.2,0-0.4-0.1-0.5-0.2s-0.2-0.4-0.2-0.6L112.6,134z M111.9,129.7c-0.3,0-0.6,0.1-0.9,0.4
			c-0.3,0.2-0.6,0.7-0.8,1.2s-0.4,1.2-0.4,1.8c0,0.5,0.1,0.8,0.3,1.1s0.5,0.3,0.8,0.3c0.3,0,0.6-0.1,0.9-0.3
			c0.3-0.2,0.6-0.7,0.8-1.4s0.4-1.3,0.4-1.8c0-0.4-0.1-0.7-0.4-0.9S112.3,129.7,111.9,129.7z"/>
		<path class="st3" d="M119.9,129.4c0.5-0.4,0.9-0.6,1.3-0.6c0.2,0,0.4,0.1,0.5,0.2s0.2,0.2,0.2,0.4c0,0.1,0,0.3-0.1,0.3
			s-0.2,0.1-0.3,0.1c-0.2,0-0.3-0.1-0.4-0.3c-0.1-0.1-0.1-0.2-0.2-0.2c0,0-0.1,0-0.2,0c-0.2,0-0.3,0.1-0.5,0.2
			c0.5,0.4,0.8,0.8,0.8,1.3c0,0.5-0.2,1-0.7,1.4s-1,0.6-1.7,0.6c-0.1,0-0.4,0-0.6,0c-0.2,0-0.4,0-0.6,0c-0.3,0-0.6,0.1-0.8,0.2
			s-0.3,0.3-0.3,0.4c0,0.1,0,0.2,0.1,0.2s0.2,0.1,0.3,0.1c0.1,0,0.3,0,0.8,0.1c0.9,0,1.5,0.1,1.9,0.2s0.6,0.3,0.8,0.5
			s0.2,0.4,0.2,0.7c0,0.3-0.1,0.6-0.3,0.9s-0.6,0.5-1.1,0.7s-1.1,0.3-1.7,0.3c-0.6,0-1-0.1-1.4-0.2s-0.7-0.3-0.8-0.5
			s-0.3-0.4-0.3-0.6c0-0.3,0.1-0.5,0.4-0.7s0.6-0.4,1.2-0.6c-0.2-0.1-0.4-0.2-0.6-0.4s-0.2-0.3-0.2-0.5c0-0.3,0.1-0.6,0.4-0.8
			s0.6-0.4,1.1-0.4c-0.5-0.3-0.8-0.8-0.8-1.3c0-0.3,0.1-0.6,0.3-0.9s0.5-0.6,0.9-0.8s0.8-0.3,1.3-0.3c0.2,0,0.3,0,0.5,0
			S119.7,129.4,119.9,129.4z M117.7,134.8c-0.7,0-1.2,0.1-1.5,0.3s-0.4,0.5-0.4,0.8c0,0.3,0.1,0.5,0.4,0.7s0.7,0.3,1.3,0.3
			c0.8,0,1.4-0.1,1.7-0.4c0.3-0.2,0.4-0.5,0.4-0.8c0-0.2-0.1-0.5-0.4-0.6S118.4,134.8,117.7,134.8z M119,129.6
			c-0.4,0-0.8,0.2-1.1,0.5s-0.5,0.8-0.5,1.3c0,0.4,0.1,0.7,0.3,0.9s0.5,0.3,0.8,0.3c0.4,0,0.7-0.2,1-0.5s0.4-0.8,0.4-1.4
			c0-0.4-0.1-0.6-0.3-0.8S119.3,129.6,119,129.6z"/>
		<path class="st3" d="M129,126.1l-2.1,7.5c-0.1,0.2-0.1,0.4-0.1,0.6c0,0.1,0,0.2,0.1,0.2s0.1,0.1,0.2,0.1c0.3,0,0.8-0.5,1.4-1.5
			l0.3,0.2c-0.4,0.7-0.7,1.2-1.1,1.5s-0.7,0.4-0.9,0.4c-0.3,0-0.4-0.1-0.6-0.3s-0.2-0.5-0.2-0.8c-0.5,0.7-1.1,1.1-1.8,1.1
			c-0.3,0-0.6-0.1-0.9-0.3c-0.3-0.2-0.5-0.4-0.7-0.7s-0.2-0.7-0.2-1.1c0-0.6,0.2-1.2,0.5-1.8c0.3-0.6,0.7-1.1,1.2-1.4
			c0.5-0.3,0.9-0.5,1.4-0.5c0.3,0,0.6,0.1,0.9,0.2c0.3,0.2,0.5,0.4,0.7,0.7l0.9-3.1c0,0,0-0.1,0-0.1c0-0.1,0-0.2-0.1-0.2
			c-0.1-0.1-0.2-0.1-0.4-0.1h-0.6l0.1-0.4L129,126.1z M125.4,129.7c-0.4,0-0.7,0.2-1,0.5c-0.3,0.3-0.6,0.9-0.9,1.6
			c-0.2,0.6-0.3,1-0.3,1.4c0,0.4,0.1,0.7,0.3,0.9c0.2,0.2,0.4,0.3,0.7,0.3c0.3,0,0.7-0.2,1-0.5c0.3-0.3,0.6-0.8,0.8-1.5
			c0.2-0.7,0.3-1.2,0.3-1.6c0-0.4-0.1-0.7-0.3-0.9S125.8,129.7,125.4,129.7z"/>
		<path class="st3" d="M130.5,132.8c0,0.2,0,0.3,0,0.5c0,0.4,0.1,0.8,0.3,1s0.5,0.3,0.9,0.3c0.3,0,0.6-0.1,0.8-0.2s0.6-0.4,1-0.9
			l0.3,0.2c-0.7,0.9-1.5,1.4-2.3,1.4c-0.6,0-1-0.2-1.4-0.6s-0.6-1-0.6-1.6c0-0.6,0.2-1.1,0.5-1.7s0.8-1,1.3-1.4s1-0.5,1.5-0.5
			c0.4,0,0.7,0.1,1,0.3s0.4,0.5,0.4,0.9c0,0.3-0.1,0.6-0.3,0.9s-0.5,0.5-1,0.8S131.6,132.5,130.5,132.8z M130.6,132.4
			c0.7-0.2,1.3-0.3,1.6-0.5c0.3-0.2,0.6-0.4,0.7-0.7s0.2-0.5,0.2-0.8c0-0.2-0.1-0.4-0.2-0.5s-0.3-0.2-0.5-0.2
			c-0.4,0-0.7,0.2-1.1,0.6S130.8,131.4,130.6,132.4z"/>
		<path class="st3" d="M138,126.1l-1.1,4.1c0.6-0.6,1.2-1,1.8-1c0.5,0,0.9,0.2,1.2,0.5c0.3,0.4,0.5,0.8,0.5,1.4
			c0,0.7-0.2,1.3-0.5,1.9s-0.7,1.1-1.2,1.4s-1,0.5-1.6,0.5c-0.6,0-1-0.2-1.3-0.5c-0.3-0.3-0.5-0.8-0.5-1.3c0-0.3,0-0.6,0.1-0.9
			l1.4-5.2c0,0,0-0.1,0-0.1c0-0.1-0.1-0.2-0.2-0.3c-0.1-0.1-0.4-0.1-0.7-0.1l0.1-0.4L138,126.1z M138.4,129.8
			c-0.3,0-0.6,0.1-0.8,0.4c-0.3,0.3-0.7,0.8-0.9,1.4c-0.3,0.6-0.4,1.3-0.4,1.8c0,0.4,0.1,0.8,0.3,1c0.2,0.2,0.4,0.3,0.7,0.3
			c0.3,0,0.6-0.1,0.9-0.4c0.3-0.3,0.6-0.7,0.8-1.3c0.3-0.6,0.4-1.2,0.4-1.8c0-0.5-0.1-0.8-0.3-1S138.7,129.8,138.4,129.8z"/>
		<path class="st3" d="M143.9,129.3l-1,3.6c-0.1,0.4-0.2,0.7-0.2,1c0,0.2,0,0.3,0.1,0.4c0.1,0.1,0.2,0.2,0.4,0.2
			c0.3,0,0.8-0.3,1.3-0.8c0.5-0.5,0.9-1.3,1.2-2.2l0.6-2h0.9l-1.2,4.3c-0.1,0.2-0.1,0.4-0.1,0.5c0,0.1,0,0.2,0.1,0.2
			c0,0.1,0.1,0.1,0.2,0.1c0.4,0,0.8-0.5,1.4-1.5l0.3,0.1c-0.3,0.7-0.7,1.2-1,1.5c-0.4,0.3-0.7,0.5-1.1,0.5c-0.2,0-0.4-0.1-0.6-0.2
			c-0.1-0.1-0.2-0.3-0.2-0.6c0-0.2,0-0.5,0.1-0.9c-0.5,0.6-0.9,1.1-1.3,1.3c-0.4,0.2-0.7,0.4-1,0.4c-0.3,0-0.6-0.1-0.8-0.3
			c-0.2-0.2-0.3-0.4-0.3-0.8c0-0.3,0.1-0.6,0.2-1.2l0.7-2.5c0-0.1,0-0.1,0-0.2c0-0.1,0-0.2-0.1-0.2c-0.1-0.1-0.3-0.1-0.5-0.1h-0.3
			l0.1-0.4L143.9,129.3z"/>
		<path class="st3" d="M150,134.9l-1,0.1l1-3.8c0.1-0.4,0.2-0.7,0.2-0.8c0-0.2-0.1-0.3-0.2-0.4s-0.3-0.1-0.6-0.1h-0.3l0.1-0.4
			l1.9-0.1l-0.6,2.4c0.4-0.8,0.6-1.4,0.8-1.6s0.4-0.5,0.6-0.6c0.2-0.1,0.4-0.2,0.7-0.2c0.3,0,0.5,0.1,0.7,0.2s0.3,0.4,0.3,0.6
			c0,0.2-0.1,0.4-0.2,0.5s-0.3,0.2-0.5,0.2c-0.1,0-0.3-0.1-0.4-0.2s-0.2-0.2-0.2-0.4c0-0.1,0-0.1,0.1-0.2c0-0.1,0-0.1,0-0.2
			c0-0.1,0-0.1,0-0.1s-0.1,0-0.1,0c-0.1,0-0.2,0.1-0.4,0.2c-0.3,0.2-0.5,0.6-0.8,1.2c-0.5,1-0.8,1.8-1,2.5L150,134.9z"/>
		<path class="st3" d="M158.3,129.4c0.5-0.4,0.9-0.6,1.3-0.6c0.2,0,0.4,0.1,0.5,0.2s0.2,0.2,0.2,0.4c0,0.1,0,0.3-0.1,0.3
			s-0.2,0.1-0.3,0.1c-0.2,0-0.3-0.1-0.4-0.3c-0.1-0.1-0.1-0.2-0.2-0.2c0,0-0.1,0-0.2,0c-0.2,0-0.3,0.1-0.5,0.2
			c0.5,0.4,0.8,0.8,0.8,1.3c0,0.5-0.2,1-0.7,1.4s-1,0.6-1.7,0.6c-0.1,0-0.4,0-0.6,0c-0.2,0-0.4,0-0.6,0c-0.3,0-0.6,0.1-0.8,0.2
			s-0.3,0.3-0.3,0.4c0,0.1,0,0.2,0.1,0.2s0.2,0.1,0.3,0.1c0.1,0,0.3,0,0.8,0.1c0.9,0,1.5,0.1,1.9,0.2s0.6,0.3,0.8,0.5
			s0.2,0.4,0.2,0.7c0,0.3-0.1,0.6-0.3,0.9s-0.6,0.5-1.1,0.7s-1.1,0.3-1.7,0.3c-0.6,0-1-0.1-1.4-0.2s-0.7-0.3-0.8-0.5
			s-0.3-0.4-0.3-0.6c0-0.3,0.1-0.5,0.4-0.7s0.6-0.4,1.2-0.6c-0.2-0.1-0.4-0.2-0.6-0.4s-0.2-0.3-0.2-0.5c0-0.3,0.1-0.6,0.4-0.8
			s0.6-0.4,1.1-0.4c-0.5-0.3-0.8-0.8-0.8-1.3c0-0.3,0.1-0.6,0.3-0.9s0.5-0.6,0.9-0.8s0.8-0.3,1.3-0.3c0.2,0,0.3,0,0.5,0
			S158.1,129.4,158.3,129.4z M156.1,134.8c-0.7,0-1.2,0.1-1.5,0.3s-0.4,0.5-0.4,0.8c0,0.3,0.1,0.5,0.4,0.7s0.7,0.3,1.3,0.3
			c0.8,0,1.4-0.1,1.7-0.4c0.3-0.2,0.4-0.5,0.4-0.8c0-0.2-0.1-0.5-0.4-0.6S156.9,134.8,156.1,134.8z M157.4,129.6
			c-0.4,0-0.8,0.2-1.1,0.5s-0.5,0.8-0.5,1.3c0,0.4,0.1,0.7,0.3,0.9s0.5,0.3,0.8,0.3c0.4,0,0.7-0.2,1-0.5s0.4-0.8,0.4-1.4
			c0-0.4-0.1-0.6-0.3-0.8S157.7,129.6,157.4,129.6z"/>
	</g>
</g>
<g id="Labels">
	<g>
		<rect y="-31.5" class="st2" width="283.2" height="31.8"/>
	</g>
</g>
</svg>
