<?xml version="1.0" encoding="UTF-8" standalone="no"?>
<!DOCTYPE svg PUBLIC "-//W3C//DTD SVG 1.1//EN" "http://www.w3.org/Graphics/SVG/1.1/DTD/svg11.dtd">
<svg width="100%" height="100%" viewBox="0 0 140 250" version="1.1" xmlns="http://www.w3.org/2000/svg" xmlns:xlink="http://www.w3.org/1999/xlink" xml:space="preserve" xmlns:serif="http://www.serif.com/" style="fill-rule:evenodd;clip-rule:evenodd;stroke-linejoin:round;stroke-miterlimit:2;">
    <path d="M28.058,183.375C10.32,169.138 0,147.621 0,124.876C0,102.131 10.32,80.614 28.058,66.377C53.718,45.782 80.093,24.613 95.955,11.881C105.536,4.191 117.453,0 129.738,0L139.385,0L139.385,249.752L129.372,249.752C117.324,249.752 105.637,245.642 96.241,238.1C72.519,219.06 28.058,183.375 28.058,183.375ZM66.894,93.661C84.122,93.661 98.109,107.648 98.109,124.876C98.109,142.104 84.122,156.091 66.894,156.091C49.666,156.091 35.679,142.104 35.679,124.876C35.679,107.648 49.666,93.661 66.894,93.661Z" style="fill:rgb(217,217,217);"/>
</svg>
