<?xml version="1.0" encoding="UTF-8" standalone="no"?>
<!DOCTYPE svg PUBLIC "-//W3C//DTD SVG 1.1//EN"
 "http://www.w3.org/Graphics/SVG/1.1/DTD/svg11.dtd">
<!-- Generated by graphviz version 2.40.1 (20161225.0304)
 -->
<!-- Title: finite_state_machine Pages: 1 -->
<svg width="1093pt" height="1246pt"
 viewBox="0.00 0.00 524.45 597.97" xmlns="http://www.w3.org/2000/svg" xmlns:xlink="http://www.w3.org/1999/xlink">
<g id="graph0" class="graph" transform="scale(2.0833 2.0833) rotate(0) translate(4 593.9666)">
<title>finite_state_machine</title>
<polygon fill="#ffffff" stroke="transparent" points="-4,4 -4,-593.9666 520.4485,-593.9666 520.4485,4 -4,4"/>
<!-- PATH_DRAW -->
<g id="node1" class="node">
<title>PATH_DRAW</title>
<ellipse fill="none" stroke="#000000" cx="392.4485" cy="-524.3224" rx="65.7887" ry="65.7887"/>
<text text-anchor="middle" x="392.4485" y="-520.6224" font-family="Times,serif" font-size="14.00" fill="#000000">PATH_DRAW</text>
</g>
<!-- DRAGGING -->
<g id="node2" class="node">
<title>DRAGGING</title>
<ellipse fill="none" stroke="#000000" cx="159.4485" cy="-334.8333" rx="57.6901" ry="57.6901"/>
<text text-anchor="middle" x="159.4485" y="-331.1333" font-family="Times,serif" font-size="14.00" fill="#000000">DRAGGING</text>
</g>
<!-- PATH_DRAW&#45;&gt;DRAGGING -->
<g id="edge10" class="edge">
<title>PATH_DRAW&#45;&gt;DRAGGING</title>
<path fill="none" stroke="#000000" d="M328.2447,-510.1155C266.1177,-494.9131 178.4815,-469.1136 158.4485,-440.6782 150.4428,-429.3148 147.2554,-415.426 146.7377,-401.4961"/>
<polygon fill="#000000" stroke="#000000" points="150.2383,-401.4033 146.8019,-391.3812 143.2384,-401.3588 150.2383,-401.4033"/>
<text text-anchor="middle" x="248.4485" y="-429.4782" font-family="Times,serif" font-size="14.00" fill="#000000">mousedown</text>
<text text-anchor="middle" x="248.4485" y="-414.4782" font-family="Times,serif" font-size="14.00" fill="#000000">VERTEX or CONTROL POINT</text>
</g>
<!-- TOOL -->
<g id="node3" class="node">
<title>TOOL</title>
<ellipse fill="none" stroke="#000000" cx="249.4485" cy="-161.5415" rx="34.394" ry="34.394"/>
<text text-anchor="middle" x="249.4485" y="-157.8415" font-family="Times,serif" font-size="14.00" fill="#000000">TOOL</text>
</g>
<!-- PATH_DRAW&#45;&gt;TOOL -->
<g id="edge8" class="edge">
<title>PATH_DRAW&#45;&gt;TOOL</title>
<path fill="none" stroke="#000000" d="M413.7493,-462.0685C432.7847,-393.995 450.2057,-285.138 396.4485,-213.9885 383.703,-197.1194 331.8715,-181.3275 293.3431,-171.5681"/>
<polygon fill="#000000" stroke="#000000" points="293.9182,-168.1049 283.3702,-169.0997 292.2364,-174.8998 293.9182,-168.1049"/>
<text text-anchor="middle" x="448.9485" y="-331.1333" font-family="Times,serif" font-size="14.00" fill="#000000">cancel</text>
</g>
<!-- PATH_DRAW&#45;&gt;TOOL -->
<g id="edge9" class="edge">
<title>PATH_DRAW&#45;&gt;TOOL</title>
<path fill="none" stroke="#000000" d="M432.2921,-471.8927C447.3794,-448.8732 462.7611,-420.7332 470.4485,-392.6782 484.0365,-343.0885 487.1354,-325.6231 470.4485,-276.9885 458.9365,-243.4363 450.6674,-234.1012 421.4485,-213.9885 382.8998,-187.4537 330.5194,-174.0112 293.7243,-167.4267"/>
<polygon fill="#000000" stroke="#000000" points="294.2274,-163.9621 283.7839,-165.7462 293.0605,-170.8642 294.2274,-163.9621"/>
<text text-anchor="middle" x="498.9485" y="-331.1333" font-family="Times,serif" font-size="14.00" fill="#000000">cancel</text>
</g>
<!-- DRAGGING&#45;&gt;PATH_DRAW -->
<g id="edge11" class="edge">
<title>DRAGGING&#45;&gt;PATH_DRAW</title>
<path fill="none" stroke="#000000" d="M216.2123,-347.5417C254.7123,-358.6516 304.5731,-378.2226 338.4485,-410.6782 345.8359,-417.756 355.047,-434.8697 363.7582,-453.7272"/>
<polygon fill="#000000" stroke="#000000" points="360.6795,-455.4142 367.9842,-463.0883 367.0595,-452.5339 360.6795,-455.4142"/>
<text text-anchor="middle" x="380.4485" y="-429.4782" font-family="Times,serif" font-size="14.00" fill="#000000">mouseup</text>
<text text-anchor="middle" x="380.4485" y="-414.4782" font-family="Times,serif" font-size="14.00" fill="#000000">SVG</text>
</g>
<!-- DRAGGING&#45;&gt;TOOL -->
<g id="edge6" class="edge">
<title>DRAGGING&#45;&gt;TOOL</title>
<path fill="none" stroke="#000000" d="M104.4626,-316.7531C48.4851,-295.4328 -25.4685,-257.3598 9.4485,-213.9885 33.5171,-184.0922 142.3695,-170.3096 204.8948,-164.7604"/>
<polygon fill="#000000" stroke="#000000" points="205.2173,-168.2457 214.8838,-163.9088 204.6226,-161.271 205.2173,-168.2457"/>
<text text-anchor="middle" x="34.4485" y="-240.2885" font-family="Times,serif" font-size="14.00" fill="#000000">mouseup</text>
<text text-anchor="middle" x="34.4485" y="-225.2885" font-family="Times,serif" font-size="14.00" fill="#000000">SVG</text>
</g>
<!-- TOOL&#45;&gt;DRAGGING -->
<g id="edge1" class="edge">
<title>TOOL&#45;&gt;DRAGGING</title>
<path fill="none" stroke="#000000" d="M215.3239,-166.6259C168.4151,-174.3925 87.8238,-190.7917 70.4485,-213.9885 49.8163,-241.5332 74.1661,-272.8236 102.5736,-296.6622"/>
<polygon fill="#000000" stroke="#000000" points="100.6771,-299.629 110.6595,-303.179 105.0697,-294.1787 100.6771,-299.629"/>
<text text-anchor="middle" x="103.9485" y="-247.7885" font-family="Times,serif" font-size="14.00" fill="#000000">mousedown</text>
<text text-anchor="middle" x="103.9485" y="-232.7885" font-family="Times,serif" font-size="14.00" fill="#000000">manipulator</text>
<text text-anchor="middle" x="103.9485" y="-217.7885" font-family="Times,serif" font-size="14.00" fill="#000000">area</text>
</g>
<!-- TOOL&#45;&gt;DRAGGING -->
<g id="edge2" class="edge">
<title>TOOL&#45;&gt;DRAGGING</title>
<path fill="none" stroke="#000000" d="M216.2577,-171.7394C196.28,-179.7779 172.4581,-193.1719 160.4485,-213.9885 151.204,-230.0121 148.2089,-249.3333 148.2549,-267.7798"/>
<polygon fill="#000000" stroke="#000000" points="144.7608,-268.0261 148.573,-277.9113 151.7574,-267.8064 144.7608,-268.0261"/>
<text text-anchor="middle" x="193.9485" y="-247.7885" font-family="Times,serif" font-size="14.00" fill="#000000">mousedown</text>
<text text-anchor="middle" x="193.9485" y="-232.7885" font-family="Times,serif" font-size="14.00" fill="#000000">manipulator</text>
<text text-anchor="middle" x="193.9485" y="-217.7885" font-family="Times,serif" font-size="14.00" fill="#000000">scale handle</text>
</g>
<!-- TOOL&#45;&gt;DRAGGING -->
<g id="edge3" class="edge">
<title>TOOL&#45;&gt;DRAGGING</title>
<path fill="none" stroke="#000000" d="M246.0153,-195.9259C243.0443,-215.2799 237.5509,-239.4154 227.4485,-258.9885 222.3042,-268.9552 215.5352,-278.6387 208.2624,-287.5675"/>
<polygon fill="#000000" stroke="#000000" points="205.5781,-285.3213 201.7695,-295.2079 210.9122,-289.8542 205.5781,-285.3213"/>
<text text-anchor="middle" x="275.9485" y="-240.2885" font-family="Times,serif" font-size="14.00" fill="#000000">mousedown</text>
<text text-anchor="middle" x="275.9485" y="-225.2885" font-family="Times,serif" font-size="14.00" fill="#000000">svg</text>
</g>
<!-- TOOL&#45;&gt;DRAGGING -->
<g id="edge7" class="edge">
<title>TOOL&#45;&gt;DRAGGING</title>
<path fill="none" stroke="#000000" d="M279.8737,-178.1573C292.7469,-186.9568 306.3798,-199.0569 313.4485,-213.9885 322.006,-232.0652 324.0142,-242.0072 313.4485,-258.9885 294.2574,-289.8322 258.4289,-308.4988 226.157,-319.5917"/>
<polygon fill="#000000" stroke="#000000" points="224.7102,-316.3814 216.2781,-322.7963 226.8702,-323.0398 224.7102,-316.3814"/>
<text text-anchor="middle" x="356.9485" y="-247.7885" font-family="Times,serif" font-size="14.00" fill="#000000">mousedown</text>
<text text-anchor="middle" x="356.9485" y="-232.7885" font-family="Times,serif" font-size="14.00" fill="#000000">manipulator</text>
<text text-anchor="middle" x="356.9485" y="-217.7885" font-family="Times,serif" font-size="14.00" fill="#000000">rotate handle</text>
</g>
<!-- EDIT -->
<g id="node4" class="node">
<title>EDIT</title>
<ellipse fill="none" stroke="#000000" cx="249.4485" cy="-30.5473" rx="30.5947" ry="30.5947"/>
<text text-anchor="middle" x="249.4485" y="-26.8473" font-family="Times,serif" font-size="14.00" fill="#000000">EDIT</text>
</g>
<!-- TOOL&#45;&gt;EDIT -->
<g id="edge4" class="edge">
<title>TOOL&#45;&gt;EDIT</title>
<path fill="none" stroke="#000000" d="M223.9429,-138.2539C216.5134,-129.8724 209.3504,-119.8165 205.4485,-109.0946 200.8888,-96.5651 200.6499,-91.5345 205.4485,-79.0946 208.3844,-71.4832 213.1287,-64.3263 218.4377,-57.9666"/>
<polygon fill="#000000" stroke="#000000" points="221.2192,-60.1107 225.3707,-50.3631 216.0466,-55.3942 221.2192,-60.1107"/>
<text text-anchor="middle" x="238.9485" y="-97.8946" font-family="Times,serif" font-size="14.00" fill="#000000">mousedown</text>
<text text-anchor="middle" x="238.9485" y="-82.8946" font-family="Times,serif" font-size="14.00" fill="#000000">LABEL</text>
</g>
<!-- EDIT&#45;&gt;TOOL -->
<g id="edge5" class="edge">
<title>EDIT&#45;&gt;TOOL</title>
<path fill="none" stroke="#000000" d="M264.674,-57.2571C267.8796,-64.1578 270.7909,-71.7243 272.4485,-79.0946 275.3741,-92.103 275.1841,-96.0449 272.4485,-109.0946 271.5879,-113.1998 270.3863,-117.3763 268.9795,-121.4891"/>
<polygon fill="#000000" stroke="#000000" points="265.6811,-120.3158 265.3884,-130.9066 272.2218,-122.8099 265.6811,-120.3158"/>
<text text-anchor="middle" x="308.9485" y="-97.8946" font-family="Times,serif" font-size="14.00" fill="#000000">mousedown</text>
<text text-anchor="middle" x="308.9485" y="-82.8946" font-family="Times,serif" font-size="14.00" fill="#000000">SVG</text>
</g>
</g>
</svg>
